<svg width="24" height="25" viewBox="0 0 24 25" fill="none" xmlns="http://www.w3.org/2000/svg">
<g clip-path="url(#clip0_290_839)">
<path fill-rule="evenodd" clip-rule="evenodd" d="M24 6.25723C24 8.60845 22.2479 10.5145 20.0865 10.5145C17.9251 10.5145 16.173 8.60845 16.173 6.25723C16.173 3.90602 17.9251 2 20.0865 2C22.2479 2 24 3.90602 24 6.25723ZM17.9792 6.02421V6.71584H19.7229V8.51828H20.4165V6.71584H22.1601V6.02421H20.4165V4.22174H19.7229V6.02421H17.9792Z" fill="white"/>
<path fill-rule="evenodd" clip-rule="evenodd" d="M1.5 5.64836C1.5 5.27056 1.78154 4.96429 2.12884 4.96429H3.29093C4.00432 4.96429 4.6256 5.48629 4.80969 6.23269L4.80996 6.23378L5.00364 7.02429C9.56622 6.93366 14.1201 7.50915 18.5435 8.73601C18.7129 8.78301 18.8568 8.90466 18.9404 9.07175C19.024 9.23884 19.0399 9.43626 18.9842 9.61661C18.2846 11.8831 17.4535 14.0849 16.5017 16.2091C16.3964 16.4442 16.177 16.5934 15.9365 16.5934H6.53071C6.03038 16.5934 5.55054 16.8096 5.19674 17.1945C4.99589 17.413 4.845 17.6757 4.75209 17.9615H17.221C17.5683 17.9615 17.8498 18.2678 17.8498 18.6456C17.8498 19.0234 17.5683 19.3297 17.221 19.3297H4.01536C3.66806 19.3297 3.38652 19.0234 3.38652 18.6456C3.38652 17.7385 3.71778 16.8685 4.30743 16.2271C4.70661 15.7928 5.20206 15.4874 5.73922 15.3354L3.59497 6.58721C3.59494 6.58709 3.595 6.58734 3.59497 6.58721C3.55759 6.43633 3.43265 6.33243 3.29093 6.33243H2.12884C1.78154 6.33243 1.5 6.02616 1.5 5.64836ZM7.01384 15.2253H15.5417C16.3018 13.494 16.9801 11.7109 17.5703 9.88323C13.5652 8.83579 9.45622 8.33327 5.33763 8.38708L7.01384 15.2253ZM3.75488 20.4145C3.99074 20.1579 4.31064 20.0137 4.6442 20.0137C4.97775 20.0137 5.29765 20.1579 5.53351 20.4145C5.76937 20.671 5.90187 21.019 5.90187 21.3819C5.90187 21.7447 5.76937 22.0927 5.53351 22.3493C5.29765 22.6059 4.97775 22.75 4.6442 22.75C4.31064 22.75 3.99074 22.6059 3.75488 22.3493C3.51902 22.0927 3.38652 21.7447 3.38652 21.3819C3.38652 21.019 3.51902 20.671 3.75488 20.4145ZM14.4452 20.4145C14.681 20.1579 15.0009 20.0137 15.3345 20.0137C15.668 20.0137 15.9879 20.1579 16.2238 20.4145C16.4596 20.671 16.5921 21.019 16.5921 21.3819C16.5921 21.7447 16.4596 22.0927 16.2238 22.3493C15.9879 22.6059 15.668 22.75 15.3345 22.75C15.0009 22.75 14.681 22.6059 14.4452 22.3493C14.2093 22.0927 14.0768 21.7447 14.0768 21.3819C14.0768 21.019 14.2093 20.671 14.4452 20.4145Z" fill="white"/>
</g>
<defs>
<clipPath id="clip0_290_839">
<rect width="24" height="24" fill="white" transform="translate(0 1)"/>
</clipPath>
</defs>
</svg>
