<svg width="15" height="16" viewBox="0 0 15 16" fill="none" xmlns="http://www.w3.org/2000/svg">
<g clip-path="url(#clip0_278_2135)">
<path fill-rule="evenodd" clip-rule="evenodd" d="M7.5 11.5835C9.57106 11.5835 11.25 9.90456 11.25 7.8335C11.25 5.76243 9.57106 4.0835 7.5 4.0835C5.42893 4.0835 3.75 5.76243 3.75 7.8335C3.75 9.90456 5.42893 11.5835 7.5 11.5835ZM7.5 10.3335C8.88069 10.3335 10 9.21418 10 7.8335C10 6.45278 8.88069 5.3335 7.5 5.3335C6.11929 5.3335 5 6.45278 5 7.8335C5 9.21418 6.11929 10.3335 7.5 10.3335Z" fill="white"/>
<path d="M11.25 3.4585C10.9048 3.4585 10.625 3.73832 10.625 4.0835C10.625 4.42867 10.9048 4.7085 11.25 4.7085C11.5952 4.7085 11.875 4.42867 11.875 4.0835C11.875 3.73832 11.5952 3.4585 11.25 3.4585Z" fill="white"/>
<path fill-rule="evenodd" clip-rule="evenodd" d="M1.03372 3.00603C0.625 3.8082 0.625 4.8583 0.625 6.9585V8.7085C0.625 10.8087 0.625 11.8588 1.03372 12.6609C1.39325 13.3666 1.96692 13.9402 2.67254 14.2997C3.47471 14.7085 4.52481 14.7085 6.625 14.7085H8.375C10.4752 14.7085 11.5253 14.7085 12.3274 14.2997C13.0331 13.9402 13.6067 13.3666 13.9662 12.6609C14.375 11.8588 14.375 10.8087 14.375 8.7085V6.9585C14.375 4.8583 14.375 3.8082 13.9662 3.00603C13.6067 2.30042 13.0331 1.72675 12.3274 1.36722C11.5253 0.958496 10.4752 0.958496 8.375 0.958496H6.625C4.52481 0.958496 3.47471 0.958496 2.67254 1.36722C1.96692 1.72675 1.39325 2.30042 1.03372 3.00603ZM8.375 2.2085H6.625C5.55427 2.2085 4.82641 2.20947 4.2638 2.25543C3.71577 2.30021 3.43552 2.38136 3.24002 2.48098C2.76962 2.72066 2.38717 3.10311 2.14748 3.57352C2.04787 3.76902 1.96671 4.04927 1.92194 4.5973C1.87597 5.1599 1.875 5.88777 1.875 6.9585V8.7085C1.875 9.77925 1.87597 10.5071 1.92194 11.0697C1.96671 11.6177 2.04787 11.898 2.14748 12.0935C2.38717 12.5639 2.76962 12.9463 3.24002 13.186C3.43552 13.2856 3.71577 13.3668 4.2638 13.4116C4.82641 13.4575 5.55427 13.4585 6.625 13.4585H8.375C9.44575 13.4585 10.1736 13.4575 10.7362 13.4116C11.2842 13.3668 11.5645 13.2856 11.76 13.186C12.2304 12.9463 12.6128 12.5639 12.8525 12.0935C12.9521 11.898 13.0333 11.6177 13.0781 11.0697C13.124 10.5071 13.125 9.77925 13.125 8.7085V6.9585C13.125 5.88777 13.124 5.1599 13.0781 4.5973C13.0333 4.04927 12.9521 3.76902 12.8525 3.57352C12.6128 3.10311 12.2304 2.72066 11.76 2.48098C11.5645 2.38136 11.2842 2.30021 10.7362 2.25543C10.1736 2.20947 9.44575 2.2085 8.375 2.2085Z" fill="white"/>
</g>
<defs>
<clipPath id="clip0_278_2135">
<rect width="15" height="15" fill="white" transform="translate(0 0.333496)"/>
</clipPath>
</defs>
</svg>
