<svg width="21" height="21" viewBox="0 0 21 21" fill="none" xmlns="http://www.w3.org/2000/svg">
<path d="M10.5 0.828979C8.57164 0.828979 6.68657 1.40081 5.08319 2.47215C3.47982 3.54349 2.23013 5.06624 1.49218 6.84782C0.754225 8.6294 0.561142 10.5898 0.937348 12.4811C1.31355 14.3724 2.24215 16.1097 3.60571 17.4733C4.96928 18.8368 6.70656 19.7654 8.59787 20.1416C10.4892 20.5178 12.4496 20.3248 14.2312 19.5868C16.0127 18.8489 17.5355 17.5992 18.6068 15.9958C19.6782 14.3924 20.25 12.5073 20.25 10.579C20.2473 7.99396 19.2192 5.51559 17.3913 3.6877C15.5634 1.85982 13.085 0.831709 10.5 0.828979ZM14.7806 8.8596L9.53063 14.1096C9.46097 14.1793 9.37826 14.2347 9.28721 14.2724C9.19616 14.3101 9.09857 14.3296 9 14.3296C8.90144 14.3296 8.80385 14.3101 8.7128 14.2724C8.62175 14.2347 8.53903 14.1793 8.46938 14.1096L6.21938 11.8596C6.07865 11.7189 5.99959 11.528 5.99959 11.329C5.99959 11.13 6.07865 10.9391 6.21938 10.7984C6.36011 10.6576 6.55098 10.5786 6.75 10.5786C6.94903 10.5786 7.1399 10.6576 7.28063 10.7984L9 12.5187L13.7194 7.79835C13.7891 7.72867 13.8718 7.6734 13.9628 7.63568C14.0539 7.59797 14.1515 7.57856 14.25 7.57856C14.3486 7.57856 14.4461 7.59797 14.5372 7.63568C14.6282 7.6734 14.7109 7.72867 14.7806 7.79835C14.8503 7.86804 14.9056 7.95076 14.9433 8.04181C14.981 8.13285 15.0004 8.23043 15.0004 8.32898C15.0004 8.42753 14.981 8.52511 14.9433 8.61615C14.9056 8.7072 14.8503 8.78992 14.7806 8.8596Z" fill="#01AB31"/>
</svg>
