<svg width="16" height="18" viewBox="0 0 16 18" fill="none" xmlns="http://www.w3.org/2000/svg">
<path fill-rule="evenodd" clip-rule="evenodd" d="M4.25996 1.25996C4.98666 0.533258 5.97229 0.125 7 0.125C8.02771 0.125 9.01333 0.533258 9.74004 1.25996C10.4667 1.98666 10.875 2.97229 10.875 4V4.5H12.4058C13.2693 4.5 13.994 5.15195 14.0842 6.01066C14.0842 6.01075 14.0842 6.01058 14.0842 6.01066L15.1367 16.0107C15.2416 17.0075 14.4613 17.875 13.4583 17.875H0.54247M3.125 4.5V4C3.125 2.97229 3.53326 1.98666 4.25996 1.25996M3.125 6H1.59417C1.54784 5.99999 1.50301 6.01714 1.46857 6.04813C1.43415 6.0791 1.41241 6.12171 1.40754 6.16775C1.40753 6.16778 1.40754 6.16772 1.40754 6.16775L0.354206 16.1677C0.351448 16.1939 0.354212 16.2204 0.362338 16.2454C0.370464 16.2705 0.383761 16.2935 0.401366 16.313C0.418969 16.3325 0.440486 16.3482 0.46452 16.3588C0.488555 16.3695 0.514565 16.375 0.540862 16.375H13.4583C13.5704 16.375 13.6567 16.2792 13.645 16.1677L12.5925 6.16767C12.5825 6.07318 12.5023 6 12.4058 6H10.875V6.9974C10.8754 6.99783 10.8759 6.99827 10.8763 6.9987C11.0756 7.19796 11.1875 7.46821 11.1875 7.75C11.1875 8.03179 11.0756 8.30204 10.8763 8.5013C10.677 8.70056 10.4068 8.8125 10.125 8.8125C9.84321 8.8125 9.57296 8.70056 9.3737 8.5013C9.17444 8.30204 9.0625 8.03179 9.0625 7.75C9.0625 7.46821 9.17444 7.19796 9.3737 6.9987C9.37413 6.99827 9.37456 6.99783 9.375 6.9974V6H4.625V6.9974C4.62543 6.99783 4.62587 6.99827 4.6263 6.9987C4.82556 7.19796 4.9375 7.46821 4.9375 7.75C4.9375 8.03179 4.82556 8.30204 4.6263 8.5013C4.42704 8.70056 4.15679 8.8125 3.875 8.8125C3.59321 8.8125 3.32296 8.70056 3.1237 8.5013C2.92444 8.30204 2.8125 8.03179 2.8125 7.75C2.8125 7.46821 2.92444 7.19796 3.1237 6.9987C3.12413 6.99827 3.12457 6.99783 3.125 6.9974V6ZM4.625 4.5H9.375V4C9.375 3.37011 9.12478 2.76602 8.67938 2.32062C8.23398 1.87522 7.62989 1.625 7 1.625C6.37011 1.625 5.76602 1.87522 5.32062 2.32062C4.87522 2.76602 4.625 3.37011 4.625 4V4.5Z" fill="white"/>
</svg>
