<svg width="19" height="15" viewBox="0 0 19 15" fill="none" xmlns="http://www.w3.org/2000/svg">
<path fill-rule="evenodd" clip-rule="evenodd" d="M1.09386 1.04839C1.58614 0.556103 2.25382 0.279541 2.95001 0.279541H15.45C16.1462 0.279541 16.8139 0.556103 17.3062 1.04839C17.7985 1.54067 18.075 2.20835 18.075 2.90454V3.10696V11.6545C18.075 12.3507 17.7985 13.0184 17.3062 13.5107C16.8139 14.003 16.1462 14.2795 15.45 14.2795H2.95001C2.25382 14.2795 1.58614 14.003 1.09386 13.5107C0.601574 13.0184 0.325012 12.3507 0.325012 11.6545V3.10837V2.90454C0.325012 2.20835 0.601574 1.54067 1.09386 1.04839ZM1.82501 2.90454V3.10787C1.82501 3.10796 1.82501 3.10779 1.82501 3.10787C1.82503 3.29986 1.87419 3.48898 1.9678 3.65661C2.06138 3.82418 2.19628 3.96503 2.35967 4.06574L8.60967 7.91074C8.78706 8.02001 8.99166 8.07808 9.20001 8.07808C9.40836 8.07808 9.61262 8.02022 9.79001 7.91096L16.04 4.06512C16.2034 3.9644 16.3386 3.82337 16.4322 3.65577C16.5258 3.48815 16.575 3.29936 16.575 3.10737C16.575 3.10729 16.575 3.10745 16.575 3.10737V2.90454C16.575 2.60617 16.4565 2.32002 16.2455 2.10905C16.0345 1.89807 15.7484 1.77954 15.45 1.77954H2.95001C2.65164 1.77954 2.3655 1.89807 2.15452 2.10905C1.94354 2.32002 1.82501 2.60617 1.82501 2.90454ZM16.575 5.49715L10.5767 9.18812C10.1628 9.44308 9.68616 9.57808 9.20001 9.57808C8.71387 9.57808 8.23727 9.44308 7.82335 9.18812L1.82501 5.49795V11.6545C1.82501 11.9529 1.94354 12.2391 2.15452 12.45C2.3655 12.661 2.65164 12.7795 2.95001 12.7795H15.45C15.7484 12.7795 16.0345 12.661 16.2455 12.45C16.4565 12.2391 16.575 11.9529 16.575 11.6545V5.49715Z" fill="white"/>
</svg>
