<svg width="27" height="24" viewBox="0 0 27 24" fill="none" xmlns="http://www.w3.org/2000/svg">
<path fill-rule="evenodd" clip-rule="evenodd" d="M0.437622 7.63123C0.437622 7.32057 0.689462 7.06873 1.00012 7.06873H26.0001C26.3108 7.06873 26.5626 7.32057 26.5626 7.63123C26.5626 7.94189 26.3108 8.19373 26.0001 8.19373H1.00012C0.689462 8.19373 0.437622 7.94189 0.437622 7.63123Z" fill="#FF5000"/>
<path fill-rule="evenodd" clip-rule="evenodd" d="M5.4375 17.6312C5.4375 17.3206 5.68934 17.0687 6 17.0687H8.49997C8.81063 17.0687 9.06247 17.3206 9.06247 17.6312C9.06247 17.9419 8.81063 18.1937 8.49997 18.1937H6C5.68934 18.1937 5.4375 17.9419 5.4375 17.6312Z" fill="#FF5000"/>
<path fill-rule="evenodd" clip-rule="evenodd" d="M11.0625 17.6312C11.0625 17.3206 11.3143 17.0687 11.625 17.0687H16.625C16.9357 17.0687 17.1875 17.3206 17.1875 17.6312C17.1875 17.9419 16.9357 18.1937 16.625 18.1937H11.625C11.3143 18.1937 11.0625 17.9419 11.0625 17.6312Z" fill="#FF5000"/>
<path fill-rule="evenodd" clip-rule="evenodd" d="M2.50655 2.87965C1.85463 3.52423 1.56262 4.67209 1.56262 6.8687V17.1437C1.56262 19.3406 1.85473 20.488 2.50617 21.1308C3.15966 21.7758 4.32521 22.0625 6.54853 22.0562L6.55012 22.0562L20.4501 22.0562C22.6734 22.0562 23.8395 21.767 24.4937 21.1203C25.1456 20.4757 25.4376 19.3279 25.4376 17.1312V6.8687C25.4376 4.67204 25.1456 3.52453 24.4925 2.88002C23.8368 2.23294 22.6674 1.94373 20.4376 1.94373H6.55012C4.32687 1.94373 3.16069 2.23288 2.50655 2.87965ZM1.71557 2.07967C2.72706 1.07957 4.33587 0.818726 6.55012 0.818726H20.4376C22.6579 0.818726 24.2697 1.07951 25.2827 2.0793C26.2984 3.08166 26.5626 4.67788 26.5626 6.8687V17.1312C26.5626 19.3221 26.2984 20.918 25.2847 21.9203C24.2732 22.9204 22.6644 23.1812 20.4501 23.1812L6.55171 23.1812C6.55148 23.1812 6.55126 23.1812 6.55103 23.1812C4.3372 23.1874 2.72798 22.9303 1.71595 21.9316C0.701761 20.9307 0.437622 19.3343 0.437622 17.1437V6.8687C0.437622 4.67783 0.701866 3.08196 1.71557 2.07967Z" fill="#FF5000"/>
</svg>
