<svg width="20" height="19" viewBox="0 0 20 19" fill="none" xmlns="http://www.w3.org/2000/svg">
<path fill-rule="evenodd" clip-rule="evenodd" d="M0.3125 0.984009C0.3125 0.569795 0.648286 0.234009 1.0625 0.234009H2.333C3.14134 0.234009 3.84524 0.777729 4.0538 1.55508L4.05412 1.55627L4.25327 2.30349C9.23068 2.21696 14.1982 2.79623 19.0238 4.02659C19.2259 4.07813 19.3974 4.2115 19.4972 4.3947C19.5969 4.57789 19.6159 4.79434 19.5495 4.99208C18.7838 7.27255 17.874 9.48789 16.8324 11.6251C16.7067 11.8829 16.445 12.0465 16.1582 12.0465H5.875C5.34457 12.0465 4.83586 12.2572 4.46079 12.6323C4.26926 12.8238 4.12059 13.0502 4.02095 13.2965H17.5625C17.9767 13.2965 18.3125 13.6323 18.3125 14.0465C18.3125 14.4607 17.9767 14.7965 17.5625 14.7965H3.125C2.71079 14.7965 2.375 14.4607 2.375 14.0465C2.375 13.1183 2.74375 12.228 3.40013 11.5716C3.82939 11.1424 4.35869 10.8361 4.93322 10.6756L2.60503 1.94377C2.605 1.94364 2.60507 1.9439 2.60503 1.94377C2.57146 1.81934 2.45953 1.73401 2.333 1.73401H1.0625C0.648286 1.73401 0.3125 1.39822 0.3125 0.984009ZM6.45122 10.5465H15.6871C16.5005 8.84031 17.2277 7.08409 17.8624 5.28476C13.5361 4.25048 9.09935 3.75122 4.65173 3.79806L6.45122 10.5465ZM3.8125 16.859C3.82907 16.859 3.84497 16.8524 3.85669 16.8407C3.86842 16.829 3.875 16.8131 3.875 16.7965C3.875 16.7799 3.86842 16.764 3.85669 16.7523C3.84497 16.7406 3.82907 16.734 3.8125 16.734C3.79593 16.734 3.78003 16.7406 3.76831 16.7523C3.75658 16.764 3.75 16.7799 3.75 16.7965C3.75 16.8131 3.75658 16.829 3.76831 16.8407C3.78003 16.8524 3.79593 16.859 3.8125 16.859ZM2.79603 15.78C3.06562 15.5105 3.43125 15.359 3.8125 15.359C4.19375 15.359 4.55938 15.5105 4.82897 15.78C5.09855 16.0496 5.25 16.4153 5.25 16.7965C5.25 17.1778 5.09855 17.5434 4.82897 17.813C4.55938 18.0826 4.19375 18.234 3.8125 18.234C3.43125 18.234 3.06562 18.0826 2.79603 17.813C2.52645 17.5434 2.375 17.1778 2.375 16.7965C2.375 16.4153 2.52645 16.0496 2.79603 15.78ZM15.5 16.859C15.5166 16.859 15.5325 16.8524 15.5442 16.8407C15.5559 16.829 15.5625 16.8131 15.5625 16.7965C15.5625 16.7799 15.5559 16.764 15.5442 16.7523C15.5325 16.7406 15.5166 16.734 15.5 16.734C15.4834 16.734 15.4675 16.7406 15.4558 16.7523C15.4441 16.764 15.4375 16.7799 15.4375 16.7965C15.4375 16.8131 15.4441 16.829 15.4558 16.8407C15.4675 16.8524 15.4834 16.859 15.5 16.859ZM14.4835 15.78C14.7531 15.5105 15.1188 15.359 15.5 15.359C15.8812 15.359 16.2469 15.5105 16.5165 15.78C16.7861 16.0496 16.9375 16.4153 16.9375 16.7965C16.9375 17.1778 16.7861 17.5434 16.5165 17.813C16.2469 18.0826 15.8812 18.234 15.5 18.234C15.1188 18.234 14.7531 18.0826 14.4835 17.813C14.2139 17.5434 14.0625 17.1778 14.0625 16.7965C14.0625 16.4153 14.2139 16.0496 14.4835 15.78Z" fill="white"/>
</svg>
