<svg width="16" height="16" viewBox="0 0 16 16" fill="none" xmlns="http://www.w3.org/2000/svg">
<path d="M5.66684 0C2.54208 0 0 2.54208 0 5.66684C0 8.79156 2.54208 11.3337 5.66684 11.3337C8.79156 11.3337 11.3337 8.79156 11.3337 5.66684C11.3337 2.54208 8.79164 0 5.66684 0ZM5.66684 10.667C2.9094 10.667 0.666677 8.42429 0.666677 5.66684C0.666677 2.9094 2.9094 0.666677 5.66684 0.666677C8.42429 0.666677 10.667 2.9094 10.667 5.66684C10.667 8.42429 8.42429 10.667 5.66684 10.667Z" fill="black"/>
<path d="M15.9025 15.4319L9.67367 9.20291C9.54364 9.07295 9.33229 9.07295 9.20226 9.20291C9.07229 9.33295 9.07229 9.54429 9.20226 9.67433L15.4311 15.9031C15.4965 15.9678 15.5818 16.0005 15.6671 16.0005C15.7525 16.0005 15.8378 15.9679 15.9025 15.9031C16.0325 15.7732 16.0325 15.5618 15.9025 15.4319Z" fill="black"/>
</svg>
