<svg width="22" height="21" viewBox="0 0 22 21" fill="none" xmlns="http://www.w3.org/2000/svg">
<path fill-rule="evenodd" clip-rule="evenodd" d="M11 3.48231C13.5886 0.0636353 17.886 0.282042 20.1244 2.26071C22.5102 4.36967 22.6774 8.58493 20.2948 12.8024C18.7253 15.7629 14.7311 18.7514 11.3818 20.7251C11.1449 20.8647 10.855 20.8647 10.6181 20.7251C7.26886 18.7514 3.27467 15.7629 1.70517 12.8024C-0.677395 8.58493 -0.510206 4.36971 1.87554 2.26071C4.11393 0.282087 8.41135 0.0636353 11 3.48231ZM10.8629 4.68547C10.8921 4.73517 10.944 4.76546 11 4.76546C11.0559 4.76546 11.1079 4.73512 11.137 4.68547C13.3338 0.969517 17.5118 1.00826 19.6228 2.87424C21.7786 4.77986 21.7786 8.59101 19.6228 12.4022C18.1138 15.2606 14.2335 18.119 11 20.0245C7.76643 18.119 3.88617 15.2606 2.37716 12.4022C0.221455 8.59101 0.221455 4.77986 2.37716 2.87424C4.48811 1.00826 8.66614 0.969517 10.8629 4.68547Z" fill="white"/>
</svg>
