<svg width="11" height="11" viewBox="0 0 11 11" fill="none" xmlns="http://www.w3.org/2000/svg">
<path d="M1.83997 0.219968C1.69779 0.0874883 1.50975 0.0153654 1.31545 0.0187936C1.12114 0.0222218 0.935759 0.100934 0.798346 0.238347C0.660933 0.37576 0.582221 0.561145 0.578793 0.755446C0.575365 0.949747 0.647488 1.13779 0.779968 1.27997L4.49997 4.99997L0.779968 8.71997C0.706281 8.78863 0.647179 8.87143 0.606187 8.96343C0.565195 9.05543 0.543153 9.15474 0.541376 9.25545C0.5396 9.35615 0.558124 9.45618 0.595845 9.54957C0.633566 9.64295 0.689711 9.72779 0.760929 9.79901C0.832148 9.87022 0.916982 9.92637 1.01037 9.96409C1.10376 10.0018 1.20379 10.0203 1.30449 10.0186C1.40519 10.0168 1.50451 9.99474 1.59651 9.95375C1.68851 9.91276 1.77131 9.85365 1.83997 9.77997L5.55997 6.05997L9.27997 9.77997C9.34863 9.85365 9.43143 9.91276 9.52343 9.95375C9.61543 9.99474 9.71474 10.0168 9.81545 10.0186C9.91615 10.0203 10.0162 10.0018 10.1096 9.96409C10.203 9.92637 10.2878 9.87022 10.359 9.79901C10.4302 9.72779 10.4864 9.64295 10.5241 9.54957C10.5618 9.45618 10.5803 9.35615 10.5786 9.25545C10.5768 9.15474 10.5547 9.05543 10.5137 8.96343C10.4728 8.87143 10.4137 8.78863 10.34 8.71997L6.61997 4.99997L10.34 1.27997C10.4724 1.13779 10.5446 0.949747 10.5411 0.755446C10.5377 0.561145 10.459 0.37576 10.3216 0.238347C10.1842 0.100934 9.99879 0.0222218 9.80449 0.0187936C9.61019 0.0153654 9.42214 0.0874883 9.27997 0.219968L5.55997 3.93997L1.83997 0.219968Z" fill="#706F6F"/>
</svg>
