<svg width="12" height="12" viewBox="0 0 12 12" fill="none" xmlns="http://www.w3.org/2000/svg">
<path d="M6.00008 5.84353C3.05928 5.84353 0.666748 8.13053 0.666748 10.9415C0.666748 11.0638 0.770641 11.1631 0.898641 11.1631C1.02664 11.1631 1.13053 11.0638 1.13053 10.9415C1.13053 8.37479 3.31488 6.28686 6.00008 6.28686C8.68528 6.28686 10.8696 8.37479 10.8696 10.9415C10.8696 11.0638 10.9735 11.1631 11.1015 11.1631C11.2295 11.1631 11.3334 11.0638 11.3334 10.9415C11.3334 8.13006 8.94081 5.84353 6.00008 5.84353Z" fill="black"/>
<path d="M6.00008 0.49646C4.59388 0.49646 3.44935 1.59007 3.44935 2.93459C3.44935 4.27913 4.59395 5.37273 6.00008 5.37273C7.40622 5.37273 8.55075 4.27913 8.55075 2.93459C8.55075 1.59007 7.40622 0.49646 6.00008 0.49646ZM6.00008 4.92946C4.84948 4.92946 3.91308 4.03439 3.91308 2.93459C3.91308 1.83477 4.84948 0.939753 6.00008 0.939753C7.15068 0.939753 8.08702 1.83477 8.08702 2.93459C8.08702 4.03439 7.15068 4.92946 6.00008 4.92946Z" fill="black"/>
<path fill-rule="evenodd" clip-rule="evenodd" d="M3.0492 2.93469C3.0492 1.35239 4.39008 0.0965576 5.99994 0.0965576C7.60974 0.0965576 8.9506 1.3524 8.9506 2.93469C8.9506 4.12216 8.19543 5.12575 7.13815 5.55267C9.74558 6.05902 11.7333 8.26981 11.7333 10.9416C11.7333 11.3015 11.4332 11.5632 11.1014 11.5632C10.7697 11.5632 10.4695 11.3017 10.4695 10.9416C10.4695 8.61263 8.48143 6.68696 5.99994 6.68696C3.51844 6.68696 1.53038 8.61263 1.53038 10.9416C1.53038 11.3016 1.23026 11.5632 0.898495 11.5632C0.566747 11.5632 0.266602 11.3016 0.266602 10.9416C0.266602 8.27022 2.25424 6.0591 4.86174 5.55268C3.80443 5.12577 3.0492 4.12217 3.0492 2.93469ZM5.99994 1.33985C5.05303 1.33985 4.31294 2.07262 4.31294 2.93469C4.31294 3.79675 5.05304 4.52956 5.99994 4.52956C6.94682 4.52956 7.68687 3.79677 7.68687 2.93469C7.68687 2.07261 6.94683 1.33985 5.99994 1.33985Z" fill="#AB3C22"/>
</svg>
