<svg width="48" height="32" viewBox="0 0 48 32" fill="none" xmlns="http://www.w3.org/2000/svg">
<g clip-path="url(#clip0_420_512)">
<path d="M44.0173 0.351074H3.89191C2.34066 0.351074 1.08313 1.60861 1.08313 3.15985V28.8401C1.08313 30.3913 2.34066 31.6489 3.89191 31.6489H44.0173C45.5685 31.6489 46.8261 30.3913 46.8261 28.8401V3.15985C46.8261 1.60861 45.5685 0.351074 44.0173 0.351074Z" fill="white" stroke="#F3F3F3" stroke-width="0.802508"/>
<path fill-rule="evenodd" clip-rule="evenodd" d="M7.76984 19.3743C7.76984 18.7448 7.44096 18.7861 7.12634 18.7795V18.5975C7.39914 18.6108 7.67886 18.6108 7.95238 18.6108C8.24623 18.6108 8.64518 18.5975 9.16349 18.5975C10.9762 18.5975 11.9636 19.808 11.9636 21.0475C11.9636 21.7412 11.5575 23.4838 9.0793 23.4838C8.72259 23.4838 8.39315 23.47 8.06427 23.47C7.74951 23.47 7.44096 23.4765 7.12634 23.4838V23.3017C7.54592 23.2593 7.74951 23.2456 7.76984 22.7697V19.3743ZM8.45587 22.6573C8.45587 23.1965 8.84128 23.2593 9.18411 23.2593C10.6966 23.2593 11.1929 22.1185 11.1929 21.0756C11.1929 19.7666 10.353 18.8218 9.00218 18.8218C8.71456 18.8218 8.58217 18.8422 8.45587 18.8498V22.6573Z" fill="#1A1919"/>
<path fill-rule="evenodd" clip-rule="evenodd" d="M12.209 23.3017H12.3416C12.5376 23.3017 12.6777 23.3017 12.6777 23.0702V21.1733C12.6777 20.8657 12.5729 20.8232 12.3136 20.6836V20.5719C12.6426 20.4729 13.0349 20.3409 13.0626 20.3198C13.1119 20.2917 13.1533 20.2843 13.1889 20.2843C13.2232 20.2843 13.2376 20.3263 13.2376 20.3829V23.0702C13.2376 23.3017 13.3919 23.3017 13.5882 23.3017H13.7066V23.4838C13.4686 23.4838 13.2232 23.47 12.972 23.47C12.72 23.47 12.4678 23.4765 12.209 23.4838V23.3017ZM12.9579 19.2066C12.7756 19.2066 12.6149 19.0386 12.6149 18.8567C12.6149 18.6813 12.7832 18.52 12.9579 18.52C13.1396 18.52 13.301 18.6675 13.301 18.8567C13.301 19.046 13.1466 19.2066 12.9579 19.2066Z" fill="#1A1919"/>
<path fill-rule="evenodd" clip-rule="evenodd" d="M14.3718 21.2155C14.3718 20.957 14.2946 20.887 13.9661 20.7538V20.6209C14.2665 20.523 14.5534 20.4316 14.8898 20.2843C14.911 20.2843 14.9313 20.2983 14.9313 20.3543V20.8095C15.3309 20.523 15.674 20.2843 16.1437 20.2843C16.7379 20.2843 16.9478 20.7185 16.9478 21.2645V23.0702C16.9478 23.3018 17.1023 23.3018 17.298 23.3018H17.4243V23.4839C17.1785 23.4839 16.9338 23.4701 16.6821 23.4701C16.4299 23.4701 16.1777 23.4765 15.9257 23.4839V23.3018H16.052C16.2481 23.3018 16.3875 23.3018 16.3875 23.0702V21.258C16.3875 20.8585 16.1437 20.6627 15.7442 20.6627C15.52 20.6627 15.1629 20.8443 14.9313 20.999V23.0702C14.9313 23.3018 15.086 23.3018 15.282 23.3018H15.4078V23.4839C15.1629 23.4839 14.9179 23.4701 14.6654 23.4701C14.414 23.4701 14.1617 23.4765 13.9099 23.4839V23.3018H14.0361C14.232 23.3018 14.3718 23.3018 14.3718 23.0702V21.2155Z" fill="#1A1919"/>
<path fill-rule="evenodd" clip-rule="evenodd" d="M17.9564 21.552C17.9421 21.615 17.9421 21.7198 17.9564 21.958C17.9976 22.6228 18.4256 23.1686 18.985 23.1686C19.3706 23.1686 19.6718 22.9585 19.9303 22.7L20.0281 22.798C19.7059 23.2249 19.3071 23.5892 18.7335 23.5892C17.6201 23.5892 17.3962 22.5105 17.3962 22.0628C17.3962 20.6906 18.32 20.2843 18.8095 20.2843C19.3772 20.2843 19.9867 20.6413 19.9932 21.3836C19.9932 21.4261 19.9932 21.4676 19.9867 21.5097L19.9233 21.552H17.9564ZM19.1959 21.3278C19.3706 21.3278 19.391 21.2366 19.391 21.1523C19.391 20.7959 19.1742 20.5088 18.782 20.5088C18.3554 20.5088 18.0612 20.8233 17.9773 21.3278H19.1959Z" fill="#1A1919"/>
<path fill-rule="evenodd" clip-rule="evenodd" d="M20.1543 23.3018H20.3434C20.5387 23.3018 20.6789 23.3018 20.6789 23.0702V21.1036C20.6789 20.887 20.4201 20.8443 20.315 20.7884V20.6837C20.8259 20.4666 21.1061 20.2843 21.1701 20.2843C21.211 20.2843 21.2321 20.3054 21.2321 20.3757V21.0058H21.2468C21.4213 20.7329 21.7158 20.2843 22.1426 20.2843C22.3175 20.2843 22.5413 20.4032 22.5413 20.6555C22.5413 20.8443 22.4089 21.0131 22.213 21.0131C21.9952 21.0131 21.9952 20.8443 21.75 20.8443C21.6312 20.8443 21.2391 21.0058 21.2391 21.4261V23.0702C21.2391 23.3018 21.379 23.3018 21.5751 23.3018H21.9667V23.4839C21.5817 23.4765 21.2887 23.4701 20.9874 23.4701C20.7003 23.4701 20.4062 23.4765 20.1543 23.4839V23.3018Z" fill="#1A1919"/>
<path fill-rule="evenodd" clip-rule="evenodd" d="M22.8491 22.5104C22.9404 22.9724 23.2198 23.365 23.7318 23.365C24.1441 23.365 24.2981 23.1127 24.2981 22.8678C24.2981 22.0414 22.7724 22.3077 22.7724 21.1807C22.7724 20.7883 23.0876 20.2843 23.8577 20.2843C24.0813 20.2843 24.3822 20.3478 24.655 20.4879L24.7042 21.2013H24.5433C24.4733 20.7606 24.2286 20.5087 23.7801 20.5087C23.5001 20.5087 23.2344 20.6694 23.2344 20.9705C23.2344 21.79 24.8581 21.5376 24.8581 22.6367C24.8581 23.0984 24.4875 23.589 23.6541 23.589C23.3744 23.589 23.0448 23.4909 22.8005 23.3508L22.7231 22.5457L22.8491 22.5104Z" fill="#1A1919"/>
<path fill-rule="evenodd" clip-rule="evenodd" d="M31.1792 19.8643H31.0046C30.8714 19.046 30.2903 18.7166 29.5068 18.7166C28.7009 18.7166 27.5322 19.2552 27.5322 20.9353C27.5322 22.3499 28.5406 23.3651 29.6184 23.3651C30.3108 23.3651 30.8861 22.8888 31.0258 22.1533L31.1869 22.1952L31.0258 23.2176C30.7318 23.3998 29.9405 23.5891 29.478 23.5891C27.8406 23.5891 26.8047 22.5319 26.8047 20.9569C26.8047 19.5214 28.0857 18.4921 29.4578 18.4921C30.0246 18.4921 30.5705 18.6746 31.1096 18.8638L31.1792 19.8643Z" fill="#1A1919"/>
<path fill-rule="evenodd" clip-rule="evenodd" d="M31.4321 23.3018H31.5646C31.7613 23.3018 31.901 23.3018 31.901 23.0703V19.1721C31.901 18.7166 31.7962 18.7028 31.5299 18.6256V18.5135C31.8098 18.4227 32.1041 18.2969 32.2514 18.2123C32.3274 18.1709 32.3839 18.1351 32.4045 18.1351C32.4473 18.1351 32.4612 18.1777 32.4612 18.2339V23.0703C32.4612 23.3018 32.6153 23.3018 32.8111 23.3018H32.9296V23.4839C32.6923 23.4839 32.4473 23.4701 32.1952 23.4701C31.9432 23.4701 31.6915 23.4766 31.4321 23.4839V23.3018Z" fill="#1A1919"/>
<path fill-rule="evenodd" clip-rule="evenodd" d="M35.9265 23.0984C35.9265 23.2249 36.0031 23.2315 36.1217 23.2315C36.2062 23.2315 36.3107 23.2249 36.4025 23.2249V23.3722C36.1012 23.3999 35.5269 23.547 35.3937 23.589L35.3588 23.5677V23.0006C34.9393 23.3435 34.6169 23.589 34.1192 23.589C33.7413 23.589 33.3495 23.3435 33.3495 22.7563V20.9636C33.3495 20.7814 33.3216 20.6064 32.9302 20.5719V20.4385C33.1824 20.4316 33.7413 20.3898 33.8325 20.3898C33.9102 20.3898 33.9102 20.4385 33.9102 20.5928V22.3987C33.9102 22.6089 33.9102 23.2103 34.5191 23.2103C34.7567 23.2103 35.0717 23.0287 35.3656 22.7841V20.9005C35.3656 20.7606 35.0298 20.6836 34.7782 20.614V20.4881C35.4076 20.4454 35.8 20.3898 35.87 20.3898C35.9265 20.3898 35.9265 20.4385 35.9265 20.5158V23.0984Z" fill="#1A1919"/>
<path fill-rule="evenodd" clip-rule="evenodd" d="M37.3191 20.7885C37.599 20.5509 37.9771 20.2843 38.3621 20.2843C39.1743 20.2843 39.6644 20.9921 39.6644 21.755C39.6644 22.6718 38.9921 23.5892 37.9905 23.5892C37.4731 23.5892 37.2 23.4206 37.0177 23.3436L36.8083 23.5047L36.6615 23.428C36.7241 23.015 36.7594 22.609 36.7594 22.1818V19.1721C36.7594 18.7166 36.654 18.7028 36.3879 18.6256V18.5135C36.6683 18.4227 36.962 18.2969 37.1089 18.2123C37.1862 18.1709 37.242 18.1351 37.2633 18.1351C37.305 18.1351 37.3191 18.1778 37.3191 18.2339V20.7885ZM37.3191 22.6927C37.3191 22.9585 37.5713 23.407 38.0401 23.407C38.789 23.407 39.1039 22.6718 39.1039 22.0485C39.1039 21.2926 38.5306 20.6627 37.9847 20.6627C37.7246 20.6627 37.508 20.831 37.3191 20.9921V22.6927Z" fill="#1A1919"/>
<path fill-rule="evenodd" clip-rule="evenodd" d="M10.897 26.9179L10.9047 26.9103V25.4824C10.9047 25.1698 10.6873 25.124 10.5731 25.124H10.4891V25.0098C10.6685 25.0098 10.8437 25.0249 11.0225 25.0249C11.1786 25.0249 11.3355 25.0098 11.4911 25.0098V25.124H11.4344C11.2739 25.124 11.0949 25.1545 11.0949 25.6078V27.3409C11.0949 27.4744 11.0986 27.6076 11.1173 27.7259H10.9726L9.01123 25.539V27.1087C9.01123 27.4404 9.07568 27.5541 9.36899 27.5541H9.43383V27.6686C9.27004 27.6686 9.10641 27.6538 8.94262 27.6538C8.77161 27.6538 8.59614 27.6686 8.42456 27.6686V27.5541H8.47806C8.74079 27.5541 8.8208 27.3751 8.8208 27.0712V25.4664C8.8208 25.2532 8.64502 25.124 8.47431 25.124H8.42456V25.0098C8.56904 25.0098 8.71784 25.0249 8.86229 25.0249C8.97697 25.0249 9.08739 25.0098 9.20159 25.0098L10.897 26.9179Z" fill="#1A1919"/>
<path fill-rule="evenodd" clip-rule="evenodd" d="M11.1176 27.7418L10.9608 27.7364L9.02769 25.5819V27.1086C9.03226 27.4398 9.08258 27.534 9.3694 27.5376H9.45101V27.6848H9.43408C9.26932 27.6848 9.10537 27.6696 8.94286 27.6696C8.77233 27.6696 8.59727 27.6848 8.42468 27.6848H8.40796V27.5376H8.47832C8.73004 27.5362 8.80202 27.3744 8.80475 27.0711V25.4668C8.80403 25.264 8.63764 25.1405 8.47471 25.1405H8.40796V24.993H8.42468C8.57031 24.993 8.71936 25.0079 8.86229 25.0079C8.97593 25.0079 9.08595 24.993 9.21435 24.999L10.8884 26.8833V25.4823C10.8865 25.1798 10.6843 25.143 10.5735 25.1405H10.4727V24.993H10.4895C10.6695 24.993 10.8448 25.0079 11.0227 25.0079C11.1778 25.0079 11.3339 24.993 11.4913 24.993H11.5081V25.1405H11.4346C11.2774 25.1446 11.1161 25.1584 11.1114 25.6077V27.3408C11.1114 27.4742 11.1156 27.6071 11.1339 27.7227L11.1374 27.7418H11.1176ZM10.973 27.7086H11.099C11.082 27.594 11.079 27.4675 11.079 27.3408V25.6077C11.079 25.1505 11.2706 25.1074 11.4346 25.1071H11.4748V25.026C11.3246 25.0272 11.1742 25.041 11.0227 25.041C10.8483 25.041 10.6787 25.0272 10.5065 25.026L10.5061 25.1071H10.5735C10.6906 25.1074 10.9214 25.1594 10.9214 25.4823L10.9163 26.9222L10.9088 26.9296L10.8958 26.9419L9.20183 25.026C9.08868 25.026 8.97849 25.041 8.86229 25.041C8.72273 25.041 8.57968 25.0272 8.44155 25.026L8.44083 25.1071H8.47471C8.65336 25.1074 8.83717 25.2437 8.83717 25.4668V27.0711C8.83717 27.3758 8.75227 27.5705 8.47832 27.5715L8.44155 27.5705V27.6522C8.6065 27.6509 8.7765 27.6369 8.94286 27.6369C9.10176 27.6369 9.26033 27.6509 9.41755 27.6522V27.5715H9.3694C9.06958 27.5705 8.99535 27.4398 8.99511 27.1086V25.4962L10.973 27.7086ZM10.8884 26.9102V26.9088L10.8853 26.9064L10.8884 26.9102Z" fill="#1A1919"/>
<path fill-rule="evenodd" clip-rule="evenodd" d="M12.0621 25.2003C11.7761 25.2003 11.7649 25.2692 11.7079 25.5469H11.5935C11.6085 25.4402 11.6274 25.3337 11.6392 25.2232C11.6545 25.1161 11.6621 25.0099 11.6621 24.8997H11.7534C11.7841 25.014 11.8793 25.0099 11.9826 25.0099H13.9473C14.0507 25.0099 14.1457 25.0061 14.1535 24.8917L14.2445 24.9073C14.2297 25.0099 14.2142 25.1128 14.2031 25.2159C14.1956 25.3187 14.1956 25.4212 14.1956 25.524L14.0811 25.5664C14.0733 25.4256 14.0545 25.2003 13.7992 25.2003H13.1744V27.2268C13.1744 27.5207 13.308 27.5543 13.4906 27.5543H13.5632V27.6687C13.4146 27.6687 13.1478 27.654 12.9425 27.654C12.7136 27.654 12.4468 27.6687 12.2981 27.6687V27.5543H12.3708C12.5808 27.5543 12.6868 27.5355 12.6868 27.2347V25.2003H12.0621Z" fill="#1A1919"/>
<path fill-rule="evenodd" clip-rule="evenodd" d="M13.5635 27.6849C13.4133 27.6849 13.1469 27.6698 12.9424 27.6698C12.7139 27.6698 12.4474 27.6849 12.2981 27.6849H12.2818V27.5377H12.3708C12.5807 27.5328 12.6651 27.5301 12.6698 27.2346V25.2165H12.0621V25.1831H12.7028V27.2346C12.7028 27.5404 12.5795 27.5713 12.3708 27.5715H12.3144V27.652C12.4646 27.651 12.7212 27.637 12.9424 27.637C13.1407 27.637 13.3952 27.651 13.5461 27.652V27.5715H13.4905C13.3062 27.5713 13.158 27.526 13.158 27.2267V25.1831H13.7992C14.0547 25.1842 14.0886 25.4013 14.0965 25.5431L14.179 25.5126C14.179 25.4131 14.1794 25.3135 14.1861 25.2135C14.1975 25.115 14.2113 25.0182 14.2255 24.9206L14.1677 24.9109C14.15 25.0218 14.0426 25.0278 13.9472 25.0263H11.9627C11.873 25.0264 11.7754 25.0221 11.7411 24.9158H11.6782C11.6777 25.0211 11.6704 25.1233 11.6561 25.2249C11.6447 25.3295 11.6272 25.43 11.6134 25.5309H11.6947C11.7447 25.2652 11.7773 25.1794 12.0621 25.1831V25.2165C11.7799 25.2221 11.7861 25.2692 11.724 25.5507L11.7212 25.5637H11.5745L11.5765 25.5439C11.592 25.4377 11.6114 25.3306 11.6225 25.22C11.6383 25.1144 11.6455 25.0087 11.6455 24.8995V24.8827H11.7665L11.7694 24.8946C11.795 24.9907 11.8655 24.9914 11.9627 24.9931H13.9472C14.0532 24.9914 14.1305 24.99 14.137 24.8903L14.1383 24.8723L14.1556 24.8758L14.2633 24.8928L14.2606 24.9096C14.2454 25.0119 14.2306 25.1144 14.219 25.2165C14.212 25.3186 14.212 25.4209 14.212 25.5239V25.5354L14.2009 25.5398L14.0661 25.5892L14.0652 25.5671C14.0547 25.4238 14.04 25.2165 13.7992 25.2165H13.1912V27.2267C13.1949 27.5139 13.3088 27.5341 13.4905 27.5377H13.5796V27.6849H13.5635Z" fill="#1A1919"/>
<path fill-rule="evenodd" clip-rule="evenodd" d="M14.366 27.5541H14.4197C14.5563 27.5541 14.7015 27.5354 14.7015 27.3371V25.3416C14.7015 25.1431 14.5563 25.1242 14.4197 25.1242H14.366V25.0098C14.5976 25.0098 14.9947 25.0249 15.314 25.0249C15.6345 25.0249 16.0301 25.0098 16.2891 25.0098C16.2824 25.1736 16.286 25.4255 16.2974 25.5928L16.1825 25.6231C16.1642 25.3754 16.1186 25.1778 15.7184 25.1778H15.1896V26.1752H15.642C15.8705 26.1752 15.9203 26.0461 15.9429 25.8402H16.0571C16.0495 25.989 16.0455 26.1375 16.0455 26.2859C16.0455 26.4309 16.0495 26.5755 16.0571 26.7201L15.9429 26.7428C15.9203 26.5145 15.9089 26.3661 15.6457 26.3661H15.1896V27.2531C15.1896 27.5011 15.4095 27.5011 15.6535 27.5011C16.1108 27.5011 16.3125 27.4703 16.4268 27.0367L16.5331 27.0629C16.4836 27.2652 16.4382 27.4665 16.404 27.6686C16.1599 27.6686 15.7219 27.6539 15.3798 27.6539C15.0361 27.6539 14.5833 27.6686 14.366 27.6686V27.5541Z" fill="#1A1919"/>
<path fill-rule="evenodd" clip-rule="evenodd" d="M16.404 27.6848C16.1596 27.6848 15.7213 27.6689 15.3796 27.6689C15.0364 27.6689 14.5836 27.6848 14.3661 27.6848H14.3501V27.5376H14.4198C14.5575 27.5353 14.683 27.5232 14.6847 27.337V25.3416C14.683 25.1554 14.5575 25.143 14.4198 25.1405H14.3501V24.993H14.3661C14.5988 24.993 14.995 25.0079 15.3142 25.0079C15.6344 25.0079 16.03 24.993 16.2894 24.993H16.3062L16.3056 25.0106C16.3032 25.0676 16.3016 25.1353 16.3016 25.207C16.3016 25.3387 16.3056 25.483 16.3131 25.5914L16.3138 25.605L16.301 25.6089L16.1671 25.6439L16.1665 25.6243C16.144 25.3771 16.1109 25.1974 15.7187 25.1936H15.2052L15.2049 26.1584H15.6421C15.8617 26.156 15.9009 26.0438 15.9269 25.8384L15.9277 25.8231H16.0742L16.074 25.8406C16.0666 25.9894 16.0621 26.1374 16.0621 26.2858C16.0621 26.4299 16.0666 26.5745 16.074 26.7192L16.0742 26.733L16.0604 26.7363L15.9277 26.7626L15.9269 26.7448C15.9005 26.5122 15.8988 26.3847 15.646 26.3819H15.2052V27.253C15.2058 27.4845 15.4054 27.4832 15.6536 27.4845C16.1123 27.4818 16.296 27.4593 16.4108 27.0321L16.4146 27.0166L16.4307 27.0193L16.5527 27.051L16.5493 27.0667C16.4999 27.2682 16.4544 27.4697 16.42 27.6712L16.4171 27.6848H16.404ZM16.3898 27.6519C16.4231 27.4593 16.4666 27.2669 16.5133 27.0752L16.4383 27.0563C16.3243 27.4823 16.1032 27.5205 15.6536 27.5176C15.4136 27.5176 15.1736 27.5176 15.1723 27.253V26.3494H15.646C15.912 26.3466 15.9388 26.507 15.9578 26.7236L16.0401 26.7068C16.0327 26.5664 16.0289 26.4254 16.0289 26.2858C16.0289 26.1428 16.0327 26 16.0401 25.8563H15.9578C15.9364 26.0552 15.8742 26.1941 15.6421 26.1917H15.1723V25.1606H15.7187C16.1147 25.1574 16.1804 25.3624 16.1976 25.6021L16.2797 25.5798C16.2731 25.4723 16.2686 25.3342 16.2686 25.207C16.2686 25.1418 16.2703 25.08 16.2725 25.026C16.0137 25.0272 15.6274 25.041 15.3142 25.041C15.0013 25.041 14.616 25.0272 14.3828 25.026V25.1071H14.4198C14.5552 25.1074 14.7173 25.1309 14.7182 25.3416V27.337C14.7173 27.5473 14.5552 27.5705 14.4198 27.5715H14.3828V27.6519C14.6046 27.6512 15.0449 27.6369 15.3796 27.6369C15.7158 27.6369 16.1443 27.6512 16.3898 27.6519Z" fill="#1A1919"/>
<path fill-rule="evenodd" clip-rule="evenodd" d="M17.0475 25.4132C17.0475 25.1354 16.895 25.124 16.7768 25.124H16.708V25.0098C16.83 25.0098 17.0662 25.0249 17.2987 25.0249C17.5268 25.0249 17.7099 25.0098 17.9118 25.0098C18.391 25.0098 18.8186 25.139 18.8186 25.6803C18.8186 26.0229 18.5899 26.2321 18.2891 26.3509L18.9401 27.3255C19.0471 27.4866 19.1227 27.5318 19.3098 27.5541V27.6686C19.1838 27.6686 19.0619 27.6539 18.9367 27.6539C18.8186 27.6539 18.6961 27.6686 18.5787 27.6686C18.2851 27.2841 18.0335 26.8729 17.7861 26.4341H17.5351V27.2498C17.5351 27.543 17.6719 27.5541 17.8464 27.5541H17.9155V27.6686C17.698 27.6686 17.4779 27.6539 17.2604 27.6539C17.0776 27.6539 16.8984 27.6686 16.708 27.6686V27.5541H16.7768C16.9182 27.5541 17.0475 27.4897 17.0475 27.349V25.4132ZM17.5351 26.2967H17.7212C18.1025 26.2967 18.3079 26.1524 18.3079 25.7027C18.3079 25.364 18.0907 25.1468 17.7513 25.1468C17.637 25.1468 17.5883 25.1586 17.5351 25.1622V26.2967Z" fill="#1A1919"/>
<path fill-rule="evenodd" clip-rule="evenodd" d="M19.3097 27.6848C19.182 27.6848 19.0609 27.6696 18.9356 27.6696C18.8195 27.6696 18.6977 27.6848 18.565 27.6785C18.2727 27.295 18.0224 26.886 17.7764 26.4512H17.5513V27.249C17.5555 27.5357 17.6704 27.5335 17.8465 27.5376H17.9319V27.6848H17.9151C17.6974 27.6848 17.476 27.6696 17.2601 27.6696C17.0782 27.6696 16.8993 27.6848 16.7079 27.6848H16.6914V27.5376H16.7767C16.9137 27.5366 17.0295 27.4769 17.0301 27.3489V25.4131C17.0272 25.143 16.895 25.1443 16.7767 25.1405H16.6914V24.993H16.7079C16.8312 24.993 17.0664 25.0079 17.2987 25.0079C17.5261 25.0079 17.7087 24.993 17.9118 24.993C18.392 24.9941 18.8339 25.1263 18.8351 25.6797C18.8351 26.0234 18.6079 26.2382 18.3142 26.358L18.9538 27.3163C19.0603 27.4743 19.1266 27.5138 19.3119 27.5376L19.3258 27.5398V27.6848H19.3097ZM17.5348 26.4176H17.7951L17.7998 26.4261C18.0479 26.8637 18.2982 27.2751 18.5786 27.6522C18.6945 27.6522 18.8169 27.6369 18.9356 27.6369C19.0571 27.6369 19.1748 27.6502 19.2931 27.6519V27.5683C19.1145 27.5465 19.0306 27.4926 18.9266 27.3348L18.2635 26.3432L18.2823 26.3356C18.5806 26.218 18.8017 26.0146 18.8018 25.6797C18.8017 25.1512 18.3906 25.0287 17.9118 25.026C17.7112 25.026 17.5281 25.0415 17.2987 25.0415C17.0749 25.0415 16.8489 25.0272 16.7242 25.026V25.1071H16.7767C16.895 25.1074 17.0632 25.127 17.0632 25.4131V27.3489C17.0632 27.5017 16.92 27.5712 16.7767 27.5715H16.7242V27.6519C16.9074 27.6512 17.0813 27.6369 17.2601 27.6369C17.4729 27.6369 17.688 27.6512 17.8986 27.6519V27.5715H17.8465C17.673 27.5712 17.518 27.5497 17.518 27.249V26.4176H17.5348ZM17.5348 26.313H17.518V25.1467L17.5325 25.1456C17.5848 25.1414 17.636 25.1309 17.7513 25.1309C18.0982 25.1309 18.3241 25.3563 18.3244 25.7036C18.3234 26.1584 18.1054 26.3129 17.7211 26.313H17.5348ZM17.7211 26.2806C18.0982 26.2769 18.2882 26.1461 18.2919 25.7036C18.2897 25.3708 18.083 25.1643 17.7513 25.1629C17.6485 25.1629 17.5998 25.1724 17.5513 25.1771V26.2806H17.7211Z" fill="#1A1919"/>
<path fill-rule="evenodd" clip-rule="evenodd" d="M21.896 26.9179L21.9027 26.9103V25.4824C21.9027 25.1698 21.6863 25.124 21.5719 25.124H21.4884V25.0098C21.6675 25.0098 21.8421 25.0249 22.0216 25.0249C22.1782 25.0249 22.3332 25.0098 22.4905 25.0098V25.124H22.4332C22.2731 25.124 22.0942 25.1545 22.0942 25.6078V27.3409C22.0942 27.4744 22.0979 27.6076 22.1166 27.7259H21.9724L20.0109 25.539V27.1087C20.0109 27.4404 20.0753 27.5541 20.3685 27.5541H20.4335V27.6686C20.2698 27.6686 20.1057 27.6538 19.942 27.6538C19.77 27.6538 19.5952 27.6686 19.4238 27.6686V27.5541H19.4768C19.7398 27.5541 19.8202 27.3751 19.8202 27.0712V25.4664C19.8202 25.2532 19.6448 25.124 19.4734 25.124H19.4238V25.0098C19.568 25.0098 19.7177 25.0249 19.8622 25.0249C19.9754 25.0249 20.0864 25.0098 20.2009 25.0098L21.896 26.9179Z" fill="#1A1919"/>
<path fill-rule="evenodd" clip-rule="evenodd" d="M22.1165 27.7418L21.9601 27.7364L20.0267 25.5822V27.1085C20.0312 27.4403 20.0813 27.534 20.3685 27.5376H20.4493V27.6848H20.4327C20.2681 27.6848 20.1046 27.6689 19.9414 27.6689C19.7713 27.6689 19.5953 27.6848 19.4238 27.6848H19.4067V27.5376H19.4768C19.7284 27.5366 19.8004 27.3744 19.8029 27.0702V25.4663C19.8025 25.2632 19.6364 25.1405 19.4734 25.1405H19.4067V24.993H19.4238C19.5692 24.993 19.7183 25.0079 19.8621 25.0079C19.974 25.0079 20.0842 24.993 20.212 24.9979L21.8866 26.8833V25.4823C21.8855 25.1798 21.6827 25.1423 21.5719 25.1405H21.4714V24.993H21.488C21.668 24.993 21.8436 25.0079 22.0216 25.0079C22.1768 25.0079 22.3328 24.993 22.4898 24.993H22.5067V25.1405H22.4332C22.2759 25.1443 22.1141 25.1584 22.1103 25.6077V27.3408C22.1103 27.4742 22.1136 27.6062 22.1331 27.723L22.1349 27.7418H22.1165ZM21.9724 27.7086H22.0971C22.0805 27.5947 22.0772 27.4675 22.0772 27.3408V25.6077C22.0774 25.1505 22.2701 25.1081 22.4332 25.1071H22.4732V25.026C22.3233 25.0272 22.1727 25.041 22.0216 25.041C21.8466 25.041 21.6769 25.0272 21.5046 25.026V25.1071H21.5719C21.6893 25.1081 21.92 25.1594 21.92 25.4823L21.9145 26.9222L21.9076 26.9296L21.8956 26.9421L20.2009 25.026C20.0876 25.026 19.9771 25.041 19.8621 25.041C19.7208 25.041 19.5784 25.0272 19.44 25.026V25.1071H19.4734C19.6527 25.1081 19.8359 25.2432 19.8359 25.4663V27.0702C19.8359 27.3758 19.7499 27.5705 19.4768 27.5715L19.44 27.5712V27.6521C19.6046 27.6509 19.7742 27.6369 19.9414 27.6369C20.1011 27.6369 20.2594 27.6509 20.4169 27.6521V27.5715H20.3685C20.0688 27.5712 19.9941 27.4403 19.9932 27.1085V25.4969L21.9724 27.7086ZM21.8866 26.9102V26.9093L21.8838 26.9064L21.8866 26.9102Z" fill="#1A1919"/>
<path fill-rule="evenodd" clip-rule="evenodd" d="M23.1026 27.124C23.0643 27.253 23.0183 27.3531 23.0183 27.4207C23.0183 27.5353 23.1788 27.5542 23.3041 27.5542H23.3466V27.6686C23.1936 27.6604 23.0382 27.6539 22.8849 27.6539C22.7478 27.6539 22.6114 27.6604 22.4739 27.6686V27.5542H22.4971C22.6453 27.5542 22.7714 27.4664 22.8279 27.3064L23.4374 25.5586C23.4872 25.4173 23.5558 25.2269 23.579 25.0857C23.7001 25.0439 23.8531 24.9683 23.9252 24.922C23.937 24.9181 23.9441 24.9142 23.9556 24.9142C23.9672 24.9142 23.9742 24.9142 23.9826 24.9261C23.9938 24.9563 24.0049 24.9907 24.0168 25.0211L24.7179 27.0135C24.7637 27.1464 24.8089 27.2874 24.8576 27.4023C24.9041 27.5091 24.9841 27.5542 25.1103 27.5542H25.1331V27.6686C24.9615 27.6604 24.7896 27.6539 24.6077 27.6539C24.4209 27.6539 24.2298 27.6604 24.0356 27.6686V27.5542H24.0776C24.1647 27.5542 24.3142 27.5391 24.3142 27.4438C24.3142 27.3946 24.2798 27.2917 24.2372 27.1692L24.0888 26.7276H23.2243L23.1026 27.124ZM23.6588 25.4365H23.6508L23.2968 26.5145H24.0085L23.6588 25.4365Z" fill="#1A1919"/>
<path fill-rule="evenodd" clip-rule="evenodd" d="M25.132 27.685C24.9609 27.6777 24.7891 27.6692 24.6078 27.6692C24.421 27.6692 24.231 27.6777 24.0366 27.685L24.019 27.6858V27.5371H24.0777C24.166 27.5371 24.2969 27.5173 24.2972 27.4439C24.2981 27.4005 24.2639 27.2962 24.2219 27.175L24.0769 26.744H23.2367L23.1182 27.129C23.0799 27.2585 23.0336 27.3591 23.0343 27.4211C23.0356 27.5141 23.1778 27.5371 23.3042 27.5371H23.3627V27.6858L23.3454 27.685C23.1932 27.6777 23.0377 27.6692 22.8853 27.6692C22.7494 27.6692 22.6117 27.6777 22.4753 27.685L22.4575 27.6858V27.5371H22.4971C22.6386 27.5367 22.7569 27.4559 22.8119 27.3011L23.422 25.5528C23.4712 25.4118 23.5403 25.2223 23.5732 25.0701C23.6927 25.0295 23.846 24.9527 23.9191 24.9067C23.9298 24.9029 23.9403 24.898 23.9556 24.898C23.965 24.8975 23.9855 24.8999 23.9979 24.9198C24.0087 24.9511 24.0208 24.9853 24.0323 25.016L24.7336 27.0082C24.7785 27.1416 24.824 27.2823 24.874 27.3952C24.918 27.4967 24.988 27.5367 25.1104 27.5371H25.1489V27.6858L25.132 27.685ZM24.0523 27.6511C24.2408 27.6444 24.4258 27.6371 24.6078 27.6371C24.7844 27.6371 24.9505 27.6444 25.116 27.6511V27.5713H25.1104C24.9797 27.5722 24.8899 27.5209 24.8432 27.4086C24.7936 27.2935 24.7473 27.1521 24.7024 27.0187L24.0011 25.0263C23.9895 24.9959 23.9787 24.9619 23.9687 24.9349C23.9649 24.9311 23.9658 24.9311 23.9628 24.9311H23.9556C23.9479 24.9311 23.9434 24.9334 23.9336 24.9358C23.8603 24.9834 23.7076 25.0585 23.5943 25.0882C23.5711 25.2326 23.5025 25.4229 23.453 25.564L22.8435 27.312C22.7856 27.4775 22.6516 27.5717 22.4971 27.5713H22.4907V27.6511C22.6213 27.6444 22.7531 27.6371 22.8853 27.6371C23.0327 27.6371 23.1829 27.6444 23.3287 27.6511V27.5713H23.3042C23.1798 27.5696 23.0064 27.5561 23.0021 27.4211C23.0024 27.3456 23.0491 27.2481 23.0864 27.1194L23.2119 26.7118H24.1001L24.2526 27.1642C24.2954 27.2868 24.3301 27.3883 24.3301 27.4439C24.3244 27.5606 24.1641 27.5692 24.0777 27.5713H24.0523V27.6511ZM23.2737 26.531L23.6384 25.4197H23.6589H23.6703L24.0323 26.531H23.2737ZM23.3193 26.4977H23.9861L23.6547 25.4771L23.3193 26.4977Z" fill="#1A1919"/>
<path fill-rule="evenodd" clip-rule="evenodd" d="M25.3006 25.2003C25.0149 25.2003 25.0034 25.2692 24.9461 25.5469H24.8315C24.8465 25.4402 24.8661 25.3337 24.8778 25.2232C24.8927 25.1161 24.9001 25.0099 24.9001 24.8997H24.9922C25.0221 25.014 25.1175 25.0099 25.2203 25.0099H27.1861C27.2884 25.0099 27.3836 25.0061 27.3911 24.8917L27.4822 24.9073C27.4681 25.0099 27.4529 25.1128 27.441 25.2159C27.4326 25.3187 27.4326 25.4212 27.4326 25.524L27.3188 25.5664C27.3121 25.4256 27.2929 25.2003 27.0372 25.2003H26.4126V27.2268C26.4126 27.5207 26.546 27.5543 26.7286 27.5543H26.8014V27.6687C26.6526 27.6687 26.3864 27.654 26.1802 27.654C25.9522 27.654 25.6848 27.6687 25.5363 27.6687V27.5543H25.6089C25.8188 27.5543 25.925 27.5355 25.925 27.2347V25.2003H25.3006Z" fill="#1A1919"/>
<path fill-rule="evenodd" clip-rule="evenodd" d="M26.8016 27.6849C26.6519 27.6849 26.3849 27.6698 26.1801 27.6698C25.9526 27.6698 25.6859 27.6849 25.5366 27.6849H25.5198V27.5377H25.609C25.8191 27.5328 25.9033 27.5301 25.9083 27.2346L25.9081 25.2165H25.3007V25.1831H25.9416V27.2346C25.9416 27.5404 25.8182 27.5706 25.609 27.5713H25.5529V27.6523C25.7034 27.651 25.9594 27.637 26.1801 27.637C26.3792 27.637 26.6342 27.651 26.7845 27.6523V27.5713H26.7286C26.545 27.5706 26.3967 27.5264 26.3964 27.2267V25.1831H27.0373C27.2932 25.1842 27.3265 25.4013 27.3339 25.5431L27.4166 25.5126C27.4166 25.4131 27.4172 25.3135 27.425 25.2139C27.4353 25.1157 27.4497 25.0182 27.4635 24.921L27.406 24.9109C27.3885 25.0218 27.2809 25.028 27.1862 25.0263H25.201C25.1111 25.0273 25.0139 25.0221 24.9793 24.9156H24.9171C24.9162 25.0209 24.9087 25.1233 24.8937 25.2249C24.8834 25.3299 24.865 25.4307 24.8505 25.5309H24.9324C24.9824 25.2652 25.0154 25.179 25.3007 25.1831V25.2165C25.0183 25.2214 25.0245 25.2692 24.9623 25.5507L24.9596 25.5637H24.8125L24.8148 25.5448C24.8309 25.4377 24.8496 25.3306 24.8607 25.2209C24.8763 25.1144 24.8834 25.0087 24.8834 24.8995V24.8827H25.0043L25.0075 24.8946C25.0342 24.9907 25.1035 24.9914 25.201 24.9931H27.1862C27.2916 24.9914 27.3685 24.99 27.3752 24.8906L27.3759 24.8723L27.3936 24.8758L27.5017 24.8928L27.4991 24.9096C27.4834 25.0119 27.469 25.1144 27.4575 25.2165C27.4497 25.3186 27.4497 25.4211 27.4497 25.5239V25.5354L27.4385 25.5398L27.3037 25.5892L27.3032 25.5671C27.2932 25.4238 27.278 25.2165 27.0373 25.2165H26.4292V27.2267C26.433 27.5139 26.547 27.5341 26.7286 27.5377H26.8174V27.6849H26.8016Z" fill="#1A1919"/>
<path fill-rule="evenodd" clip-rule="evenodd" d="M27.623 27.5541H27.6764C27.8136 27.5541 27.9579 27.5354 27.9579 27.3371V25.3416C27.9579 25.1431 27.8136 25.1242 27.6764 25.1242H27.623V25.0098C27.7717 25.0098 27.9998 25.0249 28.1862 25.0249C28.3772 25.0249 28.6058 25.0098 28.7852 25.0098V25.1242H28.7317C28.594 25.1242 28.4492 25.1431 28.4492 25.3416V27.3371C28.4492 27.5354 28.594 27.5541 28.7317 27.5541H28.7852V27.6686C28.6022 27.6686 28.3734 27.6539 28.1832 27.6539C27.9962 27.6539 27.7717 27.6686 27.623 27.6686V27.5541Z" fill="#1A1919"/>
<path fill-rule="evenodd" clip-rule="evenodd" d="M28.7854 27.6848C28.6012 27.6848 28.3735 27.6689 28.1835 27.6689C27.997 27.6689 27.7721 27.6848 27.6232 27.6848H27.6069V27.5376H27.6768C27.814 27.5353 27.9406 27.5232 27.9415 27.337V25.3416C27.9406 25.1554 27.814 25.143 27.6768 25.1405H27.6069V24.993H27.6232C27.7721 24.993 28.0012 25.0079 28.1864 25.0079C28.3763 25.0079 28.6049 24.993 28.7854 24.993H28.8012V25.1405H28.732C28.5926 25.143 28.4673 25.1554 28.466 25.3416V27.337C28.4673 27.5232 28.5926 27.5353 28.732 27.5376H28.8012V27.6848H28.7854ZM28.7681 27.6519V27.5712H28.732C28.5954 27.5712 28.4338 27.5473 28.4338 27.337V25.3416C28.4338 25.1309 28.5954 25.1074 28.732 25.1071H28.7681V25.026C28.5925 25.0272 28.3719 25.041 28.1864 25.041C28.0056 25.041 27.7877 25.0272 27.6398 25.026V25.1071H27.6768C27.812 25.1074 27.9743 25.1309 27.9748 25.3416V27.337C27.9743 27.5473 27.812 27.5712 27.6768 27.5712H27.6398V27.6519C27.7866 27.6502 28.002 27.6369 28.1835 27.6369C28.3681 27.6369 28.5884 27.6509 28.7681 27.6519Z" fill="#1A1919"/>
<path fill-rule="evenodd" clip-rule="evenodd" d="M30.304 24.9528C31.1161 24.9528 31.7633 25.4561 31.7633 26.2674C31.7633 27.1436 31.1346 27.726 30.3236 27.726C29.5157 27.726 28.8989 27.1774 28.8989 26.3583C28.8989 25.5664 29.512 24.9528 30.304 24.9528ZM30.3616 27.5583C31.1008 27.5583 31.2296 26.9065 31.2296 26.351C31.2296 25.7943 30.9295 25.1204 30.2968 25.1204C29.6304 25.1204 29.4321 25.7147 29.4321 26.2247C29.4321 26.9065 29.7447 27.5583 30.3616 27.5583Z" fill="#1A1919"/>
<path fill-rule="evenodd" clip-rule="evenodd" d="M28.8821 26.3581C28.8837 25.557 29.5038 24.9373 30.304 24.936V24.9693C29.521 24.9693 28.9152 25.5746 28.9143 26.3581C28.9159 27.168 29.5238 27.7084 30.3239 27.7086C31.1267 27.7084 31.7463 27.1343 31.7473 26.2667C31.7466 25.4654 31.1095 24.9701 30.304 24.9693V24.936C31.1218 24.9368 31.7783 25.4451 31.7797 26.2667C31.7789 27.152 31.1427 27.7404 30.3239 27.7418C29.5091 27.7404 28.8837 27.1863 28.8821 26.3581ZM29.4155 26.2245C29.4167 25.712 29.6167 25.1033 30.2968 25.1033C30.9436 25.1047 31.2452 25.7912 31.2465 26.3509C31.2452 26.9063 31.1146 27.5737 30.3618 27.5737V27.5414C31.0861 27.5408 31.2119 26.9063 31.213 26.3509C31.213 25.7991 30.916 25.1379 30.2968 25.1368C29.6433 25.1375 29.4503 25.7172 29.4486 26.2245C29.4488 26.9031 29.7586 27.5404 30.3618 27.5414V27.5737C29.7296 27.5732 29.4167 26.9103 29.4155 26.2245Z" fill="#1A1919"/>
<path fill-rule="evenodd" clip-rule="evenodd" d="M34.3301 26.9179L34.3381 26.9103V25.4824C34.3381 25.1698 34.1202 25.124 34.006 25.124H33.9231V25.0098C34.1016 25.0098 34.2772 25.0249 34.4557 25.0249C34.6123 25.0249 34.7684 25.0098 34.9248 25.0098V25.124H34.8675C34.7079 25.124 34.5281 25.1545 34.5281 25.6078V27.3409C34.5281 27.4744 34.5321 27.6076 34.5514 27.7259H34.4065L32.4445 25.539V27.1087C32.4445 27.4404 32.5095 27.5541 32.8022 27.5541H32.8675V27.6686C32.7036 27.6686 32.5401 27.6538 32.3763 27.6538C32.2047 27.6538 32.0294 27.6686 31.8579 27.6686V27.5541H31.9114C32.1747 27.5541 32.2542 27.3751 32.2542 27.0712V25.4664C32.2542 25.2532 32.0796 25.124 31.9073 25.124H31.8579V25.0098C32.0027 25.0098 32.1511 25.0249 32.2962 25.0249C32.4102 25.0249 32.5201 25.0098 32.6348 25.0098L34.3301 26.9179Z" fill="#1A1919"/>
<path fill-rule="evenodd" clip-rule="evenodd" d="M34.5517 27.7418L34.3941 27.7364L32.461 25.5822V27.1086C32.4655 27.4403 32.5158 27.5335 32.8018 27.5369H32.8839V27.6848H32.8677C32.7028 27.6848 32.5393 27.6696 32.3764 27.6696C32.2057 27.6696 32.0303 27.6848 31.8576 27.6848H31.842V27.5369H31.9114C32.1624 27.5362 32.2348 27.3744 32.2378 27.0711V25.4663C32.2377 25.2632 32.0712 25.1405 31.9075 25.1405H31.842V24.993H31.8576C32.0037 24.993 32.1522 25.0079 32.2961 25.0079C32.4091 25.0079 32.5186 24.993 32.6478 24.999L34.3214 26.8833V25.4823C34.3201 25.1798 34.1172 25.143 34.0061 25.1405H33.9058V24.993H33.9232C34.1021 24.993 34.2779 25.0079 34.4554 25.0079C34.6113 25.0079 34.7667 24.993 34.925 24.993H34.941V25.1405H34.8674C34.7104 25.1446 34.5483 25.159 34.5452 25.6077V27.3408C34.5452 27.4742 34.5483 27.6071 34.5667 27.723L34.57 27.7418H34.5517ZM34.4066 27.7086H34.5315C34.5154 27.594 34.5116 27.4675 34.5116 27.3408V25.6077C34.5116 25.1498 34.7039 25.1081 34.8674 25.1071H34.9087V25.026C34.7575 25.0272 34.6076 25.041 34.4554 25.041C34.2819 25.041 34.1116 25.0272 33.9392 25.026V25.1071H34.0061C34.1237 25.1081 34.3537 25.1601 34.3537 25.4823L34.3497 26.9222L34.3423 26.9296L34.3302 26.9421L32.6351 25.026C32.5223 25.026 32.4114 25.041 32.2961 25.041C32.1557 25.041 32.0126 25.0272 31.8741 25.026V25.1071H31.9075C32.0866 25.1081 32.2706 25.2432 32.2706 25.4663V27.0711C32.2706 27.3758 32.1855 27.5705 31.9114 27.5715L31.8741 27.5712V27.6521C32.0395 27.6509 32.2089 27.6369 32.3764 27.6369C32.5352 27.6369 32.6932 27.6509 32.851 27.6521V27.5715H32.8018C32.503 27.5712 32.428 27.4403 32.428 27.1086V25.4962L34.4066 27.7086ZM34.3214 26.9102V26.9093L34.3184 26.9064L34.3214 26.9102Z" fill="#1A1919"/>
<path fill-rule="evenodd" clip-rule="evenodd" d="M35.5367 27.124C35.4993 27.253 35.4534 27.3531 35.4534 27.4207C35.4534 27.5353 35.6138 27.5542 35.7387 27.5542H35.7812V27.6686C35.6286 27.6604 35.4724 27.6539 35.3198 27.6539C35.1827 27.6539 35.0458 27.6604 34.9092 27.6686V27.5542H34.9308C35.0802 27.5542 35.2063 27.4664 35.262 27.3064L35.8727 25.5586C35.9219 25.4173 35.9909 25.2269 36.0128 25.0857C36.1352 25.0439 36.2872 24.9683 36.3605 24.922C36.3712 24.9181 36.3789 24.9142 36.3907 24.9142C36.4018 24.9142 36.409 24.9142 36.4168 24.9261C36.4283 24.9563 36.4397 24.9907 36.4512 25.0211L37.1521 27.0135C37.1975 27.1464 37.2435 27.2874 37.2933 27.4023C37.339 27.5091 37.4189 27.5542 37.5445 27.5542H37.568V27.6686C37.3962 27.6604 37.2247 27.6539 37.0417 27.6539C36.8554 27.6539 36.6647 27.6604 36.4701 27.6686V27.5542H36.5123C36.5994 27.5542 36.7488 27.5391 36.7488 27.4438C36.7488 27.3946 36.7147 27.2917 36.6721 27.1692L36.5236 26.7276H35.6591L35.5367 27.124ZM36.0937 25.4365H36.0861L35.7309 26.5145H36.4443L36.0937 25.4365Z" fill="#1A1919"/>
<path fill-rule="evenodd" clip-rule="evenodd" d="M37.5661 27.6849C37.3945 27.678 37.2235 27.6695 37.0418 27.6695C36.8559 27.6695 36.665 27.678 36.4709 27.6849L36.4541 27.6857V27.5377H36.512C36.6006 27.5377 36.7318 27.5171 36.7319 27.4438C36.7329 27.4004 36.6985 27.2964 36.6556 27.1749L36.5112 26.7439H35.6703L35.5526 27.1289C35.5143 27.2594 35.4693 27.359 35.4697 27.4207C35.4697 27.514 35.6126 27.5377 35.7385 27.5377H35.7968V27.6857L35.7796 27.6849C35.6274 27.678 35.4714 27.6695 35.3198 27.6695C35.1832 27.6695 35.0466 27.678 34.9091 27.6849L34.8926 27.6857V27.5377H34.9308C35.0728 27.537 35.1916 27.4556 35.2474 27.301L35.8565 25.5527C35.9054 25.4117 35.9742 25.2222 36.0077 25.0705C36.1273 25.029 36.2804 24.9526 36.3544 24.9066C36.3642 24.9028 36.3749 24.8982 36.3905 24.8982C36.4003 24.8973 36.4203 24.8997 36.432 24.9205C36.4436 24.9505 36.4548 24.9851 36.4672 25.0159L37.1676 27.008C37.2135 27.1414 37.2589 27.2822 37.3084 27.3958C37.3532 27.4965 37.4222 27.5366 37.544 27.5377H37.5833V27.6857L37.5661 27.6849ZM36.4864 27.6512C36.6748 27.6443 36.8601 27.6369 37.0418 27.6369C37.2188 27.6369 37.3845 27.6443 37.5507 27.651L37.5503 27.5712H37.544C37.4149 27.5715 37.3251 27.5207 37.2775 27.4085C37.2273 27.2934 37.1821 27.1519 37.1364 27.019L36.4355 25.0262C36.4242 24.9958 36.4121 24.9618 36.4032 24.9354C36.4 24.931 36.4003 24.931 36.398 24.931H36.3905C36.3823 24.931 36.3781 24.9335 36.369 24.9361C36.2945 24.9827 36.1421 25.0591 36.0296 25.0881C36.006 25.2324 35.9367 25.4224 35.8877 25.5639L35.2777 27.3118C35.2197 27.4774 35.0866 27.5715 34.9308 27.5712H34.9252V27.651C35.0564 27.6443 35.1873 27.6369 35.3198 27.6369C35.4673 27.6369 35.618 27.6443 35.7643 27.651V27.5712H35.7385C35.6147 27.5695 35.441 27.5564 35.4361 27.4207C35.4372 27.3455 35.484 27.2483 35.5213 27.1192L35.6466 26.7117H36.5345L36.6875 27.164C36.7294 27.2866 36.7642 27.3881 36.7642 27.4438C36.7587 27.5604 36.5985 27.569 36.512 27.5712H36.4864V27.6512ZM35.7081 26.5308L36.0739 25.4195H36.0936H36.1052L36.4653 26.5308H35.7081ZM35.7541 26.4976H36.4205L36.0891 25.4776L35.7541 26.4976Z" fill="#1A1919"/>
<path fill-rule="evenodd" clip-rule="evenodd" d="M38.5273 27.2951C38.5273 27.4482 38.6332 27.4933 38.7554 27.5092C38.9113 27.5206 39.0829 27.5206 39.2587 27.5011C39.4184 27.4819 39.5555 27.391 39.6239 27.2951C39.6844 27.2114 39.7187 27.1047 39.7421 27.0211H39.8523C39.8103 27.2382 39.7571 27.4518 39.7114 27.6686C39.3769 27.6686 39.0406 27.6539 38.706 27.6539C38.3705 27.6539 38.0356 27.6686 37.7004 27.6686V27.5541H37.7532C37.8906 27.5541 38.0397 27.5354 38.0397 27.2992V25.3416C38.0397 25.1431 37.8906 25.124 37.7532 25.124H37.7004V25.0098C37.902 25.0098 38.1004 25.0249 38.302 25.0249C38.4966 25.0249 38.6866 25.0098 38.8815 25.0098V25.124H38.7857C38.641 25.124 38.5273 25.1281 38.5273 25.33V27.2951Z" fill="#1A1919"/>
<path fill-rule="evenodd" clip-rule="evenodd" d="M39.7117 27.6848C39.3758 27.6848 39.0402 27.6696 38.7062 27.6696C38.371 27.6696 38.0358 27.6848 37.6999 27.6848H37.6838V27.5376H37.7533C37.891 27.5343 38.0219 27.5246 38.0235 27.2991V25.3408C38.0219 25.1554 37.8916 25.143 37.7533 25.1405H37.6838V24.993H37.6999C37.9028 24.993 38.101 25.0079 38.3018 25.0079C38.4958 25.0079 38.6855 24.993 38.8816 24.993H38.8969V25.1405H38.7858C38.6381 25.1443 38.5464 25.1377 38.5431 25.3299V27.295C38.544 27.4374 38.6374 27.4754 38.7565 27.4925C38.8235 27.4971 38.8944 27.4995 38.9677 27.4995C39.0609 27.4995 39.1576 27.4952 39.256 27.4848C39.4112 27.4664 39.5447 27.3767 39.6106 27.2859C39.6694 27.2044 39.7026 27.1 39.7257 27.0171L39.7289 27.0045H39.8724L39.8691 27.0246C39.8261 27.2423 39.7736 27.4548 39.7274 27.672L39.7244 27.6848H39.7117ZM39.6977 27.6519C39.7418 27.445 39.7915 27.2427 39.8328 27.0373H39.7542C39.7309 27.1202 39.6969 27.2224 39.6371 27.3053C39.5659 27.4039 39.4249 27.4971 39.2596 27.5176C39.1601 27.5277 39.0609 27.5328 38.9677 27.5328C38.8939 27.5328 38.8227 27.5295 38.7533 27.5246C38.6294 27.5111 38.5096 27.4579 38.5098 27.295V25.3299C38.5098 25.1181 38.6437 25.1071 38.7858 25.1071H38.8643V25.026C38.6767 25.0272 38.4915 25.0415 38.3018 25.0415C38.1051 25.0415 37.912 25.0272 37.7171 25.026V25.1071H37.7533C37.8892 25.1071 38.0555 25.1309 38.0555 25.3408V27.2991C38.0555 27.5457 37.8899 27.5712 37.7533 27.5712H37.7171V27.6519C38.0461 27.6512 38.3754 27.6369 38.7062 27.6369C39.0373 27.6369 39.368 27.6512 39.6977 27.6519Z" fill="#1A1919"/>
<path fill-rule="evenodd" clip-rule="evenodd" d="M16.0146 11.5622C16.0146 7.99923 18.903 5.11096 22.4657 5.11096C26.0287 5.11096 28.917 7.99923 28.917 11.5622C28.917 15.1251 26.0287 18.0136 22.4657 18.0136C18.903 18.0136 16.0146 15.1251 16.0146 11.5622Z" fill="#FFFFFE"/>
<path fill-rule="evenodd" clip-rule="evenodd" d="M26.3673 11.4351C26.3646 9.78305 25.3321 8.37409 23.8769 7.81612V15.0538C25.3321 14.4951 26.3646 13.0875 26.3673 11.4351ZM21.1011 15.0524V7.81684C19.6472 8.37658 18.6162 9.78354 18.6123 11.4351C18.6162 13.0863 19.6472 14.4931 21.1011 15.0524ZM22.4897 5.31755C19.1112 5.31885 16.374 8.05662 16.3734 11.4351C16.374 14.8133 19.1112 17.5505 22.4897 17.5511C25.8682 17.5505 28.606 14.8133 28.6068 11.4351C28.606 8.05662 25.8682 5.31885 22.4897 5.31755ZM22.4747 18.1284C18.7777 18.1461 15.7349 15.1509 15.7349 11.5049C15.7349 7.52025 18.7777 4.76417 22.4747 4.76489H24.2073C27.8606 4.76417 31.1949 7.51895 31.1949 11.5049C31.1949 15.1496 27.8606 18.1284 24.2073 18.1284H22.4747Z" fill="#0069AA"/>
<path fill-rule="evenodd" clip-rule="evenodd" d="M7.11853 27.5541H7.17203C7.309 27.5541 7.45376 27.5354 7.45376 27.3371V25.3416C7.45376 25.1431 7.309 25.1242 7.17203 25.1242H7.11853V25.0098C7.26704 25.0098 7.49557 25.0249 7.68273 25.0249C7.87305 25.0249 8.10129 25.0098 8.28037 25.0098V25.1242H8.22659C8.09019 25.1242 7.94514 25.1431 7.94514 25.3416V27.3371C7.94514 27.5354 8.09019 27.5541 8.22659 27.5541H8.28037V27.6686C8.09769 27.6686 7.86858 27.6539 7.67883 27.6539C7.49182 27.6539 7.26704 27.6686 7.11853 27.6686V27.5541Z" fill="#1A1919"/>
<path fill-rule="evenodd" clip-rule="evenodd" d="M8.28035 27.6848C8.09608 27.6848 7.86812 27.6696 7.67852 27.6696C7.49209 27.6696 7.26803 27.6848 7.11851 27.6848H7.10193V27.5376H7.17171C7.30999 27.5343 7.43572 27.5232 7.43687 27.337V25.3416C7.43572 25.1551 7.30999 25.143 7.17171 25.1405H7.10193V24.993H7.11851C7.26803 24.993 7.49642 25.0079 7.6827 25.0079C7.87216 25.0079 8.10026 24.993 8.28035 24.993H8.29736V25.1405H8.22729C8.08887 25.143 7.96242 25.1551 7.9617 25.3416V27.337C7.96242 27.5232 8.08887 27.5343 8.22729 27.5376H8.29736V27.6848H8.28035ZM8.2639 27.6522L8.26405 27.5712H8.22729C8.09103 27.5712 7.92911 27.5473 7.92825 27.337V25.3416C7.92911 25.1309 8.09103 25.1074 8.22729 25.1074H8.2639V25.026C8.08815 25.0262 7.8674 25.0415 7.6827 25.0415C7.50175 25.0415 7.28273 25.0272 7.13523 25.026V25.1074H7.17171C7.30753 25.1074 7.46974 25.1309 7.46974 25.3416V27.337C7.46974 27.5473 7.30753 27.5712 7.17171 27.5712H7.13523V27.6522C7.28273 27.6509 7.49785 27.6369 7.67852 27.6369C7.86409 27.6369 8.08425 27.6512 8.2639 27.6522Z" fill="#1A1919"/>
<path fill-rule="evenodd" clip-rule="evenodd" d="M39.8057 24.9019C40.0356 24.9019 40.207 25.0783 40.207 25.3038C40.207 25.5292 40.0356 25.7038 39.8057 25.7038C39.5764 25.7038 39.4048 25.5292 39.4048 25.3038C39.4048 25.0783 39.5764 24.9019 39.8057 24.9019ZM39.8057 25.6292C39.9856 25.6292 40.1231 25.4763 40.1231 25.3038C40.1231 25.1311 39.9872 24.977 39.8057 24.977C39.6252 24.977 39.4879 25.1311 39.4879 25.3038C39.4879 25.4763 39.6252 25.6292 39.8057 25.6292ZM39.6063 25.5154V25.4959C39.6553 25.4888 39.6646 25.4901 39.6646 25.4602V25.1628C39.6646 25.121 39.6604 25.1066 39.6079 25.1089V25.0884H39.8133C39.8837 25.0884 39.9487 25.1221 39.9487 25.1951C39.9487 25.2547 39.9096 25.2989 39.8539 25.3161L39.9199 25.4081C39.9507 25.4496 39.9856 25.4888 40.0082 25.5027V25.5154H39.9302C39.8927 25.5154 39.8595 25.4366 39.786 25.331H39.7416V25.4639C39.7416 25.4901 39.7508 25.4888 39.8001 25.4959V25.5154H39.6063ZM39.7416 25.3038H39.7889C39.8406 25.3038 39.8645 25.2647 39.8645 25.2015C39.8645 25.1377 39.8276 25.1151 39.7863 25.1151H39.7416V25.3038Z" fill="#1A1919"/>
</g>
<defs>
<clipPath id="clip0_420_512">
<rect width="46.5455" height="32" fill="white" transform="translate(0.681885)"/>
</clipPath>
</defs>
</svg>
