<svg width="47" height="32" viewBox="0 0 47 32" fill="none" xmlns="http://www.w3.org/2000/svg">
<g clip-path="url(#clip0_420_559)">
<path d="M43.5628 0.351074H3.43744C1.88619 0.351074 0.628662 1.60861 0.628662 3.15985V28.8401C0.628662 30.3913 1.88619 31.6489 3.43744 31.6489H43.5628C45.1141 31.6489 46.3716 30.3913 46.3716 28.8401V3.15985C46.3716 1.60861 45.1141 0.351074 43.5628 0.351074Z" fill="white" stroke="#F3F3F3" stroke-width="0.802508"/>
<path fill-rule="evenodd" clip-rule="evenodd" d="M15.5302 16.2587C15.5302 18.2185 17.0691 19.738 19.0495 19.738C19.6093 19.738 20.0888 19.628 20.68 19.3495V17.8187C20.1603 18.339 19.6996 18.549 19.11 18.549C17.8002 18.549 16.8705 17.5992 16.8705 16.2489C16.8705 14.9689 17.8295 13.9591 19.0495 13.9591C19.6698 13.9591 20.1394 14.1804 20.68 14.7092V13.1791C20.1092 12.8896 19.6399 12.7695 19.0802 12.7695C17.1098 12.7695 15.5302 14.32 15.5302 16.2587ZM12.1926 14.6394C12.1926 14.9997 12.4217 15.1901 13.2022 15.4789C14.6815 16.0201 15.1199 16.4994 15.1199 17.5589C15.1199 18.8495 14.1718 19.7482 12.8204 19.7482C11.8307 19.7482 11.111 19.3585 10.5119 18.4788L11.3521 17.6697C11.6514 18.2487 12.1511 18.5591 12.7715 18.5591C13.3519 18.5591 13.7813 18.1589 13.7813 17.6187C13.7813 17.3387 13.6512 17.0983 13.3913 16.9286C13.2606 16.8482 13.0015 16.7287 12.4922 16.5489C11.2707 16.1094 10.8519 15.6391 10.8519 14.7205C10.8519 13.6293 11.7517 12.8101 12.9314 12.8101C13.6625 12.8101 14.3315 13.06 14.8907 13.5492L14.2101 14.4402C13.8714 14.0605 13.551 13.9003 13.1615 13.9003C12.6009 13.9003 12.1926 14.2195 12.1926 14.6394ZM8.72147 19.5879H10.0221V12.9203H8.72147V19.5879ZM6.06309 17.929C5.65455 18.2982 5.12365 18.4592 4.28337 18.4592H3.93433V14.0499H4.28337C5.12365 14.0499 5.63369 14.2003 6.06309 14.5893C6.51286 14.9896 6.78334 15.6104 6.78334 16.249C6.78334 16.8891 6.51286 17.5287 6.06309 17.929ZM4.5438 12.9203H2.63477V19.5876H4.53376C5.54353 19.5876 6.27253 19.3496 6.91265 18.818C7.67333 18.1887 8.12308 17.24 8.12308 16.2588C8.12308 14.291 6.65299 12.9203 4.5438 12.9203ZM29.2141 12.9203L30.9919 17.3989L32.7931 12.9203H34.2029L31.3225 19.759H30.6225L27.7931 12.9203H29.2141ZM34.791 19.5878H38.4793V18.459H36.0905V16.6592H38.3914V15.5298H36.0905V14.05H38.4793V12.9202H34.791V19.5878ZM40.6396 15.9898H41.0195C41.8503 15.9898 42.2905 15.6289 42.2905 14.9587C42.2905 14.3099 41.8503 13.9706 41.0401 13.9706H40.6396V15.9898ZM41.2692 12.9201C42.7689 12.9201 43.6287 13.6403 43.6287 14.8886C43.6287 15.9095 43.0893 16.5798 42.1097 16.7789L44.2088 19.5877H42.6094L40.8093 16.9092H40.6396V19.5877H39.3405V12.9201H41.2692Z" fill="#1D1D1B"/>
<path fill-rule="evenodd" clip-rule="evenodd" d="M27.6398 18.1883C28.6953 16.5377 28.2132 14.345 26.5629 13.2895C24.9124 12.234 22.7193 12.7159 21.6636 14.3665C20.6083 16.0166 21.0907 18.2101 22.741 19.2655C24.3914 20.321 26.5844 19.8384 27.6398 18.1883Z" fill="url(#paint0_linear_420_559)"/>
</g>
<defs>
<linearGradient id="paint0_linear_420_559" x1="29.5507" y1="15.2003" x2="23.5746" y2="11.3784" gradientUnits="userSpaceOnUse">
<stop stop-color="#F6A000"/>
<stop offset="0.623918" stop-color="#E47E02"/>
<stop offset="1" stop-color="#D36002"/>
</linearGradient>
<clipPath id="clip0_420_559">
<rect width="46.5455" height="32" fill="white" transform="translate(0.227295)"/>
</clipPath>
</defs>
</svg>
