<svg width="47" height="32" viewBox="0 0 47 32" fill="none" xmlns="http://www.w3.org/2000/svg">
<g clip-path="url(#clip0_420_596)">
<path d="M43.3808 0.351074H3.25543C1.70419 0.351074 0.446655 1.60861 0.446655 3.15985V28.8401C0.446655 30.3913 1.70419 31.6489 3.25543 31.6489H43.3808C44.9321 31.6489 46.1896 30.3913 46.1896 28.8401V3.15985C46.1896 1.60861 44.9321 0.351074 43.3808 0.351074Z" fill="white" stroke="#F3F3F3" stroke-width="0.802508"/>
<path d="M27.5797 23.2037H19.2728V8.38599H27.5797V23.2037Z" fill="#FF5F00"/>
<path d="M19.8049 15.7937C19.8049 12.7878 21.2228 10.1102 23.4309 8.38475C21.8162 7.12299 19.7784 6.36987 17.5636 6.36987C12.3206 6.36987 8.07043 10.589 8.07043 15.7937C8.07043 20.9982 12.3206 25.2173 17.5636 25.2173C19.7784 25.2173 21.8162 24.4643 23.4309 23.2025C21.2228 21.477 19.8049 18.7995 19.8049 15.7937Z" fill="#EB001B"/>
<path d="M38.7829 15.7937C38.7829 20.9982 34.5328 25.2173 29.2897 25.2173C27.075 25.2173 25.0372 24.4643 23.4219 23.2025C25.6305 21.477 27.0484 18.7995 27.0484 15.7937C27.0484 12.7878 25.6305 10.1102 23.4219 8.38475C25.0372 7.12299 27.075 6.36987 29.2897 6.36987C34.5328 6.36987 38.7829 10.589 38.7829 15.7937Z" fill="#F79E1B"/>
</g>
<defs>
<clipPath id="clip0_420_596">
<rect width="46.5455" height="32" fill="white" transform="translate(0.0454102)"/>
</clipPath>
</defs>
</svg>
