<svg width="48" height="32" viewBox="0 0 48 32" fill="none" xmlns="http://www.w3.org/2000/svg">
<g clip-path="url(#clip0_420_601)">
<path d="M43.0558 0.374146H4.48954C2.46976 0.374146 0.832397 2.0115 0.832397 4.03129V27.969C0.832397 29.9887 2.46976 31.6261 4.48954 31.6261H43.0558C45.0756 31.6261 46.7129 29.9887 46.7129 27.969V4.03129C46.7129 2.0115 45.0756 0.374146 43.0558 0.374146Z" fill="white" stroke="#D9D9D9" stroke-width="0.664935"/>
<path fill-rule="evenodd" clip-rule="evenodd" d="M14.6302 21.663H11.8104L9.69594 13.5962C9.59561 13.2252 9.38249 12.8971 9.06904 12.7425C8.28675 12.354 7.42473 12.0447 6.48438 11.8888V11.5782H11.0267C11.6537 11.5782 12.1239 12.0447 12.2022 12.5865L13.2994 18.4054L16.1178 11.5782H18.8591L14.6302 21.663ZM20.4264 21.663H17.7634L19.9562 11.5782H22.6192L20.4264 21.663ZM26.0645 14.372C26.1429 13.8288 26.6131 13.5183 27.1617 13.5183C28.0237 13.4403 28.9626 13.5963 29.7463 13.9834L30.2165 11.8121C29.4328 11.5015 28.5709 11.3456 27.7886 11.3456C25.2039 11.3456 23.3231 12.7425 23.3231 14.6812C23.3231 16.1561 24.6553 16.9305 25.5957 17.397C26.6131 17.8622 27.0049 18.1728 26.9265 18.638C26.9265 19.3358 26.1429 19.6464 25.3606 19.6464C24.4203 19.6464 23.4798 19.4138 22.6192 19.0252L22.149 21.1979C23.0894 21.585 24.1068 21.741 25.0472 21.741C27.9453 21.8176 29.7463 20.4221 29.7463 18.3274C29.7463 15.6895 26.0645 15.5349 26.0645 14.372ZM39.0662 21.663L36.9517 11.5782H34.6805C34.2103 11.5782 33.7401 11.8888 33.5834 12.354L29.6679 21.663H32.4093L32.9565 20.1895H36.3248L36.6382 21.663H39.0662ZM35.0723 14.294L35.8546 18.0948H33.6618L35.0723 14.294Z" fill="#172B85"/>
</g>
<defs>
<clipPath id="clip0_420_601">
<rect width="46.5455" height="32" fill="white" transform="translate(0.5)"/>
</clipPath>
</defs>
</svg>
