<svg width="48" height="32" viewBox="0 0 48 32" fill="none" xmlns="http://www.w3.org/2000/svg">
<g clip-path="url(#clip0_420_591)">
<path d="M43.9265 0.351074H3.80109C2.24984 0.351074 0.99231 1.60861 0.99231 3.15985V28.8401C0.99231 30.3913 2.24984 31.6489 3.80109 31.6489H43.9265C45.4777 31.6489 46.7353 30.3913 46.7353 28.8401V3.15985C46.7353 1.60861 45.4777 0.351074 43.9265 0.351074Z" fill="white" stroke="#F3F3F3" stroke-width="0.802508"/>
<path fill-rule="evenodd" clip-rule="evenodd" d="M31.3987 16.0893H31.4182H31.456H31.4938H31.5316H31.5694H31.6072H31.645H31.6828H31.7206H31.7584H31.7962H31.834H31.8718H31.9096H31.9474H31.9852H32.023H32.0608H32.0986H32.1364H32.1742H32.212H32.2497H32.2876H32.3254H32.3631H32.401H32.4387H32.4765H32.5144H32.5521H32.59H32.6277H32.6655H32.7033H32.7411H32.7789H32.8167H32.8545H32.8923H32.9301H32.9679H33.0057H33.0435H33.0812H33.119H33.1568H33.1946H33.2324H33.2702H33.308H33.3458H33.3836H33.4214H33.4592H33.497H33.5348H33.5726H33.6104H33.6482H33.6797L33.686 16.0895C33.6977 16.0898 33.7104 16.0903 33.7238 16.091C33.7359 16.0917 33.7486 16.0925 33.7616 16.0935C33.7741 16.0944 33.7867 16.0954 33.7994 16.0966C33.8121 16.0978 33.8248 16.099 33.8372 16.1004C33.8502 16.1018 33.8629 16.1033 33.8749 16.105C33.8885 16.1068 33.9012 16.1086 33.9128 16.1106C33.9211 16.112 33.9288 16.1134 33.9356 16.1149L33.9506 16.1182C33.9632 16.1211 33.9758 16.1243 33.9883 16.1278C34.001 16.1312 34.0136 16.1349 34.0262 16.1389C34.0389 16.1429 34.0515 16.1471 34.0639 16.1517C34.0767 16.1563 34.0893 16.1611 34.1017 16.1661C34.1145 16.1713 34.1271 16.1767 34.1396 16.1823C34.1523 16.1881 34.1649 16.1941 34.1773 16.2005C34.1901 16.2068 34.2027 16.2136 34.2151 16.2205C34.2279 16.2276 34.2405 16.2351 34.2529 16.2428C34.2657 16.2506 34.2783 16.2588 34.2907 16.2673C34.3035 16.2759 34.3161 16.2849 34.3285 16.2941C34.3413 16.3038 34.3539 16.3136 34.3663 16.3239C34.3791 16.3345 34.3917 16.3455 34.4041 16.3567C34.417 16.3685 34.4296 16.3806 34.4419 16.393C34.4549 16.4061 34.4675 16.4196 34.4797 16.4335C34.4927 16.4481 34.5053 16.4632 34.5175 16.4787C34.5307 16.4954 34.5433 16.5126 34.5553 16.5302C34.5685 16.5494 34.5811 16.5692 34.5931 16.5895C34.6066 16.6123 34.6192 16.6359 34.6309 16.6601C34.6448 16.6887 34.6575 16.7183 34.6687 16.7486C34.6839 16.7894 34.6965 16.8317 34.7065 16.8754C34.7238 16.9511 34.7331 17.0308 34.7331 17.114C34.7331 17.1976 34.7238 17.2777 34.7065 17.3536C34.6965 17.3974 34.6839 17.4398 34.6687 17.4807C34.6575 17.5111 34.6448 17.5407 34.6309 17.5695C34.6192 17.5936 34.6066 17.6172 34.5931 17.6401C34.5811 17.6605 34.5685 17.6802 34.5553 17.6995C34.5433 17.7171 34.5306 17.7342 34.5175 17.7509C34.5053 17.7664 34.4927 17.7815 34.4797 17.7962C34.4675 17.81 34.4549 17.8236 34.4419 17.8366C34.4296 17.849 34.417 17.861 34.4041 17.8728C34.3917 17.8841 34.3791 17.8949 34.3663 17.9055C34.3539 17.9157 34.3413 17.9256 34.3285 17.9352C34.3161 17.9444 34.3035 17.9533 34.2907 17.962C34.2783 17.9704 34.2657 17.9785 34.2529 17.9864C34.2405 17.994 34.2279 18.0014 34.2151 18.0085C34.2027 18.0154 34.1901 18.0221 34.1773 18.0284C34.1649 18.0347 34.1523 18.0407 34.1396 18.0464C34.1271 18.052 34.1145 18.0574 34.1017 18.0625C34.0893 18.0675 34.0767 18.0723 34.0639 18.0769C34.0515 18.0813 34.0389 18.0855 34.0262 18.0894C34.0136 18.0934 34.001 18.097 33.9883 18.1004C33.9758 18.1038 33.9632 18.1069 33.9506 18.1098L33.9356 18.1131C33.9288 18.1147 33.9211 18.1162 33.9128 18.1177C33.9012 18.1197 33.8885 18.1216 33.8749 18.1235C33.8629 18.1251 33.8502 18.1267 33.8372 18.128C33.8248 18.1294 33.8121 18.1307 33.7994 18.1318C33.7867 18.1329 33.7741 18.134 33.7616 18.1349C33.7486 18.1357 33.7359 18.1365 33.7238 18.1372C33.7104 18.1379 33.6977 18.1384 33.686 18.1386L33.6657 18.1389H33.6482H33.6104H33.5726H33.5348H33.497H33.4592H33.4214H33.3836H33.3458H33.308H33.2702H33.2324H33.1946H33.1568H33.119H33.0812H33.0435H33.0057H32.9679H32.9301H32.8923H32.8545H32.8167H32.7789H32.7411H32.7033H32.6655H32.6277H32.59H32.5521H32.5144H32.4765H32.4387H32.401H32.3631H32.3254H32.2876H32.2497H32.212H32.1742H32.1364H32.0986H32.0608H32.023H31.9852H31.9474H31.9096H31.8718H31.834H31.7962H31.7584H31.7206H31.6828H31.645H31.6072H31.5694H31.5316H31.4938H31.456H31.4182H31.3987V16.0893ZM34.4421 13.7697C34.4572 13.8385 34.4654 13.9113 34.4654 13.9881C34.4654 14.0647 34.4572 14.1375 34.4421 14.2063C34.4323 14.2504 34.4196 14.2928 34.4043 14.3336C34.393 14.3633 34.3804 14.392 34.3665 14.4198C34.3547 14.4431 34.3421 14.4656 34.3287 14.4875C34.3167 14.5069 34.3041 14.5257 34.2909 14.5438C34.2787 14.5604 34.2661 14.5765 34.2531 14.5922C34.2409 14.6067 34.2284 14.6208 34.2153 14.6345C34.203 14.6474 34.1905 14.6598 34.1775 14.6719C34.1652 14.6834 34.1526 14.6946 34.1397 14.7053C34.1273 14.7157 34.1147 14.7256 34.1019 14.7353C34.0895 14.7447 34.0769 14.7536 34.0641 14.7623C34.0517 14.7707 34.039 14.7788 34.0263 14.7866C34.0138 14.7942 34.0012 14.8015 33.9885 14.8085C33.976 14.8154 33.9634 14.8219 33.9507 14.8282C33.9382 14.8344 33.9256 14.8402 33.9129 14.8459C33.9004 14.8513 33.8878 14.8566 33.8751 14.8615C33.8626 14.8664 33.8501 14.8711 33.8374 14.8755C33.8249 14.8797 33.8123 14.8838 33.7996 14.8876C33.7871 14.8914 33.7745 14.8949 33.7618 14.8982C33.7493 14.9014 33.7367 14.9044 33.724 14.9072C33.7115 14.9099 33.6989 14.9123 33.6862 14.9145L33.6769 14.9162C33.6696 14.9174 33.6599 14.9189 33.6484 14.9203C33.6372 14.9217 33.6244 14.9231 33.6106 14.9245C33.5986 14.9258 33.5859 14.9269 33.5728 14.928C33.5604 14.9291 33.5477 14.93 33.535 14.9308C33.5223 14.9316 33.5095 14.9322 33.4972 14.9328C33.4841 14.9332 33.4713 14.9336 33.4594 14.9336L33.4534 14.9337H33.4216H33.3838H33.346H33.3082H33.2704H33.2326H33.1948H33.1571H33.1192H33.0814H33.0437H33.0058H32.9681H32.9303H32.8924H32.8547H32.8169H32.7791H32.7413H32.7035H32.6657H32.6279H32.5901H32.5523H32.5145H32.4767H32.4389H32.4011H32.3633H32.3255H32.2877H32.2499H32.2121H32.1744H32.1366H32.0987H32.061H32.0232H31.9854H31.9476H31.9098H31.872H31.8342H31.7964H31.7586H31.7208H31.683H31.6452H31.6074H31.5696H31.5318H31.494H31.4562H31.4185H31.3987V13.0424H31.4185H31.4562H31.494H31.5318H31.5696H31.6074H31.6452H31.683H31.7208H31.7586H31.7964H31.8342H31.872H31.9098H31.9476H31.9854H32.0232H32.061H32.0987H32.1366H32.1744H32.2121H32.2499H32.2877H32.3255H32.3633H32.4011H32.4389H32.4767H32.5145H32.5523H32.5901H32.6279H32.6657H32.7035H32.7413H32.7791H32.8169H32.8547H32.8924H32.9303H32.9681H33.0058H33.0437H33.0814H33.1192H33.1571H33.1948H33.2326H33.2704H33.3082H33.346H33.3838H33.4216H33.4594H33.4753L33.4972 13.0431C33.5095 13.0436 33.5223 13.0443 33.535 13.0451C33.5477 13.0459 33.5604 13.0469 33.5728 13.0478C33.5859 13.049 33.5986 13.0501 33.6106 13.0513C33.6244 13.0526 33.6372 13.0539 33.6484 13.0552C33.6599 13.0565 33.6696 13.0578 33.6769 13.0587L33.6862 13.0604C33.6989 13.0627 33.7115 13.0652 33.724 13.068C33.7367 13.0707 33.7493 13.0738 33.7618 13.077C33.7745 13.0803 33.7871 13.0839 33.7996 13.0876C33.8123 13.0915 33.8249 13.0956 33.8374 13.0999C33.8501 13.1043 33.8626 13.109 33.8751 13.1139C33.8878 13.1189 33.9004 13.1242 33.9129 13.1297C33.9256 13.1354 33.9382 13.1412 33.9507 13.1473C33.9634 13.1537 33.976 13.1603 33.9885 13.1671C34.0012 13.1741 34.0138 13.1815 34.0263 13.189C34.039 13.1969 34.0517 13.2049 34.0641 13.2133C34.0769 13.222 34.0895 13.231 34.1019 13.2404C34.1147 13.2501 34.1273 13.26 34.1397 13.2704C34.1526 13.2812 34.1652 13.2924 34.1775 13.3038C34.1905 13.316 34.203 13.3284 34.2153 13.3412C34.2284 13.355 34.2409 13.3691 34.2531 13.3836C34.2661 13.3993 34.2787 13.4154 34.2909 13.432C34.3041 13.4502 34.3167 13.4689 34.3287 13.4883C34.3421 13.5102 34.3547 13.5327 34.3665 13.556C34.3804 13.5837 34.393 13.6126 34.4043 13.6423C34.4196 13.683 34.4323 13.7255 34.4421 13.7697ZM39.1293 3.9624H39.1448V23.3869C39.1448 23.503 39.1393 23.6178 39.1293 23.7313C39.1204 23.8311 39.1078 23.9299 39.0915 24.0274C39.0805 24.093 39.0679 24.1579 39.0537 24.2224C39.0421 24.2747 39.0295 24.3268 39.0159 24.3783C39.0041 24.4228 38.9914 24.467 38.9781 24.5108C38.966 24.5504 38.9535 24.5899 38.9403 24.6291C38.9282 24.6645 38.9155 24.6997 38.9025 24.7348C38.8903 24.7673 38.8777 24.7997 38.8647 24.8319C38.8524 24.8621 38.8399 24.8921 38.8269 24.9221C38.8146 24.9503 38.8019 24.9784 38.7891 25.0064C38.7767 25.033 38.7641 25.0595 38.7513 25.0857C38.7389 25.1109 38.7263 25.136 38.7135 25.1608C38.7011 25.1846 38.6885 25.2084 38.6757 25.2319C38.6633 25.2546 38.6507 25.277 38.6379 25.2994C38.6255 25.3211 38.6129 25.3426 38.6001 25.3639C38.5877 25.3848 38.5751 25.4054 38.5622 25.426C38.5498 25.446 38.5373 25.466 38.5244 25.4858C38.5121 25.505 38.4993 25.5239 38.4866 25.5429C38.4742 25.5613 38.4616 25.5795 38.4488 25.5977C38.4364 25.6156 38.4238 25.6334 38.411 25.6511C38.3986 25.6682 38.386 25.6854 38.3732 25.7024C38.3608 25.719 38.3481 25.7354 38.3354 25.7518C38.3229 25.7679 38.3104 25.784 38.2976 25.7999C38.2851 25.8156 38.2726 25.8311 38.2598 25.8465C38.2473 25.8616 38.2347 25.8765 38.222 25.8914C38.2094 25.9061 38.197 25.9209 38.1842 25.9355C38.1717 25.9497 38.1591 25.9637 38.1464 25.9777C38.1339 25.9916 38.1213 26.0053 38.1086 26.019C38.096 26.0325 38.0835 26.046 38.0708 26.0592C38.0583 26.0723 38.0456 26.0851 38.033 26.0981C38.0204 26.1108 38.0079 26.1237 37.9952 26.1363C37.9827 26.1487 37.97 26.1607 37.9574 26.1729C37.9448 26.185 37.9323 26.1972 37.9196 26.209C37.907 26.2208 37.8945 26.2324 37.8818 26.244C37.8693 26.2554 37.8567 26.2668 37.844 26.2781C37.8315 26.2893 37.8189 26.3004 37.8062 26.3114C37.7937 26.3222 37.7811 26.3329 37.7684 26.3437C37.7559 26.3543 37.7433 26.365 37.7306 26.3754C37.7181 26.3858 37.7055 26.3959 37.6928 26.4061C37.6802 26.4162 37.6677 26.4263 37.655 26.4362C37.6425 26.446 37.6298 26.4557 37.6172 26.4653C37.6046 26.4749 37.5921 26.4845 37.5794 26.494C37.5669 26.5033 37.5542 26.5125 37.5416 26.5217C37.529 26.5308 37.5165 26.5401 37.5038 26.5491C37.4913 26.558 37.4786 26.5666 37.466 26.5753C37.4534 26.5841 37.4409 26.5928 37.4282 26.6013C37.4156 26.6098 37.403 26.618 37.3904 26.6263C37.3778 26.6346 37.3653 26.643 37.3526 26.6511C37.34 26.6591 37.3274 26.667 37.3148 26.6749C37.3022 26.6828 37.2896 26.6906 37.2769 26.6983C37.2644 26.706 37.2518 26.7135 37.2392 26.721L37.2013 26.7433C37.1888 26.7505 37.1762 26.7578 37.1636 26.7649C37.151 26.772 37.1384 26.779 37.1257 26.7859C37.1131 26.7929 37.1006 26.7998 37.0879 26.8066C37.0754 26.8133 37.0628 26.8198 37.0501 26.8264C37.0375 26.833 37.025 26.8397 37.0123 26.8462C36.9998 26.8526 36.9871 26.8587 36.9745 26.8649C36.9619 26.8711 36.9494 26.8774 36.9367 26.8835C36.9242 26.8896 36.9115 26.8954 36.8989 26.9014L36.8611 26.9189L36.8233 26.9359C36.8107 26.9414 36.7981 26.9469 36.7855 26.9522C36.7729 26.9577 36.7604 26.9632 36.7477 26.9685C36.7352 26.9738 36.7225 26.9787 36.7099 26.9839C36.6973 26.9889 36.6848 26.9942 36.6721 26.9992C36.6595 27.0041 36.647 27.0088 36.6344 27.0136C36.6218 27.0185 36.6092 27.0232 36.5966 27.0278L36.5588 27.0417C36.5462 27.0462 36.5335 27.0506 36.5209 27.0549C36.5083 27.0593 36.4958 27.0638 36.4832 27.068C36.4706 27.0723 36.4579 27.0762 36.4453 27.0802L36.4075 27.0924C36.395 27.0964 36.3824 27.1001 36.3697 27.104L36.3319 27.1152C36.3193 27.1188 36.3068 27.1225 36.2941 27.1261C36.2816 27.1296 36.2689 27.1329 36.2563 27.1363C36.2437 27.1396 36.2312 27.1432 36.2185 27.1464L36.1807 27.1558L36.1429 27.165L36.1051 27.1739C36.0926 27.1768 36.0799 27.1794 36.0673 27.1821C36.0547 27.1848 36.0421 27.1877 36.0295 27.1903L35.9917 27.1977L35.9539 27.205C35.9413 27.2073 35.9287 27.2098 35.9161 27.212C35.9035 27.2142 35.8909 27.2161 35.8783 27.2182L35.8405 27.2245L35.8027 27.2301L35.7649 27.2353C35.7522 27.2371 35.7397 27.239 35.727 27.2406C35.7145 27.2421 35.7018 27.2434 35.6893 27.2448C35.6767 27.2463 35.6641 27.2478 35.6514 27.2492C35.6388 27.2505 35.6263 27.2518 35.6137 27.253C35.6011 27.2542 35.5884 27.2553 35.5758 27.2564C35.5632 27.2574 35.5506 27.2587 35.538 27.2597C35.5255 27.2607 35.5128 27.2615 35.5002 27.2623L35.4624 27.2647C35.4498 27.2655 35.4372 27.2663 35.4247 27.2669C35.4121 27.2676 35.3995 27.2679 35.3869 27.2684L35.3491 27.2698L35.3113 27.2708C35.2987 27.2711 35.2861 27.2711 35.2735 27.2712L35.2357 27.2717L35.2279 27.2718H35.1979H35.1601H35.1223H35.0845H35.0466H35.0089H34.971H34.9332H34.8954H34.8576H34.8198H34.782H34.7442H34.7064H34.6686H34.6308H34.593H34.5552H34.5174H34.4796H34.4418H34.404H34.3662H34.3284H34.2906H34.2527H34.215H34.1772H34.1394H34.1016H34.0638H34.026H33.9882H33.9504H33.9126H33.8748H33.837H33.7992H33.7614H33.7236H33.6858H33.648H33.6102H33.5723H33.5346H33.4967H33.459H33.4211H33.3833H33.3455H33.3077H33.2699H33.2321H33.1943H33.1565H33.1187H33.0809H33.0431H33.0053H32.9675H32.9297H32.8919H32.8541H32.8163H32.7785H32.7407H32.7029H32.6651H32.6273H32.5895H32.5517H32.5139H32.4761H32.4383H32.4005H32.3627H32.3249H32.2871H32.2493H32.2115H32.1737H32.1359H32.098H32.0603H32.0224H31.9847H31.9468H31.9091H31.8712H31.8334H31.7956H31.7578H31.72H31.6822H31.6444H31.6066H31.5688H31.531H31.4932H31.4554H31.4176H31.3799H31.3421H31.3043H31.2665H31.2286H31.1908H31.153H31.1152H31.0774H31.0396H31.0018H30.964H30.9262H30.8884H30.8506H30.8128H30.775H30.7372H30.6994H30.6616H30.6238H30.586H30.5481H30.5104H30.4725H30.4348H30.3969H30.3591H30.3213H30.2835H30.2457H30.2079H30.1702H30.1324H30.0946H30.0568H30.019H29.9812H29.9434H29.9056H29.8678H29.83H29.7922H29.7544H29.7165H29.6787H29.6409H29.6031H29.5653H29.4838V19.3518H29.5653H29.6031H29.6409H29.6787H29.7165H29.7544H29.7922H29.83H29.8678H29.9056H29.9434H29.9812H30.019H30.0568H30.0946H30.1324H30.1702H30.2079H30.2457H30.2835H30.3213H30.3591H30.3969H30.4348H30.4725H30.5104H30.5481H30.586H30.6238H30.6616H30.6994H30.7372H30.775H30.8128H30.8506H30.8884H30.9262H30.964H31.0018H31.0396H31.0774H31.1152H31.153H31.1908H31.2286H31.2665H31.3043H31.3421H31.3799H31.4176H31.4554H31.4932H31.531H31.5688H31.6066H31.6444H31.6822H31.72H31.7578H31.7956H31.8334H31.8712H31.9091H31.9468H31.9847H32.0224H32.0603H32.098H32.1359H32.1737H32.2115H32.2493H32.2871H32.3249H32.3627H32.4005H32.4383H32.4761H32.5139H32.5517H32.5895H32.6273H32.6651H32.7029H32.7407H32.7785H32.8163H32.8541H32.8919H32.9297H32.9675H33.0053H33.0431H33.0809H33.1187H33.1565H33.1943H33.2321H33.2699H33.3077H33.3455H33.3833H33.4211H33.459H33.4967H33.5346H33.5723H33.6102H33.648H33.6858H33.7236H33.7614H33.7992H33.837H33.8748H33.9126H33.9504H33.9882H34.026H34.0638H34.1016H34.1394H34.1772H34.215H34.2527H34.2906H34.3284H34.3662H34.404H34.4418H34.4796H34.5174H34.5552H34.593H34.6308H34.6686H34.7064H34.7442H34.782H34.8198H34.8576H34.8954H34.9332H34.971H35.0089H35.0466H35.0845H35.1223H35.1601H35.1979H35.2357H35.2735H35.3113H35.3491H35.3869H35.4247H35.4624H35.5002H35.538H35.5581L35.5758 19.3516L35.6137 19.3513L35.6514 19.3505C35.6641 19.3502 35.6767 19.35 35.6893 19.3496C35.7019 19.3491 35.7144 19.3486 35.727 19.348L35.7649 19.3462L35.8027 19.344L35.8405 19.3414L35.8783 19.3385L35.9161 19.3351C35.9287 19.3339 35.9413 19.3328 35.9539 19.3314C35.9665 19.3301 35.9791 19.3286 35.9917 19.3271L36.0295 19.3226C36.0421 19.321 36.0547 19.3194 36.0673 19.3177C36.08 19.3159 36.0925 19.314 36.1051 19.3121C36.1178 19.3103 36.1304 19.3084 36.1429 19.3064L36.1807 19.3001L36.2185 19.2933C36.2311 19.2909 36.2438 19.2887 36.2563 19.2863C36.269 19.2838 36.2816 19.2811 36.2941 19.2785L36.3319 19.2704C36.3446 19.2676 36.3572 19.2648 36.3697 19.2619C36.3824 19.2589 36.395 19.2558 36.4075 19.2527C36.4202 19.2495 36.4328 19.2464 36.4453 19.2431C36.458 19.2398 36.4706 19.2365 36.4832 19.2331C36.4958 19.2296 36.5084 19.226 36.5209 19.2223C36.5336 19.2187 36.5462 19.215 36.5588 19.2113L36.5966 19.1995C36.6092 19.1954 36.6218 19.1913 36.6344 19.1871C36.647 19.1829 36.6596 19.1787 36.6721 19.1743C36.6848 19.1698 36.6974 19.1654 36.7099 19.1609C36.7226 19.1563 36.7351 19.1514 36.7477 19.1467C36.7604 19.1418 36.773 19.1369 36.7855 19.1319C36.7982 19.1267 36.8108 19.1218 36.8233 19.1166C36.836 19.1113 36.8486 19.1058 36.8611 19.1003C36.8738 19.0948 36.8864 19.0892 36.8989 19.0835C36.9116 19.0777 36.9242 19.0719 36.9367 19.0659C36.9494 19.0599 36.962 19.0539 36.9745 19.0477C36.9873 19.0414 36.9998 19.035 37.0123 19.0285C37.025 19.0219 37.0376 19.0152 37.0501 19.0084C37.0629 19.0016 37.0755 18.9946 37.0879 18.9876C37.1007 18.9804 37.1133 18.9732 37.1257 18.9658C37.1384 18.9584 37.1511 18.9508 37.1636 18.9431C37.1763 18.9353 37.1889 18.9273 37.2013 18.9193C37.2141 18.911 37.2267 18.9028 37.2392 18.8943C37.2519 18.8858 37.2645 18.8771 37.2769 18.8683C37.2897 18.8593 37.3023 18.8502 37.3148 18.8411C37.3276 18.8317 37.3402 18.8221 37.3526 18.8125C37.3653 18.8026 37.378 18.7927 37.3904 18.7826C37.4032 18.7722 37.4158 18.7618 37.4282 18.7512C37.441 18.7403 37.4536 18.7292 37.466 18.718C37.4788 18.7066 37.4914 18.6949 37.5038 18.6832C37.5165 18.6711 37.5291 18.6588 37.5416 18.6464C37.5544 18.6334 37.567 18.6205 37.5794 18.6073C37.5922 18.5937 37.6048 18.5798 37.6172 18.566C37.63 18.5514 37.6426 18.5367 37.655 18.5218C37.6679 18.5063 37.6805 18.4906 37.6928 18.4747C37.7057 18.4581 37.7184 18.4413 37.7306 18.4242C37.7436 18.4062 37.7561 18.3877 37.7684 18.3691C37.7814 18.3494 37.794 18.3295 37.8062 18.3092C37.8193 18.2876 37.8319 18.2655 37.844 18.2432C37.8571 18.219 37.8698 18.1944 37.8818 18.1694C37.8952 18.1415 37.9078 18.1132 37.9196 18.0845C37.9332 18.0516 37.9458 18.0182 37.9574 17.9841C37.9717 17.9422 37.9842 17.8996 37.9952 17.8561C38.0113 17.7925 38.024 17.7273 38.033 17.6605C38.044 17.5794 38.0497 17.4961 38.0497 17.4104C38.0497 17.327 38.044 17.2461 38.033 17.1674C38.024 17.1027 38.0113 17.0397 37.9952 16.9784C37.9842 16.9367 37.9716 16.8957 37.9574 16.8555C37.9458 16.8225 37.9332 16.79 37.9196 16.7581C37.9078 16.7305 37.8952 16.7033 37.8818 16.6765C37.8698 16.6523 37.8572 16.6285 37.844 16.6051C37.8319 16.5835 37.8193 16.5623 37.8062 16.5412C37.7941 16.5218 37.7814 16.5026 37.7684 16.4836C37.7561 16.4657 37.7436 16.4479 37.7306 16.4305C37.7184 16.414 37.7057 16.3978 37.6928 16.3818C37.6805 16.3664 37.6679 16.3513 37.655 16.3364C37.6426 16.322 37.63 16.3077 37.6172 16.2937C37.6048 16.2803 37.5922 16.2669 37.5794 16.2538C37.567 16.2411 37.5544 16.2286 37.5416 16.2162C37.5291 16.2042 37.5165 16.1924 37.5038 16.1807C37.4914 16.1693 37.4788 16.1582 37.466 16.1471C37.4536 16.1363 37.441 16.1256 37.4282 16.1152C37.4158 16.1049 37.4032 16.0948 37.3904 16.0848C37.3779 16.075 37.3653 16.0653 37.3526 16.0558C37.3401 16.0465 37.3275 16.0373 37.3148 16.0282C37.3023 16.0194 37.2897 16.0105 37.2769 16.0019C37.2645 15.9934 37.2519 15.9849 37.2392 15.9767C37.2267 15.9685 37.2141 15.9605 37.2013 15.9525C37.1889 15.9448 37.1763 15.9371 37.1636 15.9295C37.1511 15.9221 37.1385 15.9147 37.1257 15.9075C37.1133 15.9003 37.1007 15.8934 37.0879 15.8864C37.0755 15.8796 37.0629 15.8728 37.0501 15.8662C37.0376 15.8597 37.025 15.8532 37.0123 15.8468C36.9998 15.8406 36.9872 15.8343 36.9745 15.8282C36.962 15.8221 36.9494 15.8162 36.9367 15.8103C36.9242 15.8044 36.9116 15.7988 36.8989 15.7933C36.8864 15.7878 36.8738 15.7823 36.8611 15.7769C36.8486 15.7716 36.836 15.7664 36.8233 15.7612C36.8107 15.7561 36.7982 15.751 36.7855 15.7461C36.773 15.7412 36.7604 15.7364 36.7477 15.7317C36.7352 15.727 36.7225 15.7225 36.7099 15.7179C36.6974 15.7135 36.6848 15.7091 36.6721 15.7048C36.6595 15.7005 36.647 15.6963 36.6344 15.6921C36.6218 15.688 36.6092 15.684 36.5966 15.68C36.584 15.6761 36.5714 15.6723 36.5588 15.6686L36.5209 15.6575C36.5084 15.654 36.4958 15.6504 36.4832 15.647C36.4706 15.6436 36.458 15.6403 36.4453 15.6371C36.4328 15.6338 36.4202 15.6308 36.4075 15.6277C36.395 15.6246 36.3824 15.6216 36.3697 15.6186C36.3572 15.6157 36.3446 15.6129 36.3319 15.6101C36.3194 15.6074 36.3068 15.6047 36.2941 15.6021C36.2816 15.5995 36.269 15.5968 36.2563 15.5944L36.2185 15.5872L36.1807 15.5805C36.1682 15.5784 36.1556 15.5762 36.1429 15.5741L36.1051 15.5683C36.0926 15.5663 36.0799 15.5646 36.0673 15.5628L36.0295 15.5578L35.9917 15.553L35.9539 15.5488L35.9161 15.5448L35.8783 15.5413L35.8405 15.5382L35.8056 15.5355L35.8055 15.4906L35.8405 15.4852L35.8783 15.479C35.8909 15.4769 35.9036 15.4748 35.9161 15.4725L35.9539 15.4652C35.9666 15.4627 35.9792 15.4602 35.9917 15.4575L36.0295 15.4494C36.0421 15.4465 36.0548 15.4437 36.0673 15.4408C36.08 15.4377 36.0926 15.4345 36.1051 15.4314C36.1178 15.4282 36.1304 15.4248 36.1429 15.4214C36.1556 15.418 36.1682 15.4145 36.1807 15.411C36.1934 15.4074 36.206 15.4037 36.2185 15.3999C36.2312 15.3961 36.2439 15.3922 36.2563 15.3883C36.269 15.3842 36.2816 15.3801 36.2941 15.3758C36.3068 15.3716 36.3194 15.3672 36.3319 15.3628C36.3446 15.3583 36.3572 15.3538 36.3697 15.3491C36.3824 15.3444 36.395 15.3396 36.4075 15.3347C36.4202 15.3298 36.4328 15.3247 36.4453 15.3196C36.458 15.3144 36.4706 15.3091 36.4832 15.3037C36.4958 15.2982 36.5084 15.2926 36.5209 15.2869C36.5336 15.2811 36.5462 15.2753 36.5588 15.2693C36.5714 15.2632 36.584 15.2571 36.5966 15.2508C36.6092 15.2445 36.6218 15.238 36.6344 15.2314C36.647 15.2247 36.6597 15.2179 36.6721 15.2111C36.6848 15.204 36.6974 15.1969 36.7099 15.1897C36.7226 15.1823 36.7353 15.1748 36.7477 15.1673C36.7605 15.1596 36.773 15.1517 36.7855 15.1437C36.7983 15.1356 36.8109 15.1273 36.8233 15.1189C36.8361 15.1104 36.8487 15.1018 36.8611 15.0929C36.8739 15.084 36.8865 15.0748 36.8989 15.0656C36.9117 15.0561 36.9243 15.0466 36.9367 15.0368C36.9495 15.0268 36.9622 15.0167 36.9745 15.0065C36.9873 14.9959 36.9999 14.9852 37.0123 14.9744C37.0252 14.9632 37.0378 14.9518 37.0501 14.9404C37.063 14.9285 37.0756 14.9166 37.0879 14.9044C37.1008 14.8918 37.1134 14.8792 37.1257 14.8663C37.1386 14.8529 37.1512 14.8394 37.1636 14.8256C37.1764 14.8113 37.189 14.7968 37.2013 14.7821C37.2142 14.7668 37.2269 14.7513 37.2392 14.7356C37.2521 14.7191 37.2647 14.7023 37.2769 14.6853C37.2899 14.6673 37.3025 14.6491 37.3148 14.6307C37.3278 14.611 37.3404 14.5912 37.3526 14.5711C37.3657 14.5493 37.3783 14.5273 37.3904 14.505C37.4036 14.4805 37.4162 14.4557 37.4282 14.4306C37.4416 14.4024 37.4542 14.3737 37.466 14.3448C37.4797 14.3111 37.4923 14.277 37.5038 14.2424C37.5182 14.199 37.5308 14.1547 37.5416 14.11C37.559 14.0374 37.5716 13.9633 37.5794 13.8879C37.5856 13.8284 37.5887 13.7681 37.5887 13.7073C37.5887 13.6429 37.5855 13.5802 37.5794 13.5191C37.5716 13.441 37.5589 13.3655 37.5416 13.2927C37.5308 13.2472 37.5182 13.2027 37.5038 13.1593C37.4922 13.1246 37.4796 13.0906 37.466 13.0572C37.4542 13.0284 37.4416 13.0002 37.4282 12.9725C37.4162 12.9478 37.4036 12.9234 37.3904 12.8995C37.3783 12.8775 37.3657 12.856 37.3526 12.8348C37.3404 12.815 37.3278 12.7955 37.3148 12.7764C37.3025 12.7584 37.2899 12.7408 37.2769 12.7234C37.2647 12.7069 37.2521 12.6907 37.2392 12.6747C37.2268 12.6594 37.2143 12.6443 37.2013 12.6294C37.189 12.6152 37.1764 12.6013 37.1636 12.5876C37.1512 12.5744 37.1386 12.5613 37.1257 12.5484C37.1134 12.5359 37.1008 12.5237 37.0879 12.5116C37.0756 12.4999 37.063 12.4883 37.0501 12.4769C37.0378 12.4659 37.0251 12.455 37.0123 12.4443C36.9999 12.4338 36.9873 12.4235 36.9745 12.4133C36.9621 12.4034 36.9495 12.3936 36.9367 12.384C36.9243 12.3747 36.9117 12.3655 36.8989 12.3563C36.8865 12.3474 36.8739 12.3387 36.8611 12.33C36.8486 12.3215 36.8361 12.3132 36.8233 12.305C36.8109 12.2968 36.7982 12.2889 36.7855 12.281C36.773 12.2734 36.7604 12.2659 36.7477 12.2584C36.7352 12.251 36.7226 12.2439 36.7099 12.2367C36.6974 12.2298 36.6848 12.2229 36.6721 12.216C36.6596 12.2094 36.647 12.2029 36.6344 12.1964C36.6218 12.19 36.6092 12.1837 36.5966 12.1775C36.584 12.1714 36.5714 12.1654 36.5588 12.1595C36.5462 12.1537 36.5336 12.1479 36.5209 12.1424C36.5084 12.1368 36.4958 12.1315 36.4832 12.1261C36.4706 12.1208 36.458 12.1156 36.4453 12.1105C36.4328 12.1054 36.4202 12.1005 36.4075 12.0956C36.395 12.0908 36.3824 12.086 36.3697 12.0814C36.3572 12.0767 36.3446 12.0722 36.3319 12.0678C36.3194 12.0634 36.3068 12.0591 36.2941 12.0549C36.2816 12.0507 36.269 12.0467 36.2563 12.0427C36.2438 12.0387 36.2312 12.0347 36.2185 12.031C36.206 12.0272 36.1934 12.0234 36.1807 12.0197C36.1682 12.0161 36.1556 12.0127 36.1429 12.0093C36.1304 12.0059 36.1178 12.0026 36.1051 11.9994L36.0673 11.9898C36.0547 11.9867 36.0422 11.9837 36.0295 11.9807C36.017 11.9779 36.0044 11.975 35.9917 11.9723L35.9539 11.9644C35.9413 11.9618 35.9288 11.9592 35.9161 11.9567C35.9036 11.9543 35.8909 11.9521 35.8783 11.9498L35.8405 11.9432C35.8279 11.9411 35.8154 11.9389 35.8027 11.9369L35.7649 11.9312L35.727 11.926L35.6893 11.921L35.6514 11.9165L35.6137 11.9125L35.5758 11.9088L35.538 11.9055L35.5002 11.9026L35.4624 11.8999L35.4247 11.8978L35.4096 11.8969L35.3869 11.8955L35.3491 11.8933L35.3113 11.8913L35.2735 11.8893L35.2357 11.8875L35.1979 11.8859L35.1601 11.8845L35.1223 11.8833L35.0845 11.8825L35.0466 11.882L35.0258 11.882H35.0089H34.971H34.9332H34.8954H34.8576H34.8198H34.782H34.7442H34.7064H34.6686H34.6308H34.593H34.5552H34.5174H34.4796H34.4418H34.404H34.3662H34.3284H34.2906H34.2527H34.215H34.1772H34.1394H34.1016H34.0638H34.026H33.9882H33.9504H33.9126H33.8748H33.837H33.7992H33.7614H33.7236H33.6858H33.648H33.6102H33.5723H33.5346H33.4967H33.459H33.4211H33.3833H33.3455H33.3077H33.2699H33.2321H33.1943H33.1565H33.1187H33.0809H33.0431H33.0053H32.9675H32.9297H32.8919H32.8541H32.8163H32.7785H32.7407H32.7029H32.6651H32.6273H32.5895H32.5517H32.5139H32.4761H32.4383H32.4005H32.3627H32.3249H32.2871H32.2493H32.2115H32.1737H32.1359H32.098H32.0603H32.0224H31.9847H31.9468H31.9091H31.8712H31.8334H31.7956H31.7578H31.72H31.6822H31.6444H31.6066H31.5688H31.531H31.4932H31.4554H31.4176H31.3799H31.3421H31.3043H31.2665H31.2286H31.1908H31.153H31.1152H31.0774H31.0396H31.0018H30.964H30.9262H30.8884H30.8506H30.8128H30.775H30.7372H30.6994H30.6616H30.6238H30.586H30.5481H30.5104H30.4725H30.4348H30.3969H30.3591H30.3213H30.2835H30.2457H30.2079H30.1702H30.1324H30.0946H30.0568H30.019H29.9812H29.9434H29.9056H29.8678H29.83H29.7922H29.7544H29.7165H29.6787H29.6409H29.6031H29.5653H29.4838V7.84763C29.4838 7.57622 29.5119 7.31137 29.5653 7.05566C29.5768 7.0009 29.5894 6.94661 29.6031 6.89274C29.6149 6.84666 29.6276 6.80091 29.6409 6.75551C29.6529 6.71495 29.6655 6.67467 29.6787 6.63467C29.6908 6.59813 29.7033 6.56177 29.7165 6.52571C29.7287 6.49227 29.7412 6.45902 29.7544 6.42601C29.7666 6.39518 29.7792 6.36451 29.7922 6.33409C29.8044 6.30536 29.817 6.27677 29.83 6.2484C29.8422 6.22145 29.8548 6.1947 29.8678 6.16809C29.88 6.1427 29.8927 6.1175 29.9056 6.09242C29.9178 6.0683 29.9305 6.04437 29.9434 6.02053C29.9557 5.99757 29.9683 5.97475 29.9812 5.95207C29.9935 5.93006 30.0061 5.90825 30.019 5.88653C30.0314 5.86545 30.0439 5.84448 30.0568 5.82368C30.0692 5.80352 30.0818 5.7835 30.0946 5.76357C30.1069 5.74427 30.1196 5.72517 30.1324 5.70612C30.1448 5.68747 30.1574 5.66888 30.1702 5.65045C30.1827 5.6324 30.1951 5.61434 30.2079 5.5965C30.2204 5.57922 30.2331 5.56216 30.2457 5.5451C30.2582 5.52831 30.2709 5.51166 30.2835 5.4951C30.2961 5.47877 30.3086 5.46239 30.3213 5.4463C30.3338 5.43064 30.3465 5.41522 30.3591 5.39974C30.3717 5.38449 30.3843 5.36935 30.3969 5.3543C30.4095 5.33945 30.4221 5.3246 30.4348 5.30993C30.4473 5.29563 30.4599 5.28158 30.4725 5.26747C30.4851 5.25349 30.4977 5.23947 30.5104 5.22567C30.5229 5.21216 30.5355 5.19876 30.5481 5.1854C30.5607 5.17222 30.5733 5.15913 30.586 5.14612C30.5985 5.13328 30.611 5.12045 30.6238 5.10777C30.6362 5.0953 30.6489 5.08302 30.6616 5.07075C30.6741 5.05853 30.6866 5.0462 30.6994 5.03417C30.7118 5.02239 30.7245 5.01089 30.7372 4.99927C30.7497 4.98771 30.7623 4.97611 30.775 4.96471C30.7875 4.95349 30.8002 4.94249 30.8128 4.93145C30.8253 4.92048 30.8379 4.90951 30.8506 4.8987C30.8631 4.88804 30.8757 4.87753 30.8884 4.86703C30.901 4.85662 30.9135 4.84624 30.9262 4.83598C30.9387 4.82582 30.9513 4.81578 30.964 4.80581L31.0018 4.77631L31.0396 4.7476C31.0522 4.73818 31.0648 4.72882 31.0774 4.71956C31.09 4.7104 31.1025 4.70126 31.1152 4.69221L31.153 4.66558C31.1656 4.65684 31.1782 4.64818 31.1908 4.6396L31.2286 4.61421L31.2665 4.5895C31.279 4.58139 31.2916 4.57331 31.3043 4.56535L31.3421 4.54192C31.3547 4.53418 31.3672 4.52644 31.3799 4.51886C31.3924 4.51134 31.405 4.50404 31.4176 4.49667C31.4302 4.4893 31.4428 4.48187 31.4554 4.47467C31.4679 4.46755 31.4806 4.46068 31.4932 4.45369C31.5058 4.4467 31.5184 4.43958 31.531 4.43274C31.5436 4.426 31.5562 4.41947 31.5688 4.41285C31.5814 4.40623 31.594 4.39958 31.6066 4.39308C31.6192 4.38666 31.6318 4.3804 31.6444 4.37413C31.657 4.36788 31.6696 4.3616 31.6822 4.35548L31.72 4.33737C31.7326 4.33143 31.7452 4.32565 31.7578 4.31983C31.7704 4.31405 31.783 4.30818 31.7956 4.30252C31.8082 4.29693 31.8208 4.29158 31.8334 4.28612C31.846 4.28064 31.8586 4.27508 31.8712 4.26974C31.8837 4.26445 31.8965 4.25942 31.9091 4.25426C31.9216 4.24913 31.9342 4.24394 31.9468 4.23894L31.9847 4.22417L32.0224 4.20991C32.0351 4.20519 32.0476 4.2004 32.0603 4.19583C32.0728 4.19129 32.0855 4.18704 32.098 4.18263C32.1107 4.17821 32.1232 4.1737 32.1359 4.16942C32.1484 4.16516 32.1611 4.16115 32.1737 4.15702L32.2115 4.14486C32.2241 4.14089 32.2366 4.13688 32.2493 4.13302C32.2618 4.1292 32.2745 4.12559 32.2871 4.12189C32.2997 4.11817 32.3122 4.11432 32.3249 4.11074C32.3374 4.1072 32.3501 4.1039 32.3627 4.10048C32.3753 4.09706 32.3878 4.09361 32.4005 4.09032L32.4383 4.08063C32.4509 4.07748 32.4635 4.0745 32.4761 4.07149C32.4887 4.06847 32.5012 4.06524 32.5139 4.06235C32.5264 4.05949 32.5391 4.05688 32.5517 4.05411L32.5895 4.04594L32.6273 4.0382C32.6399 4.03572 32.6525 4.03338 32.6651 4.03102C32.6777 4.02863 32.6903 4.02608 32.7029 4.02381C32.7155 4.02155 32.7281 4.01962 32.7407 4.0175L32.7785 4.01129C32.7911 4.0093 32.8037 4.00725 32.8163 4.00538C32.8289 4.00352 32.8415 4.00187 32.8541 4.00013C32.8667 3.99839 32.8793 3.99649 32.8919 3.99488C32.9045 3.99327 32.9171 3.99183 32.9297 3.99035L32.9675 3.98605C32.9801 3.98469 32.9927 3.98316 33.0053 3.98192C33.0179 3.98068 33.0305 3.97971 33.0431 3.9786L33.0809 3.97527L33.1187 3.97244C33.1313 3.97154 33.1439 3.97082 33.1565 3.97005C33.1691 3.9693 33.1816 3.96834 33.1943 3.96768C33.2069 3.96703 33.2195 3.96666 33.2321 3.96613L33.2699 3.96473C33.2826 3.96433 33.2951 3.9638 33.3077 3.96352C33.3203 3.96324 33.3329 3.96321 33.3455 3.96302C33.3581 3.96284 33.3707 3.96262 33.3833 3.96255L33.3929 3.96243H33.4211H33.459H33.4967H33.5346H33.5723H33.6102H33.648H33.6858H33.7236H33.7614H33.7992H33.837H33.8748H33.9126H33.9504H33.9882H34.026H34.0638H34.1016H34.1394H34.1772H34.215H34.2527H34.2906H34.3284H34.3662H34.404H34.4418H34.4796H34.5174H34.5552H34.593H34.6308H34.6686H34.7064H34.7442H34.782H34.8198H34.8576H34.8954H34.9332H34.971H35.0089H35.0466H35.0845H35.1223H35.1601H35.1979H35.2357H35.2735H35.3113H35.3491H35.3869H35.4247H35.4624H35.5002H35.538H35.5758H35.6137H35.6514H35.6893H35.727H35.7649H35.8027H35.8405H35.8783H35.9161H35.9539H35.9917H36.0295H36.0673H36.1051H36.1429H36.1807H36.2185H36.2563H36.2941H36.3319H36.3697H36.4075H36.4453H36.4832H36.5209H36.5588H36.5966H36.6344H36.6721H36.7099H36.7477H36.7855H36.8233H36.8611H36.8989H36.9367H36.9745H37.0123H37.0501H37.0879H37.1257H37.1636H37.2013H37.2392H37.2769H37.3148H37.3526H37.3904H37.4282H37.466H37.5038H37.5416H37.5794H37.6172H37.655H37.6928H37.7306H37.7684H37.8062H37.844H37.8818H37.9196H37.9574H37.9952H38.033H38.0708H38.1086H38.1464H38.1842H38.222H38.2598H38.2976H38.3354H38.3732H38.411H38.4488H38.4866H38.5244H38.5622H38.6001H38.6379H38.6757H38.7135H38.7513H38.7891H38.8269H38.8647H38.9025H38.9403H38.9781H39.0159H39.0537H39.0915L39.1293 3.9624Z" fill="#54B230"/>
<path fill-rule="evenodd" clip-rule="evenodd" d="M7.8136 17.442V7.8476C7.8136 7.57697 7.84154 7.3128 7.89465 7.05777C7.90606 7.00302 7.91871 6.94875 7.93241 6.89486C7.94413 6.84871 7.95675 6.80293 7.97013 6.75746C7.98207 6.71694 7.99466 6.67672 8.00785 6.63675C8.01995 6.60017 8.03244 6.56375 8.0456 6.52763C8.05779 6.49423 8.07026 6.461 8.08333 6.42804C8.09552 6.3972 8.10811 6.36647 8.12108 6.33601C8.13333 6.30729 8.14589 6.27876 8.15881 6.25042C8.17108 6.22348 8.18368 6.19674 8.19652 6.17014C8.20881 6.14473 8.22147 6.11949 8.23428 6.09438C8.24659 6.07026 8.25919 6.04633 8.27201 6.02252C8.28435 5.99955 8.29694 5.97675 8.30973 5.95406C8.3221 5.93209 8.33467 5.91023 8.34748 5.88854C8.35989 5.86748 8.37238 5.84647 8.3852 5.82564C8.39761 5.80551 8.41021 5.78552 8.42296 5.76563C8.4353 5.74636 8.44799 5.72721 8.46068 5.70816C8.47312 5.68952 8.48565 5.67093 8.4984 5.6525C8.51094 5.63442 8.52334 5.61636 8.53615 5.59849C8.54853 5.58125 8.56122 5.56421 8.57388 5.54715C8.58635 5.53037 8.59891 5.51371 8.61163 5.49714C8.62413 5.48086 8.63657 5.46445 8.64933 5.44835C8.66177 5.43272 8.67445 5.41733 8.68705 5.40188C8.69957 5.38663 8.71209 5.37143 8.72485 5.35636C8.73737 5.34154 8.7498 5.32674 8.76256 5.3121C8.775 5.29778 8.78768 5.2837 8.80028 5.26956C8.8128 5.25554 8.82532 5.24155 8.838 5.22776C8.85044 5.21423 8.86312 5.2009 8.87572 5.18757C8.88824 5.17437 8.90084 5.16128 8.91352 5.14826C8.92603 5.13542 8.93855 5.12259 8.95123 5.10991C8.96367 5.09745 8.97635 5.08517 8.98895 5.0729C9.00155 5.06068 9.01399 5.04837 9.02667 5.03634C9.03911 5.02457 9.05187 5.01307 9.06447 5.00144C9.07699 4.98985 9.08943 4.97822 9.10219 4.96682C9.11462 4.95563 9.1273 4.94466 9.1399 4.93363C9.1525 4.92266 9.16494 4.91166 9.17762 4.90085C9.19014 4.89018 9.20274 4.87971 9.21542 4.8692C9.22786 4.8588 9.24046 4.84839 9.25314 4.83813C9.26558 4.828 9.27826 4.81796 9.29086 4.80795C9.30337 4.79804 9.31589 4.78822 9.32857 4.77846C9.34109 4.76879 9.35369 4.75925 9.36637 4.74974C9.37889 4.74032 9.39141 4.73094 9.40409 4.72168L9.44181 4.69439C9.45433 4.68541 9.46685 4.67649 9.47952 4.66766C9.49204 4.65893 9.50464 4.65029 9.51724 4.64171C9.52976 4.63316 9.54236 4.62468 9.55496 4.61629C9.56748 4.608 9.58008 4.59982 9.59276 4.59165C9.60528 4.58354 9.6178 4.57536 9.63048 4.56737C9.643 4.55948 9.65559 4.55177 9.66819 4.544C9.68079 4.53626 9.69331 4.52844 9.70591 4.52085C9.71843 4.51336 9.73103 4.50609 9.74363 4.49872C9.75623 4.49136 9.76875 4.48386 9.78143 4.47663C9.79387 4.46951 9.80655 4.4627 9.81915 4.45571C9.83175 4.44871 9.84426 4.44163 9.85686 4.43476C9.86938 4.42799 9.88198 4.42146 9.89458 4.41484C9.90718 4.40822 9.9197 4.40157 9.9323 4.39507C9.9449 4.38864 9.9575 4.38233 9.9701 4.37602L10.0078 4.35744C10.0203 4.35131 10.0329 4.34519 10.0455 4.33923C10.0581 4.33329 10.0707 4.32754 10.0833 4.32173C10.0959 4.31592 10.1084 4.30998 10.121 4.30433C10.1335 4.2987 10.1462 4.29342 10.1588 4.28795C10.1713 4.28247 10.1839 4.27691 10.1965 4.27157C10.209 4.26629 10.2216 4.26119 10.2342 4.25603L10.2719 4.24074L10.3097 4.22588L10.3474 4.21165C10.36 4.20693 10.3725 4.20205 10.3852 4.19745C10.3977 4.19291 10.4104 4.18869 10.423 4.18427C10.4355 4.17986 10.448 4.17538 10.4607 4.17109L10.4984 4.15857L10.5361 4.14642C10.5487 4.14244 10.5612 4.13837 10.5738 4.13452C10.5863 4.13069 10.599 4.12705 10.6115 4.12335C10.6241 4.11963 10.6367 4.11583 10.6493 4.11223C10.6619 4.10866 10.6745 4.10533 10.6871 4.10188L10.7248 4.09172C10.7374 4.08843 10.7499 4.08507 10.7625 4.0819C10.775 4.07873 10.7877 4.07584 10.8002 4.0728C10.8128 4.06975 10.8253 4.06658 10.838 4.06365C10.8505 4.06077 10.8631 4.05806 10.8757 4.05529L10.9134 4.04716C10.926 4.04448 10.9386 4.04178 10.9512 4.03926C10.9637 4.03677 10.9764 4.03448 10.9889 4.03208C11.0015 4.02968 11.014 4.0272 11.0267 4.02493C11.0392 4.02266 11.0518 4.02061 11.0644 4.01847L11.1021 4.01225C11.1147 4.01026 11.1272 4.00812 11.1398 4.00622C11.1524 4.00433 11.165 4.00274 11.1776 4.00097C11.1902 3.99923 11.2027 3.99737 11.2153 3.99571L11.2531 3.99103L11.2908 3.98677C11.3034 3.98537 11.3159 3.98376 11.3285 3.98248C11.3411 3.98121 11.3537 3.98027 11.3662 3.97912L11.404 3.97583C11.4166 3.97477 11.4291 3.97375 11.4417 3.97284C11.4543 3.97194 11.4669 3.97123 11.4795 3.97045C11.4921 3.96967 11.5047 3.96877 11.5173 3.96809C11.5298 3.9674 11.5424 3.96694 11.555 3.96638L11.5927 3.96495C11.6053 3.96451 11.6178 3.96386 11.6304 3.96355C11.6429 3.96325 11.6556 3.96327 11.6681 3.96308C11.6807 3.9629 11.6933 3.96268 11.7059 3.96262L11.7436 3.9624H11.7814H11.8191H11.8568H11.8946H11.9323H11.97H12.0077H12.0455H12.0833H12.121H12.1587H12.1964H12.2341H12.2719H12.3096H12.3474H12.3851H12.4228H12.4606H12.4983H12.536H12.5738H12.6116H12.6493H12.687H12.7247H12.7625H12.8002H12.8379H12.8757H12.9135H12.9512H12.9889H13.0266H13.0643H13.102H13.1398H13.1776H13.2153H13.253H13.2907H13.3285H13.3662H13.4039H13.4417H13.4794H13.5172H13.5549H13.5926H13.6303H13.6681H13.7059H13.7436H13.7813H13.819H13.8568H13.8945H13.9322H13.97H14.0078H14.0455H14.0832H14.1209H14.1587H14.1964H14.2341H14.2719H14.3096H14.3473H14.3851H14.4228H14.4605H14.4982H14.536H14.5738H14.6115H14.6492H14.6869H14.7246H14.7624H14.8002H14.8379H14.8756H14.9134H14.9511H14.9888H15.0265H15.0643H15.1021H15.1398H15.1775H15.2153H15.253H15.2907H15.3284H15.3662H15.404H15.4417H15.4794H15.5171H15.5548H15.5925H15.6303H15.6681H15.7058H15.7435H15.7813H15.819H15.8567H15.8945H15.9322H15.9699H16.0077H16.0454H16.0831H16.1208H16.1586H16.1964H16.2341H16.2718H16.3096H16.3473H16.385H16.4227H16.4605H16.4983H16.536H16.5737H16.6114H16.6491H16.6869H16.7246H16.7624H16.8001H16.8378H16.8756H16.9133H16.951H16.9888H17.0265H17.0643H17.102H17.1397H17.1774H17.2151H17.2529H17.2907H17.3284H17.3661H17.4039H17.4416H17.4736V23.3869C17.4736 23.556 17.4627 23.7224 17.4416 23.8856C17.4315 23.9643 17.4187 24.0421 17.4039 24.1192C17.3926 24.1777 17.3801 24.2359 17.3661 24.2936C17.3544 24.3422 17.3419 24.3904 17.3284 24.4382C17.3165 24.4803 17.3039 24.5219 17.2907 24.5633C17.2786 24.6007 17.266 24.638 17.2529 24.675C17.2408 24.7092 17.2282 24.7432 17.2151 24.777C17.203 24.8085 17.1904 24.8399 17.1774 24.871C17.1652 24.9003 17.1526 24.9295 17.1397 24.9584C17.1274 24.9859 17.1148 25.0131 17.102 25.0403C17.0897 25.0663 17.0771 25.092 17.0643 25.1175C17.0519 25.142 17.0393 25.1664 17.0265 25.1907C17.0142 25.214 17.0016 25.2373 16.9888 25.2603C16.9764 25.2826 16.9639 25.3049 16.951 25.3268C16.9387 25.3481 16.9261 25.3693 16.9133 25.3903C16.901 25.4106 16.8883 25.4307 16.8756 25.4508C16.8632 25.4704 16.8506 25.4899 16.8378 25.5093C16.8254 25.5282 16.8129 25.5471 16.8001 25.5658C16.7877 25.5839 16.775 25.6019 16.7624 25.6198C16.75 25.6373 16.7373 25.6546 16.7246 25.6719C16.7121 25.6889 16.6996 25.7059 16.6869 25.7226C16.6745 25.739 16.6619 25.7553 16.6491 25.7715C16.6367 25.7873 16.6241 25.803 16.6114 25.8186C16.5989 25.8341 16.5865 25.8495 16.5737 25.8648C16.5613 25.8796 16.5486 25.8944 16.536 25.9091C16.5235 25.9235 16.5109 25.9379 16.4983 25.9522C16.4857 25.9663 16.4732 25.9805 16.4605 25.9944C16.4481 26.008 16.4353 26.0213 16.4227 26.0348C16.4102 26.0481 16.3978 26.0615 16.385 26.0746C16.3726 26.0875 16.3599 26.1003 16.3473 26.113C16.3348 26.1256 16.3223 26.1381 16.3096 26.1505C16.2971 26.1628 16.2845 26.175 16.2718 26.1871C16.2594 26.199 16.2467 26.2107 16.2341 26.2225C16.2216 26.2342 16.209 26.2459 16.1964 26.2574C16.1839 26.2686 16.1712 26.2797 16.1586 26.2908C16.146 26.3019 16.1336 26.3131 16.1208 26.324C16.1084 26.3347 16.0957 26.3451 16.0831 26.3557C16.0706 26.3662 16.0581 26.3768 16.0454 26.3872C16.033 26.3974 16.0203 26.4074 16.0077 26.4174C15.9951 26.4274 15.9826 26.4375 15.9699 26.4474C15.9574 26.457 15.9448 26.4665 15.9322 26.476C15.9197 26.4856 15.9071 26.4951 15.8945 26.5044C15.882 26.5137 15.8693 26.5227 15.8567 26.5318C15.8441 26.5408 15.8317 26.5499 15.819 26.5589C15.8065 26.5677 15.7939 26.5763 15.7813 26.5849C15.7687 26.5934 15.7562 26.6022 15.7435 26.6107C15.7311 26.619 15.7184 26.6271 15.7058 26.6353C15.6932 26.6435 15.6807 26.6519 15.6681 26.66C15.6555 26.6679 15.6429 26.6755 15.6303 26.6833C15.6177 26.6911 15.6052 26.6991 15.5925 26.7067C15.5801 26.7142 15.5674 26.7216 15.5548 26.729C15.5423 26.7364 15.5298 26.7438 15.5171 26.7511C15.5046 26.7583 15.492 26.7653 15.4794 26.7724C15.4669 26.7794 15.4543 26.7864 15.4417 26.7933C15.4292 26.8001 15.4166 26.8069 15.404 26.8136L15.3662 26.8333C15.3536 26.8398 15.341 26.8463 15.3284 26.8527C15.3159 26.859 15.3033 26.8652 15.2907 26.8714C15.2781 26.8775 15.2656 26.8838 15.253 26.8898C15.2405 26.8958 15.2278 26.9015 15.2153 26.9073C15.2027 26.9132 15.1902 26.9191 15.1775 26.9248C15.165 26.9305 15.1524 26.9359 15.1398 26.9414L15.1021 26.9578L15.0643 26.9737C15.0517 26.9789 15.0391 26.9839 15.0265 26.989C15.014 26.9941 15.0014 26.9992 14.9888 27.0042C14.9763 27.0091 14.9637 27.0136 14.9511 27.0184C14.9385 27.0231 14.926 27.0279 14.9134 27.0326C14.9008 27.0372 14.8882 27.0416 14.8756 27.0461L14.8379 27.0592L14.8002 27.0721C14.7876 27.0762 14.775 27.0802 14.7624 27.0842C14.7498 27.0883 14.7373 27.0924 14.7246 27.0964C14.7122 27.1002 14.6995 27.1038 14.6869 27.1076L14.6492 27.1187L14.6115 27.1294C14.599 27.1328 14.5864 27.1362 14.5738 27.1395C14.5612 27.1428 14.5486 27.1464 14.536 27.1496C14.5235 27.1528 14.5108 27.1557 14.4982 27.1587C14.4857 27.1618 14.4731 27.1649 14.4605 27.1679L14.4228 27.1765L14.3851 27.1847C14.3725 27.1874 14.36 27.1903 14.3473 27.1928C14.3348 27.1954 14.3222 27.1976 14.3096 27.2C14.2971 27.2024 14.2845 27.2049 14.2719 27.2071L14.2341 27.2139C14.2216 27.2161 14.209 27.218 14.1964 27.2201C14.1838 27.2221 14.1713 27.2244 14.1587 27.2263C14.1461 27.2282 14.1335 27.2298 14.1209 27.2317L14.0832 27.2369C14.0707 27.2386 14.0581 27.2403 14.0455 27.2419C14.0329 27.2434 14.0203 27.2447 14.0078 27.2461C13.9952 27.2476 13.9826 27.2491 13.97 27.2504C13.9574 27.2517 13.9448 27.2529 13.9322 27.254L13.8945 27.2574C13.8819 27.2584 13.8694 27.2597 13.8568 27.2606C13.8442 27.2616 13.8316 27.2622 13.819 27.263L13.7813 27.2654L13.7436 27.2674C13.7311 27.268 13.7184 27.2684 13.7059 27.2688C13.6933 27.2692 13.6807 27.2699 13.6681 27.2702C13.6555 27.2705 13.6429 27.2707 13.6303 27.2709L13.5926 27.2714C13.581 27.2715 13.5693 27.2718 13.5576 27.2718H13.5172H13.4794H13.4417H13.4039H13.3662H13.3285H13.2907H13.253H13.2153H13.1776H13.1398H13.102H13.0643H13.0266H12.9889H12.9512H12.9135H12.8757H12.8379H12.8002H12.7625H12.7247H12.687H12.6493H12.6116H12.5738H12.536H12.4983H12.4606H12.4228H12.3851H12.3474H12.3096H12.2719H12.2341H12.1964H12.1587H12.121H12.0833H12.0455H12.0077H11.97H11.9323H11.8946H11.8568H11.8191H11.7814H11.7436H11.7059H11.6681H11.6304H11.5927H11.555H11.5173H11.4795H11.4417H11.404H11.3662H11.3285H11.2908H11.2531H11.2153H11.1776H11.1398H11.1021H11.0644H11.0267H10.9889H10.9512H10.9134H10.8757H10.838H10.8002H10.7625H10.7248H10.6871H10.6493H10.6115H10.5738H10.5361H10.4984H10.4607H10.423H10.3852H10.3474H10.3097H10.2719H10.2342H10.1965H10.1588H10.121H10.0833H10.0455H10.0078H9.9701H9.9323H9.89458H9.85686H9.81915H9.78143H9.74363H9.70591H9.66819H9.63048H9.59276H9.55496H9.51724H9.47952H9.44181H9.40409H9.36637H9.32857H9.29086H9.25314H9.21542H9.17762H9.1399H9.10219H9.06447H9.02667H8.98895H8.95123H8.91352H8.87572H8.838H8.80028H8.76256H8.72485H8.68705H8.64933H8.61163H8.57388H8.53615H8.4984H8.46068H8.42296H8.3852H8.34748H8.30973H8.27201H8.23428H8.19652H8.15881H8.12108H8.08333H8.0456H8.00785H7.97013H7.93241H7.89465H7.8136V19.0846C7.8136 19.0846 7.84149 19.0922 7.89465 19.1055L7.93241 19.1149L7.97013 19.124L8.00785 19.133L8.0456 19.1418L8.08333 19.1505L8.12108 19.1591L8.15881 19.1676L8.19652 19.1759L8.23428 19.1841L8.27201 19.1922L8.30973 19.2002L8.34748 19.2081L8.3852 19.2159L8.42296 19.2235L8.46068 19.2312L8.4984 19.2386L8.53615 19.246L8.57388 19.2533L8.61163 19.2605L8.64933 19.2677L8.68705 19.2747L8.72485 19.2816L8.76256 19.2884L8.80028 19.2951L8.838 19.3019L8.87572 19.3084L8.91352 19.3149L8.95123 19.3213L8.98895 19.3275L9.02667 19.3338L9.06447 19.3399L9.10219 19.346L9.1399 19.3519L9.17762 19.3579L9.21542 19.3637L9.25314 19.3694L9.29086 19.375L9.32857 19.3806L9.36637 19.386L9.40409 19.3915L9.44181 19.3968L9.47952 19.4021L9.51724 19.4071L9.55496 19.4123L9.59276 19.4173L9.63048 19.4222L9.66819 19.427L9.70591 19.4317L9.74363 19.4364L9.78143 19.441L9.81915 19.4455L9.85686 19.4499L9.89458 19.4543L9.9323 19.4585L9.9701 19.4628L10.0078 19.4669L10.0455 19.4709L10.0833 19.4748L10.121 19.4787L10.1588 19.4825L10.1965 19.4861L10.2342 19.4898L10.2719 19.4933L10.3097 19.4968L10.3474 19.5002L10.3852 19.5034L10.423 19.5067L10.4607 19.5099L10.4984 19.5128L10.5361 19.5159L10.5738 19.5187L10.6115 19.5216L10.6493 19.5243L10.6871 19.527L10.7248 19.5295L10.7625 19.5319L10.8002 19.5343L10.838 19.5368L10.8757 19.5389L10.9134 19.5412L10.9512 19.5432L10.9889 19.5451L11.0267 19.547L11.0644 19.5489L11.1021 19.5506L11.1398 19.5522L11.1776 19.5538L11.2153 19.5554L11.2531 19.5567L11.2908 19.5579L11.3285 19.5592L11.3662 19.5603L11.404 19.5614L11.4417 19.5624L11.4795 19.5632L11.5173 19.564L11.555 19.5647L11.5927 19.5653L11.6304 19.5659L11.6681 19.5662L11.7059 19.5666L11.7436 19.5669L11.7814 19.567L11.8191 19.5672L11.8568 19.5671L11.8946 19.5668L11.9323 19.5666L11.97 19.5664L12.0077 19.5662L12.0455 19.5655L12.0833 19.5648L12.121 19.5641L12.1587 19.5635L12.1964 19.5625L12.2341 19.5613L12.2719 19.5602L12.3096 19.5591L12.3474 19.5578L12.3851 19.5562L12.4228 19.5545L12.4606 19.5528L12.4983 19.5512L12.536 19.5491L12.5738 19.5469L12.6116 19.5448L12.6493 19.5426L12.687 19.5401L12.7247 19.5374L12.7625 19.5347L12.8002 19.532L12.8379 19.529L12.8757 19.5258L12.9135 19.5225L12.9512 19.5193L12.9889 19.5158L13.0266 19.512L13.0643 19.5082L13.102 19.5043L13.1398 19.5002L13.1776 19.4958L13.2153 19.4914L13.253 19.487L13.2907 19.4821L13.3285 19.4771L13.3662 19.4721L13.4039 19.467C13.4167 19.4652 13.4291 19.4632 13.4417 19.4614L13.4794 19.4558L13.5172 19.4502L13.5549 19.4442C13.5676 19.4421 13.58 19.44 13.5926 19.4379L13.6303 19.4316C13.6429 19.4295 13.6557 19.4275 13.6681 19.4253C13.6808 19.423 13.6932 19.4206 13.7059 19.4184L13.7436 19.4114L13.7813 19.4044L13.819 19.397C13.8318 19.3945 13.8442 19.3919 13.8568 19.3893L13.8945 19.3816L13.9322 19.3738C13.945 19.3711 13.9574 19.3681 13.97 19.3654L14.0078 19.3569C14.0202 19.3541 14.033 19.3514 14.0455 19.3485C14.0582 19.3455 14.0706 19.3424 14.0832 19.3393L14.1209 19.3301C14.1334 19.3271 14.1463 19.3241 14.1587 19.321C14.1714 19.3177 14.1838 19.3144 14.1964 19.3111L14.2341 19.3011C14.2467 19.2978 14.2594 19.2945 14.2719 19.2911C14.2845 19.2877 14.2971 19.284 14.3096 19.2805L14.3473 19.2696C14.3599 19.266 14.3727 19.2625 14.3851 19.2588L14.4228 19.2473L14.4605 19.2356C14.473 19.2316 14.4859 19.2278 14.4982 19.2238L14.536 19.2113L14.5738 19.1987C14.5863 19.1944 14.5991 19.1903 14.6115 19.186C14.6242 19.1815 14.6366 19.1769 14.6492 19.1724L14.6869 19.1588C14.6995 19.1541 14.7122 19.1495 14.7246 19.1449C14.7374 19.1401 14.7498 19.1351 14.7624 19.1302C14.775 19.1254 14.7877 19.1205 14.8002 19.1156L14.8379 19.1003L14.8756 19.0846C14.8882 19.0794 14.9009 19.0743 14.9134 19.0689C14.9261 19.0634 14.9385 19.0577 14.9511 19.0521L14.9888 19.0353L15.0265 19.0178C15.0392 19.0119 15.0517 19.0059 15.0643 18.9999C15.0769 18.9938 15.0896 18.9878 15.1021 18.9817C15.1148 18.9754 15.1272 18.9688 15.1398 18.9625C15.1524 18.9561 15.1651 18.9497 15.1775 18.9432C15.1903 18.9366 15.2027 18.9297 15.2153 18.923C15.2279 18.9162 15.2405 18.9094 15.253 18.9024C15.2657 18.8954 15.2782 18.8883 15.2907 18.8812C15.3034 18.874 15.3159 18.8666 15.3284 18.8593C15.341 18.8518 15.3537 18.8443 15.3662 18.8369C15.3789 18.8291 15.3914 18.8213 15.404 18.8135C15.4166 18.8056 15.4292 18.7977 15.4417 18.7898C15.4544 18.7815 15.4669 18.7731 15.4794 18.7648C15.492 18.7564 15.5048 18.748 15.5171 18.7395C15.5299 18.7308 15.5423 18.7218 15.5548 18.713C15.5675 18.704 15.5802 18.695 15.5925 18.6859C15.6054 18.6766 15.6178 18.6671 15.6303 18.6576C15.643 18.6481 15.6556 18.6383 15.6681 18.6286C15.6807 18.6187 15.6933 18.6086 15.7058 18.5985C15.7185 18.5881 15.7311 18.5776 15.7435 18.5672C15.7562 18.5564 15.7689 18.5458 15.7813 18.535C15.7941 18.5237 15.8065 18.5124 15.819 18.501C15.8317 18.4896 15.8444 18.4781 15.8567 18.4664C15.8696 18.4543 15.882 18.4421 15.8945 18.4299C15.9072 18.4173 15.9198 18.4047 15.9322 18.3919C15.9449 18.3789 15.9576 18.366 15.9699 18.3528C15.9828 18.339 15.9952 18.3251 16.0077 18.3112C16.0205 18.2969 16.033 18.2824 16.0454 18.2679C16.0582 18.2529 16.0708 18.238 16.0831 18.2228C16.096 18.207 16.1086 18.1913 16.1208 18.1753C16.1338 18.1586 16.1462 18.1418 16.1586 18.1249C16.1715 18.1073 16.184 18.0896 16.1964 18.0718C16.2092 18.0532 16.2218 18.0345 16.2341 18.0155C16.247 17.9958 16.2595 17.9759 16.2718 17.9558C16.2847 17.9346 16.2973 17.9133 16.3096 17.8918C16.3225 17.869 16.3351 17.8461 16.3473 17.823C16.3603 17.7982 16.3729 17.7733 16.385 17.7483C16.3981 17.7212 16.4106 17.694 16.4227 17.6667C16.4359 17.6369 16.4485 17.607 16.4605 17.5767C16.4737 17.5433 16.4864 17.5097 16.4983 17.4758C16.5117 17.4373 16.5242 17.3985 16.536 17.3593C16.5497 17.3135 16.5622 17.2672 16.5737 17.2205C16.5879 17.1625 16.6006 17.1039 16.6114 17.0446C16.6276 16.9564 16.6401 16.8668 16.6491 16.776C16.6618 16.6493 16.668 16.5204 16.668 16.3895V11.882H16.6114H16.5737H16.536H16.4983H16.4605H16.4227H16.385H16.3473H16.3096H16.2718H16.2341H16.1964H16.1586H16.1208H16.0831H16.0454H16.0077H15.9699H15.9322H15.8945H15.8567H15.819H15.7813H15.7435H15.7058H15.6681H15.6303H15.5925H15.5548H15.5171H15.4794H15.4417H15.404H15.3662H15.3284H15.2907H15.253H15.2153H15.1775H15.1398H15.1021H15.0643H15.0265H14.9888H14.9511H14.9134H14.8756H14.8379H14.8002H14.7624H14.7246H14.6869H14.6492H14.6115H14.5738H14.536H14.4982H14.4605H14.4228H14.3851H14.3473H14.3096H14.2719H14.2341H14.1964H14.1587H14.1209H14.0832H14.0455H14.0078H13.97H13.9322H13.8945H13.8568H13.819H13.7813H13.7436H13.7059H13.6681H13.6303H13.5926H13.5549H13.5172H13.4794H13.4417H13.4039H13.3662H13.3285L13.2999 16.3895C13.2999 16.46 13.2968 16.5294 13.2907 16.5976C13.283 16.6843 13.2704 16.7688 13.253 16.8511C13.2422 16.9019 13.2296 16.9517 13.2153 17.0007C13.2038 17.0396 13.1913 17.0779 13.1776 17.1157C13.1658 17.1478 13.1532 17.1793 13.1398 17.2104C13.1279 17.2383 13.1153 17.2656 13.102 17.2925C13.09 17.3171 13.0775 17.3414 13.0643 17.3652C13.0522 17.3872 13.0396 17.4087 13.0266 17.43C13.0144 17.4501 13.0019 17.4698 12.9889 17.4893C12.9766 17.5076 12.964 17.5257 12.9512 17.5434C12.9389 17.5603 12.9264 17.5772 12.9135 17.5936C12.9012 17.6094 12.8885 17.6247 12.8757 17.6399C12.8634 17.6545 12.8508 17.6688 12.8379 17.683C12.8256 17.6967 12.8131 17.7102 12.8002 17.7235C12.7878 17.7363 12.7753 17.749 12.7625 17.7614C12.7501 17.7735 12.7375 17.7854 12.7247 17.7971C12.7123 17.8084 12.6997 17.8195 12.687 17.8305C12.6746 17.8412 12.662 17.8517 12.6493 17.8621C12.6368 17.8721 12.6242 17.8821 12.6116 17.8919C12.5991 17.9013 12.5865 17.9107 12.5738 17.92C12.5613 17.929 12.5488 17.9379 12.536 17.9466C12.5236 17.9552 12.5111 17.9636 12.4983 17.9719C12.4859 17.98 12.4733 17.9879 12.4606 17.9957C12.4482 18.0034 12.4356 18.0109 12.4228 18.0183C12.4104 18.0255 12.3978 18.0326 12.3851 18.0397C12.3726 18.0465 12.36 18.0532 12.3474 18.0598C12.3349 18.0664 12.3223 18.0727 12.3096 18.079C12.2972 18.0852 12.2846 18.0912 12.2719 18.0972C12.2594 18.1031 12.2469 18.1088 12.2341 18.1145C12.2217 18.12 12.2091 18.1255 12.1964 18.1308C12.184 18.136 12.1714 18.141 12.1587 18.1461C12.1463 18.151 12.1337 18.1558 12.121 18.1605C12.1085 18.1652 12.0959 18.1698 12.0833 18.1743C12.0707 18.1787 12.0581 18.183 12.0455 18.1873C12.033 18.1913 12.0204 18.1954 12.0077 18.1994C11.9953 18.2032 11.9827 18.207 11.97 18.2107C11.9575 18.2143 11.9449 18.2179 11.9323 18.2214C11.9198 18.2248 11.9072 18.2283 11.8946 18.2315C11.8821 18.2347 11.8695 18.2377 11.8568 18.2408C11.8444 18.2438 11.8318 18.2466 11.8191 18.2494C11.8066 18.2522 11.794 18.2549 11.7814 18.2576C11.7688 18.2601 11.7563 18.2626 11.7436 18.265C11.7311 18.2673 11.7185 18.2696 11.7059 18.2718C11.6933 18.274 11.6808 18.2762 11.6681 18.2782L11.6304 18.2839C11.6179 18.2857 11.6053 18.2873 11.5927 18.289C11.5802 18.2906 11.5676 18.2922 11.555 18.2937L11.5173 18.2978C11.5047 18.2991 11.4921 18.3002 11.4795 18.3015C11.4669 18.3025 11.4544 18.3037 11.4417 18.3047C11.4292 18.3056 11.4166 18.3064 11.404 18.3072C11.3915 18.308 11.3789 18.3088 11.3662 18.3094C11.3537 18.31 11.3412 18.3107 11.3285 18.3112C11.3161 18.3117 11.3034 18.312 11.2908 18.3124L11.2531 18.3132C11.2405 18.3134 11.2279 18.3135 11.2153 18.3136L11.1776 18.3136L11.1398 18.3134L11.1021 18.3128L11.0644 18.312L11.0267 18.3111L10.9889 18.3099L10.9512 18.3084L10.9134 18.3066L10.8757 18.3047L10.838 18.3025L10.8002 18.3L10.7625 18.2974L10.7248 18.2945L10.6871 18.2913L10.6493 18.288L10.6115 18.2844L10.5738 18.2806L10.5361 18.2765L10.4984 18.2722L10.4607 18.2677L10.423 18.2629L10.3852 18.258L10.3474 18.2528L10.3097 18.2474L10.2719 18.2418L10.2342 18.236L10.1965 18.2299L10.1588 18.2236L10.121 18.2171L10.0833 18.2103L10.0455 18.2034L10.0078 18.1962L9.9701 18.1889L9.9323 18.1812L9.89458 18.1735L9.85686 18.1655L9.81915 18.1572L9.78143 18.1488L9.74363 18.1401L9.70591 18.1313L9.66819 18.1223L9.63048 18.113L9.59276 18.1036L9.55496 18.0938L9.51724 18.0839L9.47952 18.0739L9.44181 18.0636L9.40409 18.0532L9.36637 18.0424L9.32857 18.0316L9.29086 18.0205L9.25314 18.0092L9.21542 17.9978L9.17762 17.9861L9.1399 17.9742L9.10219 17.9622L9.06447 17.95L9.02667 17.9375L8.98895 17.9248L8.95123 17.912L8.91352 17.8991L8.87572 17.8858L8.838 17.8724L8.80028 17.8589L8.76256 17.8451L8.72485 17.8313L8.68705 17.8171L8.64933 17.8029L8.61163 17.7884L8.57388 17.7738L8.53615 17.759L8.4984 17.7439L8.46068 17.7288L8.42296 17.7134L8.3852 17.6979L8.34748 17.6822L8.30973 17.6663L8.27201 17.6503L8.23428 17.6341L8.19652 17.6176L8.15881 17.6011L8.12108 17.5844L8.08333 17.5676L8.0456 17.5505L8.00785 17.5332L7.97013 17.5159L7.93241 17.4983L7.89465 17.4806C7.86762 17.4679 7.8406 17.455 7.8136 17.442Z" fill="#006CB9"/>
<path fill-rule="evenodd" clip-rule="evenodd" d="M18.7298 12.8669C18.7023 12.8889 18.6752 12.9112 18.6488 12.9337V7.8476C18.6488 7.57712 18.6767 7.31311 18.7298 7.05817C18.7412 7.00345 18.7539 6.94922 18.7675 6.89536C18.7793 6.84914 18.7919 6.8033 18.8053 6.75777C18.8172 6.71722 18.8298 6.67694 18.843 6.63694C18.8551 6.60039 18.8676 6.56403 18.8807 6.52798C18.8929 6.49457 18.9054 6.46132 18.9185 6.42834C18.9307 6.39752 18.9432 6.36684 18.9562 6.33638C18.9684 6.30767 18.981 6.27914 18.994 6.25076C19.0062 6.22381 19.0188 6.19706 19.0317 6.17045C19.044 6.14503 19.0566 6.11986 19.0694 6.09475C19.0818 6.07063 19.0944 6.0467 19.1072 6.02287C19.1196 5.9999 19.1322 5.97708 19.1449 5.9544C19.1573 5.93242 19.1699 5.91055 19.1826 5.88885C19.1951 5.86778 19.2076 5.8468 19.2203 5.82599C19.2328 5.80588 19.2454 5.78589 19.2581 5.76603C19.2705 5.7467 19.2831 5.72759 19.2959 5.70851C19.3083 5.68983 19.3208 5.67128 19.3336 5.65285C19.3461 5.63476 19.3585 5.61667 19.3713 5.59883C19.3837 5.58155 19.3964 5.56455 19.4091 5.54752C19.4215 5.53074 19.4341 5.51405 19.4468 5.49749C19.4593 5.48117 19.4718 5.46483 19.4845 5.44873C19.4969 5.43309 19.5097 5.41768 19.5223 5.40223C19.5348 5.38697 19.5473 5.37177 19.5601 5.35673C19.5725 5.34187 19.585 5.32708 19.5978 5.31245C19.6102 5.29815 19.6229 5.28404 19.6355 5.26993C19.648 5.25594 19.6605 5.2419 19.6732 5.22807C19.6856 5.21455 19.6983 5.20119 19.7109 5.18785C19.7234 5.17467 19.736 5.16159 19.7486 5.14856C19.7612 5.13573 19.7738 5.1229 19.7864 5.11022C19.7989 5.09779 19.8115 5.08551 19.8242 5.07323C19.8367 5.06102 19.8492 5.04872 19.8619 5.03666C19.8743 5.02487 19.887 5.01337 19.8996 5.00175C19.9121 4.99017 19.9246 4.97854 19.9374 4.96713C19.9498 4.95595 19.9625 4.94494 19.9751 4.93391C19.9876 4.92291 20.0001 4.91194 20.0128 4.90112C20.0253 4.89046 20.0379 4.87999 20.0505 4.86949C20.0631 4.85908 20.0757 4.84866 20.0883 4.83838C20.1008 4.82824 20.1134 4.8182 20.1261 4.80823C20.1386 4.79832 20.1511 4.78846 20.1638 4.77871C20.1763 4.76908 20.1889 4.75953 20.2015 4.75002C20.214 4.7406 20.2266 4.73122 20.2392 4.72196C20.2517 4.71276 20.2643 4.70368 20.277 4.69464C20.2895 4.68569 20.302 4.67674 20.3147 4.66791C20.3272 4.65918 20.3398 4.65057 20.3524 4.64196C20.365 4.63341 20.3776 4.6249 20.3902 4.61651C20.4027 4.60821 20.4153 4.60003 20.428 4.59187C20.4405 4.58372 20.453 4.57557 20.4657 4.56759C20.4782 4.55969 20.4908 4.55199 20.5034 4.54422C20.516 4.53648 20.5285 4.52865 20.5411 4.52107C20.5536 4.51355 20.5663 4.50627 20.5789 4.49891C20.5915 4.49154 20.604 4.48402 20.6166 4.47681C20.6291 4.46969 20.6418 4.46285 20.6544 4.45586C20.667 4.44887 20.6795 4.44182 20.6921 4.43498C20.7046 4.4282 20.7172 4.42168 20.7298 4.41502C20.7424 4.4084 20.7549 4.40176 20.7676 4.39526L20.8053 4.37621L20.843 4.3576C20.8556 4.35151 20.8681 4.34535 20.8807 4.33938C20.8933 4.33345 20.9059 4.3277 20.9185 4.32189C20.9311 4.31611 20.9436 4.31014 20.9563 4.30448C20.9688 4.29885 20.9814 4.29357 20.994 4.2881C21.0066 4.28264 21.0191 4.27707 21.0317 4.27172C21.0443 4.26644 21.0569 4.26131 21.0695 4.25615L21.1072 4.24086C21.1198 4.23586 21.1323 4.23086 21.1449 4.22598C21.1574 4.22113 21.1701 4.21647 21.1826 4.21174C21.1952 4.20702 21.2078 4.20214 21.2204 4.19754C21.2329 4.193 21.2456 4.18877 21.2582 4.18436C21.2708 4.17995 21.2833 4.17548 21.2959 4.17118C21.3084 4.1669 21.3211 4.1628 21.3336 4.15866L21.3714 4.14651C21.3839 4.14253 21.3965 4.13846 21.4091 4.13457C21.4216 4.13075 21.4343 4.12715 21.4468 4.12345C21.4594 4.11972 21.4719 4.1159 21.4846 4.11229C21.4971 4.10872 21.5097 4.10539 21.5223 4.10194L21.5601 4.09178C21.5727 4.08848 21.5852 4.08513 21.5978 4.08196C21.6103 4.07882 21.623 4.07587 21.6355 4.07283C21.6481 4.06978 21.6606 4.06661 21.6733 4.06369C21.6858 4.0608 21.6984 4.05809 21.711 4.05532L21.7487 4.04719C21.7613 4.04454 21.7738 4.04181 21.7864 4.03929C21.799 4.03677 21.8116 4.03451 21.8242 4.03211C21.8368 4.02972 21.8493 4.0272 21.862 4.02493L21.8997 4.01847L21.9374 4.01229C21.95 4.01026 21.9625 4.00812 21.9752 4.00622C21.9877 4.00433 22.0003 4.00274 22.0129 4.00097C22.0254 3.99923 22.038 3.9974 22.0506 3.99575L22.0884 3.99106L22.1261 3.98677C22.1387 3.98537 22.1512 3.98376 22.1639 3.98248C22.1764 3.98121 22.189 3.98027 22.2016 3.97912L22.2393 3.97583C22.2519 3.97477 22.2644 3.97375 22.277 3.97284C22.2896 3.97194 22.3022 3.97123 22.3147 3.97045C22.3273 3.96967 22.3399 3.96877 22.3525 3.96809C22.3651 3.9674 22.3777 3.96694 22.3903 3.96638L22.428 3.96495C22.4406 3.96451 22.4531 3.96386 22.4658 3.96355C22.4783 3.96325 22.4909 3.96327 22.5035 3.96308C22.5161 3.9629 22.5286 3.96268 22.5412 3.96262L22.5579 3.9624H22.5789H22.6167H22.6544H22.6922H22.7299H22.7676H22.8054H22.8431H22.8808H22.9185H22.9563H22.9941H23.0318H23.0695H23.1072H23.145H23.1827H23.2204H23.2582H23.296H23.3337H23.3714H23.4092H23.4469H23.4846H23.5224H23.5602H23.5979H23.6356H23.6733H23.7111H23.7488H23.7865H23.8243H23.8621H23.8998H23.9375H23.9752H24.0129H24.0507H24.0884H24.1262H24.1639H24.2017H24.2394H24.2771H24.3148H24.3525H24.3903H24.4281H24.4658H24.5035H24.5413H24.579H24.6167H24.6545H24.6922H24.73H24.7677H24.8054H24.8432H24.8809H24.9186H24.9564H24.9941H25.0319H25.0696H25.1073H25.145H25.1828H25.2205H25.2583H25.296H25.3338H25.3715H25.4092H25.4469H25.4847H25.5224H25.5602H25.5979H25.6357H25.6734H25.7111H25.7488H25.7866H25.8243H25.8621H25.8998H25.9376H25.9753H26.013H26.0507H26.0885H26.1263H26.164H26.2017H26.2394H26.2772H26.3149H26.3526H26.3904H26.4282H26.4659H26.5036H26.5413H26.579H26.6168H26.6545H26.6923H26.73H26.7678H26.8055H26.8432H26.8809H26.9186H26.9564H26.9942H27.0319H27.0697H27.1074H27.1451H27.1828H27.2205H27.2583H27.2961H27.3338H27.3715H27.4093H27.447H27.4847H27.5225H27.5603H27.598H27.6357H27.6734H27.7112H27.7489H27.7866H27.8244H27.8622H27.8999H27.9376H27.9753H28.0131H28.0508H28.0885H28.1263H28.164H28.2018H28.2395H28.2772H28.3092V23.3869C28.3092 23.5559 28.2983 23.7222 28.2772 23.8854C28.2671 23.964 28.2543 24.0418 28.2395 24.1188C28.2283 24.1774 28.2157 24.2357 28.2018 24.2934C28.1901 24.3419 28.1775 24.3902 28.164 24.4381C28.1521 24.48 28.1395 24.5217 28.1263 24.5631C28.1143 24.6006 28.1016 24.6377 28.0885 24.6747C28.0764 24.7089 28.0638 24.743 28.0508 24.7768C28.0386 24.8083 28.0261 24.8396 28.0131 24.8707C28.0008 24.9001 27.9882 24.9292 27.9753 24.9582C27.963 24.9857 27.9505 25.0129 27.9376 25.04C27.9253 25.066 27.9127 25.0917 27.8999 25.1173C27.8875 25.1419 27.8749 25.1663 27.8622 25.1905C27.8497 25.2139 27.8372 25.237 27.8244 25.2602C27.812 25.2825 27.7995 25.3047 27.7866 25.3268C27.7743 25.348 27.7617 25.3691 27.7489 25.39C27.7366 25.4104 27.7239 25.4305 27.7112 25.4506C27.6988 25.4702 27.6862 25.4897 27.6734 25.509C27.661 25.528 27.6485 25.5469 27.6357 25.5656C27.6232 25.5836 27.6107 25.6016 27.598 25.6195C27.5855 25.637 27.5729 25.6543 27.5603 25.6717C27.5477 25.6887 27.5352 25.7056 27.5225 25.7225C27.51 25.7389 27.4975 25.7551 27.4847 25.7713C27.4723 25.7871 27.4597 25.8028 27.447 25.8184C27.4345 25.8339 27.4221 25.8493 27.4093 25.8645C27.3969 25.8795 27.3842 25.8941 27.3715 25.9088C27.3591 25.9234 27.3465 25.9376 27.3338 25.952C27.3213 25.966 27.3087 25.9802 27.2961 25.9941C27.2836 26.0078 27.2709 26.0212 27.2583 26.0346C27.2458 26.0479 27.2333 26.0613 27.2205 26.0745C27.2081 26.0874 27.1955 26.1001 27.1828 26.1128C27.1704 26.1253 27.1578 26.1379 27.1451 26.1503C27.1327 26.1626 27.1201 26.1748 27.1074 26.1869C27.0949 26.1988 27.0823 26.2106 27.0697 26.2223C27.0571 26.2339 27.0446 26.2457 27.0319 26.2572C27.0194 26.2684 27.0068 26.2795 26.9942 26.2907C26.9816 26.3017 26.9691 26.313 26.9564 26.3239C26.9439 26.3346 26.9312 26.345 26.9186 26.3556C26.9061 26.3661 26.8936 26.3767 26.8809 26.387C26.8685 26.3972 26.8558 26.4072 26.8432 26.4172C26.8307 26.4272 26.8182 26.4373 26.8055 26.4471C26.793 26.4569 26.7804 26.4663 26.7678 26.4759C26.7552 26.4853 26.7427 26.4949 26.73 26.5043C26.7175 26.5135 26.7049 26.5226 26.6923 26.5317C26.6797 26.5407 26.6672 26.5499 26.6545 26.5588C26.642 26.5675 26.6294 26.576 26.6168 26.5847C26.6042 26.5934 26.5917 26.602 26.579 26.6105C26.5666 26.6189 26.5539 26.627 26.5413 26.6352C26.5288 26.6434 26.5163 26.6518 26.5036 26.6598C26.4911 26.6678 26.4784 26.6754 26.4659 26.6832C26.4533 26.691 26.4408 26.6989 26.4282 26.7065C26.4156 26.7141 26.403 26.7214 26.3904 26.7288C26.3778 26.7362 26.3653 26.7437 26.3526 26.751C26.3401 26.7581 26.3275 26.7652 26.3149 26.7722L26.2772 26.7932L26.2394 26.8135L26.2017 26.8332C26.1892 26.8397 26.1766 26.8462 26.164 26.8526C26.1514 26.8589 26.1389 26.865 26.1263 26.8712C26.1137 26.8774 26.1011 26.8837 26.0885 26.8897C26.076 26.8957 26.0633 26.9014 26.0507 26.9072C26.0382 26.9131 26.0256 26.919 26.013 26.9247C26.0005 26.9303 25.9878 26.9358 25.9753 26.9413L25.9376 26.9577L25.8998 26.9736L25.8621 26.9889C25.8495 26.994 25.8369 26.9991 25.8243 27.0041C25.8118 27.0089 25.7991 27.0135 25.7866 27.0183C25.774 27.023 25.7615 27.0278 25.7488 27.0325C25.7363 27.0371 25.7237 27.0415 25.7111 27.046L25.6734 27.0591L25.6357 27.072C25.6231 27.0762 25.6105 27.0801 25.5979 27.0841C25.5853 27.0882 25.5728 27.0924 25.5602 27.0963C25.5476 27.1001 25.535 27.1038 25.5224 27.1075L25.4847 27.1186L25.4469 27.1293C25.4344 27.1327 25.4218 27.1361 25.4092 27.1394C25.3966 27.1428 25.3842 27.1463 25.3715 27.1495C25.359 27.1527 25.3463 27.1556 25.3338 27.1587C25.3212 27.1618 25.3086 27.1648 25.296 27.1678L25.2583 27.1765L25.2205 27.1846C25.2079 27.1873 25.1954 27.1902 25.1828 27.1928C25.1703 27.1952 25.1576 27.1975 25.145 27.2L25.1073 27.2071L25.0696 27.2139C25.0571 27.216 25.0445 27.218 25.0319 27.22C25.0193 27.2221 25.0068 27.2243 24.9941 27.2262C24.9816 27.2281 24.969 27.2298 24.9564 27.2316L24.9186 27.2369C24.906 27.2386 24.8935 27.2403 24.8809 27.2418C24.8684 27.2434 24.8557 27.2447 24.8432 27.2461C24.8306 27.2475 24.8181 27.2491 24.8054 27.2504C24.7929 27.2517 24.7803 27.2528 24.7677 27.254L24.73 27.2574C24.7174 27.2584 24.7048 27.2597 24.6922 27.2606C24.6797 27.2615 24.667 27.2622 24.6545 27.263L24.6167 27.2654L24.579 27.2674C24.5665 27.268 24.5538 27.2683 24.5413 27.2688C24.5287 27.2692 24.5161 27.2698 24.5035 27.2702C24.491 27.2705 24.4784 27.2707 24.4658 27.2709L24.4281 27.2714C24.4163 27.2715 24.4046 27.2718 24.3928 27.2718H24.3903H24.3525H24.3148H24.2771H24.2394H24.2017H24.1639H24.1262H24.0884H24.0507H24.0129H23.9752H23.9375H23.8998H23.8621H23.8243H23.7865H23.7488H23.7111H23.6733H23.6356H23.5979H23.5602H23.5224H23.4846H23.4469H23.4092H23.3714H23.3337H23.296H23.2582H23.2204H23.1827H23.145H23.1072H23.0695H23.0318H22.9941H22.9563H22.9185H22.8808H22.8431H22.8054H22.7676H22.7299H22.6922H22.6544H22.6167H22.5789H22.5412H22.5035H22.4658H22.428H22.3903H22.3525H22.3147H22.277H22.2393H22.2016H22.1639H22.1261H22.0884H22.0506H22.0129H21.9752H21.9374H21.8997H21.862H21.8242H21.7864H21.7487H21.711H21.6733H21.6355H21.5978H21.5601H21.5223H21.4846H21.4468H21.4091H21.3714H21.3336H21.2959H21.2582H21.2204H21.1826H21.1449H21.1072H21.0695H21.0317H20.994H20.9563H20.9185H20.8807H20.843H20.8053H20.7676H20.7298H20.6921H20.6544H20.6166H20.5789H20.5411H20.5034H20.4657H20.428H20.3902H20.3524H20.3147H20.277H20.2392H20.2015H20.1638H20.1261H20.0883H20.0505H20.0128H19.9751H19.9374H19.8996H19.8619H19.8242H19.7864H19.7486H19.7109H19.6732H19.6355H19.5978H19.5601H19.5223H19.4845H19.4468H19.4091H19.3713H19.3336H19.2959H19.2581H19.2203H19.1826H19.1449H19.1072H19.0694H19.0317H18.994H18.9562H18.9185H18.8807H18.843H18.8053H18.7675H18.7298H18.6488V18.3021C18.6752 18.3246 18.7023 18.3468 18.7298 18.3689C18.7423 18.3789 18.7549 18.3888 18.7675 18.3987C18.78 18.4084 18.7926 18.4181 18.8053 18.4278C18.8178 18.4373 18.8303 18.4469 18.843 18.4563C18.8554 18.4656 18.8681 18.4746 18.8807 18.4838C18.8932 18.4928 18.9058 18.5018 18.9185 18.5107C18.931 18.5195 18.9436 18.5283 18.9562 18.537L18.994 18.5627C19.0064 18.571 19.0191 18.5793 19.0317 18.5875L19.0694 18.612C19.0819 18.62 19.0945 18.628 19.1072 18.6359C19.1196 18.6437 19.1323 18.6514 19.1449 18.6591L19.1826 18.6819C19.1952 18.6894 19.2078 18.6968 19.2203 18.7042C19.2329 18.7115 19.2455 18.7186 19.2581 18.7258L19.2959 18.7471L19.3336 18.7678L19.3713 18.7881C19.3839 18.7948 19.3963 18.8014 19.4091 18.808C19.4215 18.8145 19.4342 18.8209 19.4468 18.8273L19.4845 18.8463L19.5223 18.8649L19.5601 18.883C19.5726 18.889 19.5851 18.895 19.5978 18.9009L19.6355 18.9182L19.6732 18.9354L19.7109 18.9519L19.7486 18.9683L19.7864 18.9842L19.8242 18.9998L19.8619 19.0151L19.8996 19.03L19.9374 19.0449L19.9751 19.0591C19.9876 19.0638 20.0001 19.0686 20.0128 19.0733L20.0505 19.0869C20.0631 19.0914 20.0757 19.0961 20.0883 19.1006C20.1008 19.105 20.1135 19.1093 20.1261 19.1136L20.1638 19.1267L20.2015 19.1392C20.2141 19.1434 20.2265 19.1476 20.2392 19.1517C20.2517 19.1557 20.2644 19.1597 20.277 19.1637L20.3147 19.1757L20.3524 19.1872L20.3902 19.1987L20.428 19.2097L20.4657 19.2206L20.5034 19.2312L20.5411 19.2417L20.5789 19.2519L20.6166 19.2619L20.6544 19.2717L20.6921 19.2812L20.7298 19.2906L20.7676 19.2997L20.8053 19.3088L20.843 19.3174L20.8807 19.326L20.9185 19.3344L20.9563 19.3425L20.994 19.3506L21.0317 19.3583L21.0695 19.366L21.1072 19.3734L21.1449 19.3807L21.1826 19.3877L21.2204 19.3946L21.2582 19.4014L21.2959 19.4079L21.3336 19.4144L21.3714 19.4206L21.4091 19.4267L21.4468 19.4327L21.4846 19.4384L21.5223 19.4442L21.5601 19.4497L21.5978 19.455L21.6355 19.4603L21.6733 19.4652L21.711 19.4701L21.7487 19.475L21.7864 19.4795L21.8242 19.4841L21.862 19.4884L21.8997 19.4926L21.9374 19.4968L21.9752 19.5006L22.0129 19.5045L22.0506 19.5082L22.0884 19.5117L22.1261 19.5152L22.1639 19.5185L22.2016 19.5217L22.2393 19.5249L22.277 19.5278L22.3147 19.5306L22.3525 19.5335L22.3903 19.5359L22.428 19.5385L22.4658 19.541L22.5035 19.5432L22.5412 19.5453L22.5789 19.5475L22.6167 19.5493L22.6544 19.5512L22.6922 19.553L22.7299 19.5545L22.7676 19.5561L22.8054 19.5575L22.8431 19.5588L22.8808 19.56L22.9185 19.5612L22.9563 19.5622L22.9941 19.5632L23.0318 19.564L23.0695 19.5647L23.1072 19.5653L23.145 19.566L23.1827 19.5664L23.2204 19.5667L23.2582 19.567L23.296 19.5672L23.3337 19.5672L23.3714 19.5673L23.4092 19.5672L23.4469 19.567L23.4846 19.5668L23.5224 19.5665L23.5602 19.566L23.5979 19.5655L23.6356 19.565L23.6733 19.5642L23.7111 19.5635L23.7488 19.5627L23.7865 19.5617L23.8243 19.5607L23.8621 19.5596L23.8998 19.5585L23.9375 19.5572L23.9752 19.5559L24.0129 19.5546L24.0507 19.5531L24.0884 19.5515L24.1262 19.55L24.1446 19.5492L24.1639 19.5483L24.2017 19.5465L24.2394 19.5445L24.2771 19.5424L24.3148 19.5402L24.3525 19.5379L24.3903 19.5353L24.4281 19.5328L24.4658 19.53L24.5035 19.5272L24.5413 19.5242L24.579 19.5212L24.6167 19.518L24.6545 19.5147L24.6922 19.5113L24.73 19.5078L24.7677 19.5042L24.8054 19.5005L24.8432 19.4967L24.8809 19.4927L24.9186 19.4887L24.9564 19.4846L24.9941 19.4803L25.0319 19.476L25.0696 19.4716L25.1073 19.4671L25.145 19.4625L25.1828 19.4578L25.2205 19.453L25.2583 19.4482L25.296 19.4432L25.3338 19.4382L25.3715 19.4331L25.4092 19.4279L25.4469 19.4226L25.4847 19.4171L25.5224 19.4117L25.5602 19.4061L25.5979 19.4005L25.6357 19.3948L25.6734 19.3889L25.7111 19.3831L25.7488 19.3771L25.7866 19.3711L25.8243 19.365L25.8621 19.3588L25.8998 19.3526L25.9376 19.3462L25.9753 19.3398L26.013 19.3333L26.0507 19.3268L26.0885 19.3202L26.1263 19.3134L26.164 19.3067L26.2017 19.2998L26.2394 19.2929L26.2772 19.2859L26.3149 19.2787L26.3526 19.2716L26.3904 19.2644L26.4282 19.2571L26.4659 19.2498L26.5036 19.2423L26.5413 19.2348L26.579 19.2272L26.6168 19.2195L26.6545 19.2117L26.6923 19.204L26.73 19.1961L26.7678 19.1881L26.8055 19.18L26.8432 19.1719L26.8809 19.1637L26.9186 19.1554L26.9564 19.1471L26.9942 19.1385L27.0319 19.13L27.0697 19.1213L27.1074 19.1125L27.1451 19.1036L27.1828 19.0946L27.2204 19.0854V17.442L27.1828 17.4606L27.1451 17.479L27.1074 17.4974L27.0697 17.5156L27.0319 17.5335L26.9942 17.5513L26.9564 17.5689L26.9186 17.5864L26.8809 17.6037L26.8432 17.6208L26.8055 17.6376L26.7678 17.6544L26.73 17.6708L26.6923 17.6871L26.6545 17.7033L26.6168 17.7192L26.579 17.7349L26.5413 17.7505L26.5036 17.7657L26.4659 17.7808L26.4282 17.7957L26.3904 17.8105L26.3526 17.8249L26.3149 17.8392L26.2772 17.8533L26.2394 17.8671L26.2017 17.8808L26.164 17.8943L26.1263 17.9075L26.0885 17.9205L26.0507 17.9333L26.013 17.9459L25.9753 17.9582L25.9376 17.9704L25.8998 17.9824L25.8621 17.9941L25.8243 18.0056L25.7866 18.0169L25.7488 18.028L25.7111 18.039L25.6734 18.0496L25.6357 18.0601L25.5979 18.0702L25.5602 18.0804L25.5224 18.0902L25.4847 18.0998L25.4469 18.1092L25.4092 18.1183L25.3715 18.1273L25.3338 18.1361L25.296 18.1446L25.2583 18.153L25.2205 18.1611L25.1828 18.169L25.145 18.1767L25.1073 18.1842L25.0696 18.1916L25.0319 18.1986L24.9941 18.2055L24.9564 18.2121L24.9186 18.2186L24.8809 18.2249L24.8432 18.2309L24.8054 18.2368L24.7677 18.2425L24.73 18.2479L24.6922 18.2531L24.6545 18.2582L24.6167 18.263L24.579 18.2677L24.5413 18.2722L24.5035 18.2764L24.4658 18.2804L24.4281 18.2844L24.3903 18.2879L24.3525 18.2914L24.3148 18.2947L24.2771 18.2978L24.2542 18.2995L24.2394 18.3006L24.2017 18.3031L24.1639 18.3055L24.1262 18.3076L24.0884 18.3095L24.0507 18.3112L24.0129 18.3124L23.9752 18.3136L23.9375 18.3145L23.8998 18.315L23.8621 18.3155C23.8494 18.3155 23.8369 18.3153 23.8243 18.3153L23.7865 18.3152L23.7488 18.3146L23.7111 18.3138L23.6733 18.3128C23.6606 18.3124 23.6482 18.3119 23.6356 18.3113C23.623 18.3108 23.6104 18.3104 23.5979 18.3098L23.5602 18.3078L23.5224 18.3055L23.4846 18.3029L23.4469 18.2999C23.4343 18.299 23.4216 18.2981 23.4092 18.2969C23.3965 18.2958 23.384 18.2944 23.3714 18.2932L23.3337 18.2894L23.296 18.285L23.2582 18.2805L23.2204 18.2755L23.1827 18.2702C23.1701 18.2684 23.1575 18.2666 23.145 18.2647C23.1323 18.2627 23.1198 18.2606 23.1072 18.2585C23.0947 18.2564 23.082 18.2545 23.0695 18.2523C23.0568 18.25 23.0444 18.2476 23.0318 18.2453C23.0192 18.2429 23.0065 18.2407 22.9941 18.2383C22.9814 18.2358 22.9689 18.2331 22.9563 18.2304C22.9437 18.2278 22.9311 18.2253 22.9185 18.2226C22.9059 18.2198 22.8934 18.2169 22.8808 18.214L22.8431 18.2052C22.8304 18.2021 22.8179 18.1989 22.8054 18.1957C22.7927 18.1926 22.7801 18.1893 22.7676 18.1861C22.755 18.1827 22.7424 18.1791 22.7299 18.1757C22.7173 18.1722 22.7047 18.1686 22.6922 18.1649C22.6795 18.1613 22.667 18.1575 22.6544 18.1536C22.6418 18.1498 22.6292 18.1459 22.6167 18.1419C22.604 18.1379 22.5914 18.1337 22.5789 18.1296C22.5663 18.1254 22.5537 18.1212 22.5412 18.1169C22.5285 18.1125 22.516 18.1079 22.5035 18.1034C22.4909 18.0988 22.4782 18.0943 22.4658 18.0896C22.4531 18.0849 22.4406 18.0799 22.428 18.0749C22.4154 18.07 22.4028 18.0651 22.3903 18.0601C22.3776 18.0548 22.3651 18.0494 22.3525 18.0441C22.3399 18.0387 22.3273 18.0333 22.3147 18.0278C22.3021 18.0222 22.2895 18.0164 22.277 18.0105C22.2644 18.0048 22.2518 17.9989 22.2393 17.993C22.2266 17.9869 22.2141 17.9807 22.2016 17.9744C22.1889 17.9681 22.1763 17.9617 22.1639 17.9552C22.1512 17.9486 22.1385 17.9421 22.1261 17.9353C22.1134 17.9284 22.1009 17.9214 22.0884 17.9143C22.0758 17.9072 22.0631 17.9001 22.0506 17.8928C22.038 17.8854 22.0254 17.8778 22.0129 17.8703C22.0002 17.8626 21.9876 17.8546 21.9752 17.8468C21.9625 17.8387 21.9498 17.8308 21.9374 17.8226C21.9246 17.8142 21.9122 17.8056 21.8997 17.7969C21.887 17.7882 21.8744 17.7794 21.862 17.7705C21.8493 17.7614 21.8366 17.7524 21.8242 17.7431C21.8115 17.7337 21.799 17.7239 21.7864 17.7142C21.7738 17.7043 21.7612 17.6944 21.7487 17.6842C21.7361 17.674 21.7234 17.6638 21.711 17.6532C21.6983 17.6424 21.6857 17.6314 21.6733 17.6203C21.6605 17.609 21.648 17.5976 21.6355 17.586C21.6228 17.5742 21.6102 17.5623 21.5978 17.5503C21.5851 17.538 21.5724 17.5257 21.5601 17.5131C21.5472 17.5001 21.5348 17.4869 21.5223 17.4736C21.5095 17.4599 21.497 17.4461 21.4846 17.4322C21.4718 17.4178 21.4592 17.4033 21.4468 17.3886C21.4341 17.3735 21.4215 17.3583 21.4091 17.3428C21.3963 17.3268 21.3837 17.3107 21.3714 17.2943C21.3586 17.2775 21.346 17.2604 21.3336 17.243C21.3208 17.225 21.3082 17.2068 21.2959 17.1885C21.283 17.1692 21.2704 17.1498 21.2582 17.13C21.2452 17.1094 21.2327 17.0885 21.2204 17.0674C21.2074 17.0452 21.1949 17.0227 21.1826 16.9999C21.1696 16.9757 21.1571 16.9512 21.1449 16.9265C21.1319 16.9001 21.1193 16.8734 21.1072 16.8464C21.0942 16.8173 21.0814 16.788 21.0695 16.7581C21.0562 16.7252 21.0437 16.6915 21.0317 16.6576C21.0184 16.62 21.0058 16.5819 20.994 16.5431C20.9804 16.4981 20.9677 16.4524 20.9563 16.4059C20.942 16.3481 20.9295 16.289 20.9185 16.2288C20.9022 16.1397 20.8896 16.0479 20.8807 15.9538C20.8706 15.8451 20.8654 15.733 20.8654 15.6177C20.8654 15.5024 20.8706 15.3903 20.8807 15.2815C20.8896 15.1872 20.9022 15.0956 20.9185 15.0063C20.9295 14.9462 20.942 14.8869 20.9563 14.8291C20.9677 14.7826 20.9804 14.7369 20.994 14.6919C21.0058 14.6531 21.0184 14.615 21.0317 14.5773C21.0437 14.5433 21.0562 14.5097 21.0695 14.4767C21.0814 14.4468 21.0942 14.4175 21.1072 14.3884C21.1193 14.3614 21.1319 14.3347 21.1449 14.3083C21.1571 14.2835 21.1696 14.2591 21.1826 14.2349C21.1949 14.2121 21.2074 14.1896 21.2204 14.1673C21.2327 14.1461 21.2452 14.1252 21.2582 14.1046C21.2704 14.0849 21.283 14.0654 21.2959 14.0462C21.3082 14.0278 21.3208 14.0096 21.3336 13.9916C21.346 13.9742 21.3586 13.9572 21.3714 13.9402C21.3837 13.9239 21.3963 13.9078 21.4091 13.8918C21.4215 13.8763 21.4341 13.8611 21.4468 13.8459C21.4592 13.8312 21.4718 13.8167 21.4846 13.8024C21.497 13.7885 21.5095 13.7745 21.5223 13.7609C21.5348 13.7476 21.5472 13.7343 21.5601 13.7213C21.5724 13.7088 21.5851 13.6964 21.5978 13.6841C21.6102 13.6721 21.6228 13.6602 21.6355 13.6484C21.648 13.6369 21.6605 13.6254 21.6733 13.6141C21.6857 13.6031 21.6983 13.592 21.711 13.5812C21.7234 13.5707 21.7361 13.5605 21.7487 13.5501C21.7612 13.5401 21.7738 13.5301 21.7864 13.5202C21.799 13.5105 21.8115 13.5007 21.8242 13.4912C21.8366 13.4819 21.8493 13.4729 21.862 13.4639C21.8744 13.4549 21.887 13.4461 21.8997 13.4374C21.9122 13.4288 21.9246 13.4201 21.9374 13.4118C21.9498 13.4035 21.9625 13.3956 21.9752 13.3876C21.9876 13.3797 22.0002 13.3718 22.0129 13.3641C22.0254 13.3565 22.038 13.3489 22.0506 13.3415C22.0631 13.3342 22.0758 13.3271 22.0884 13.32C22.1009 13.3129 22.1134 13.3058 22.1261 13.299C22.1385 13.2923 22.1512 13.2857 22.1639 13.2791C22.1763 13.2727 22.1889 13.2662 22.2016 13.2599C22.2141 13.2537 22.2266 13.2474 22.2393 13.2414C22.2518 13.2354 22.2644 13.2295 22.277 13.2237C22.2895 13.2179 22.3021 13.212 22.3147 13.2064C22.3273 13.2009 22.3399 13.1956 22.3525 13.1902C22.3651 13.1848 22.3776 13.1794 22.3903 13.1742C22.4028 13.1692 22.4154 13.1643 22.428 13.1593C22.4406 13.1544 22.4531 13.1494 22.4658 13.1446C22.4782 13.14 22.4909 13.1354 22.5035 13.1308C22.516 13.1263 22.5285 13.1217 22.5412 13.1173C22.5537 13.113 22.5663 13.1088 22.5789 13.1047C22.5914 13.1005 22.604 13.0963 22.6167 13.0922C22.6292 13.0883 22.6418 13.0844 22.6544 13.0806C22.667 13.0767 22.6795 13.073 22.6922 13.0693L22.7299 13.0586C22.7424 13.0551 22.755 13.0515 22.7676 13.0482C22.7801 13.0449 22.7927 13.0417 22.8054 13.0384C22.8179 13.0353 22.8304 13.0321 22.8431 13.0291L22.8808 13.0202C22.8934 13.0173 22.9059 13.0144 22.9185 13.0116C22.9311 13.0089 22.9437 13.0063 22.9563 13.0038C22.9689 13.0011 22.9814 12.9984 22.9941 12.9959C23.0065 12.9934 23.0192 12.9913 23.0318 12.9889C23.0444 12.9866 23.0568 12.9841 23.0695 12.9819C23.082 12.9797 23.0947 12.9778 23.1072 12.9757C23.1198 12.9736 23.1323 12.9714 23.145 12.9695L23.1827 12.9639L23.2204 12.9586L23.2582 12.9536L23.296 12.9491L23.3337 12.9448L23.3714 12.941C23.384 12.9397 23.3965 12.9384 23.4092 12.9372C23.4216 12.936 23.4343 12.9352 23.4469 12.9342L23.4846 12.9312L23.5224 12.9287L23.5602 12.9264L23.5979 12.9243C23.6104 12.9237 23.623 12.9233 23.6356 12.9228C23.6482 12.9223 23.6606 12.9217 23.6733 12.9213L23.7111 12.9203L23.7488 12.9195L23.7865 12.919L23.8243 12.9188C23.8369 12.9188 23.8494 12.9186 23.8621 12.9187L23.8998 12.9191L23.9375 12.9197L23.9752 12.9205L24.0129 12.9218L24.0507 12.923L24.0884 12.9247L24.1262 12.9266L24.1639 12.9286L24.2017 12.9311L24.2394 12.9336L24.2542 12.9346L24.2771 12.9364L24.3148 12.9394L24.3525 12.9426L24.3903 12.946L24.4281 12.9496L24.4658 12.9535L24.5035 12.9575L24.5413 12.9616L24.579 12.966L24.6167 12.9706L24.6545 12.9754L24.6922 12.9803L24.73 12.9856L24.7677 12.9909L24.8054 12.9965L24.8432 13.0023L24.8809 13.0083L24.9186 13.0144L24.9564 13.0209L24.9941 13.0275L25.0319 13.0343L25.0696 13.0413L25.1073 13.0485L25.145 13.0559L25.1828 13.0636L25.2205 13.0714L25.2583 13.0795L25.296 13.0878L25.3338 13.0962L25.3715 13.105L25.4092 13.1139L25.4469 13.123L25.4847 13.1323L25.5224 13.142L25.5602 13.1518L25.5979 13.1617L25.6357 13.1719L25.6734 13.1824L25.7111 13.193L25.7488 13.2039L25.7866 13.215L25.8243 13.2263L25.8621 13.2378L25.8998 13.2495L25.9376 13.2615L25.9753 13.2737L26.013 13.286L26.0507 13.2987L26.0885 13.3115L26.1263 13.3245L26.164 13.3378L26.2017 13.3513L26.2394 13.365L26.2772 13.3789L26.3149 13.393L26.3526 13.4074L26.3904 13.422L26.4282 13.4367L26.4659 13.4517L26.5036 13.4669L26.5413 13.4823L26.579 13.4979L26.6168 13.5138L26.6545 13.5297L26.6923 13.546L26.73 13.5624L26.7678 13.579L26.8055 13.5959L26.8432 13.6129L26.8809 13.6301L26.9186 13.6475L26.9564 13.6651L26.9942 13.6829L27.0319 13.7009L27.0697 13.7191L27.1074 13.7373L27.1451 13.7559L27.1828 13.7745L27.2204 13.7933V12.1487L27.1828 12.1395L27.1451 12.1305L27.1074 12.1216L27.0697 12.1128L27.0319 12.1042L26.9942 12.0956L26.9564 12.0872L26.9186 12.0787L26.8809 12.0705L26.8432 12.0622L26.8055 12.0541L26.7678 12.0461L26.73 12.038L26.6923 12.0302L26.6545 12.0224L26.6168 12.0147L26.579 12.007L26.5413 11.9994L26.5036 11.9919L26.4659 11.9844L26.4282 11.9771L26.3904 11.9698L26.3526 11.9626L26.3149 11.9555L26.2772 11.9484L26.2394 11.9414L26.2017 11.9344L26.164 11.9276L26.1263 11.9209L26.0885 11.9141L26.0507 11.9076L26.013 11.901L25.9753 11.8945L25.9376 11.888L25.8998 11.8817L25.8621 11.8755L25.8243 11.8694L25.7866 11.8633L25.7488 11.8572L25.7111 11.8513L25.6734 11.8454L25.6357 11.8396L25.5979 11.8339L25.5602 11.8283L25.5224 11.8227L25.4847 11.8173L25.4469 11.8119L25.4092 11.8066L25.3715 11.8015L25.3338 11.7963L25.296 11.7913L25.2583 11.7863L25.2205 11.7815L25.1828 11.7767L25.145 11.772L25.1073 11.7674L25.0696 11.7629L25.0319 11.7585L24.9941 11.7543L24.9564 11.75L24.9186 11.7459L24.8809 11.7419L24.8432 11.738L24.8054 11.7342L24.7677 11.7305L24.73 11.7269L24.6922 11.7234L24.6545 11.72L24.6167 11.7167L24.579 11.7136L24.5413 11.7105L24.5035 11.7076L24.4658 11.7048L24.4281 11.702L24.3903 11.6995L24.3525 11.697L24.3148 11.6947L24.2771 11.6925L24.2394 11.6904L24.2017 11.6885L24.1639 11.6867L24.1446 11.6857L24.1262 11.685L24.0884 11.6834L24.0507 11.6819L24.0129 11.6804L23.9752 11.679L23.9375 11.6777L23.8998 11.6764L23.8621 11.6753L23.8243 11.6743L23.7865 11.6732L23.7488 11.6723L23.7111 11.6715L23.6733 11.6707L23.6356 11.67L23.5979 11.6694L23.5602 11.669L23.5224 11.6685L23.4846 11.6682L23.4469 11.668L23.4092 11.6678L23.3714 11.6677L23.3337 11.6678L23.296 11.6678L23.2582 11.6679L23.2204 11.6682L23.1827 11.6686L23.145 11.669L23.1072 11.6697L23.0695 11.6703L23.0318 11.671L22.9941 11.6719L22.9563 11.6728L22.9185 11.6738L22.8808 11.675L22.8431 11.6762L22.8054 11.6775L22.7676 11.679L22.7299 11.6805L22.6922 11.682L22.6544 11.6839L22.6167 11.6857L22.5789 11.6876L22.5412 11.6897L22.5035 11.6919L22.4658 11.6941L22.428 11.6966L22.3903 11.6991L22.3525 11.7016L22.3147 11.7044L22.277 11.7072L22.2393 11.7102L22.2016 11.7133L22.1639 11.7165L22.1261 11.7198L22.0884 11.7234L22.0506 11.7268L22.0129 11.7306L21.9752 11.7344L21.9374 11.7383L21.8997 11.7426L21.862 11.7467L21.8242 11.751L21.7864 11.7556L21.7487 11.7602L21.711 11.765L21.6733 11.7699L21.6355 11.7749L21.5978 11.7802L21.5601 11.7855L21.5223 11.7909L21.4846 11.7966L21.4468 11.8023L21.4091 11.8084L21.3714 11.8145L21.3336 11.8207L21.2959 11.8272L21.2582 11.8337L21.2204 11.8405L21.1826 11.8474L21.1449 11.8546L21.1072 11.8619L21.0695 11.8692L21.0317 11.8769L20.994 11.8847L20.9563 11.8927L20.9185 11.9009L20.8807 11.9092L20.843 11.9178L20.8053 11.9264L20.7676 11.9355L20.7298 11.9446L20.6921 11.954L20.6544 11.9636L20.6166 11.9734L20.5789 11.9834L20.5411 11.9936L20.5034 12.004L20.4657 12.0147L20.428 12.0257L20.3902 12.0367L20.3524 12.0482L20.3147 12.0597L20.277 12.0717C20.2644 12.0757 20.2517 12.0796 20.2392 12.0837L20.2015 12.0962C20.189 12.1004 20.1763 12.1045 20.1638 12.1087L20.1261 12.1217L20.0883 12.1348C20.0757 12.1393 20.0631 12.1439 20.0505 12.1485C20.0379 12.153 20.0253 12.1575 20.0128 12.1621L19.9751 12.1763C19.9625 12.181 19.9498 12.1857 19.9374 12.1905L19.8996 12.2054L19.8619 12.2203L19.8242 12.2356L19.7864 12.2513L19.7486 12.2672L19.7109 12.2835L19.6732 12.3001L19.6355 12.3173L19.5978 12.3346C19.5851 12.3405 19.5726 12.3465 19.5601 12.3525L19.5223 12.3706L19.4845 12.3892L19.4468 12.4082C19.4342 12.4147 19.4215 12.421 19.4091 12.4275C19.3963 12.4341 19.3839 12.4408 19.3713 12.4475L19.3336 12.4678L19.2959 12.4885C19.2832 12.4955 19.2707 12.5027 19.2581 12.5098C19.2455 12.517 19.2329 12.5241 19.2203 12.5314C19.2078 12.5388 19.1952 12.5463 19.1826 12.5537C19.17 12.5613 19.1574 12.5689 19.1449 12.5765C19.1323 12.5842 19.1196 12.5919 19.1072 12.5997C19.0945 12.6076 19.0819 12.6156 19.0694 12.6236L19.0317 12.6481C19.0191 12.6564 19.0064 12.6646 18.994 12.673L18.9562 12.6987C18.9436 12.7074 18.931 12.7162 18.9185 12.725C18.9058 12.7339 18.8932 12.7429 18.8807 12.7519C18.8681 12.7611 18.8554 12.7702 18.843 12.7794C18.8303 12.7889 18.8178 12.7983 18.8053 12.8079C18.7926 12.8176 18.78 12.8273 18.7675 12.8371C18.7549 12.847 18.7423 12.8569 18.7298 12.8669Z" fill="#E10238"/>
</g>
<defs>
<clipPath id="clip0_420_591">
<rect width="46.5455" height="32" fill="white" transform="translate(0.590942)"/>
</clipPath>
</defs>
</svg>
