<svg width="47" height="32" viewBox="0 0 47 32" fill="none" xmlns="http://www.w3.org/2000/svg">
<g clip-path="url(#clip0_420_577)">
<path d="M46.6818 29.2983C46.6818 30.8179 45.45 32.0498 43.9304 32.0498H2.88772C1.36817 32.0499 0.136353 30.8179 0.136353 29.2983V2.70153C0.136353 1.18198 1.36817 -0.0499268 2.88772 -0.0499268H43.9304C45.4501 -0.0499268 46.6818 1.18198 46.6818 2.70153V29.2983Z" fill="#306FC5"/>
<path opacity="0.15" d="M2.09244 29.2983V2.70153C2.09244 1.18198 3.32444 -0.0499268 4.84399 -0.0499268H2.88763C1.36817 -0.0499268 0.136353 1.18189 0.136353 2.70153V29.2983C0.136353 30.818 1.36817 32.0499 2.88772 32.0499H4.84408C3.32453 32.0499 2.09244 30.8179 2.09244 29.2983Z" fill="#202121"/>
<path d="M6.91724 12.7953H8.30796L7.61278 11.0253L6.91724 12.7953Z" fill="white"/>
<path d="M14.3132 18.7369V19.5588H16.6522V20.444H14.3132V21.3925H16.905L18.106 20.0647L16.9682 18.7369H14.3132Z" fill="white"/>
<path d="M32.5816 11.0253L31.823 12.7953H33.2771L32.5816 11.0253Z" fill="white"/>
<path d="M21.0771 21.8976V18.2946L19.4335 20.0646L21.0771 21.8976Z" fill="white"/>
<path d="M24.1745 19.3061C24.1112 18.9268 23.8581 18.7369 23.4787 18.7369H22.1515V19.8748H23.5423C23.9215 19.8748 24.1745 19.6853 24.1745 19.3061Z" fill="white"/>
<path d="M28.599 19.7487C28.7255 19.6853 28.7889 19.4955 28.7889 19.3062C28.8522 19.0536 28.7255 18.927 28.599 18.8637C28.4729 18.8004 28.283 18.8004 28.0936 18.8004H26.8291V19.812H28.0936C28.2829 19.812 28.4728 19.812 28.599 19.7487Z" fill="white"/>
<path d="M37.7015 9.38159V10.1401L37.3225 9.38159H34.3518V10.1401L33.9723 9.38159H29.9267C29.2314 9.38159 28.6622 9.50814 28.1568 9.76096V9.38159H25.3123V9.44486V9.76096C24.9963 9.50823 24.6171 9.38159 24.1113 9.38159H13.9341L13.2384 10.962L12.5432 9.38159H10.2677H9.31941V10.1401L9.00332 9.38159H8.94005H6.22196L4.95751 12.3525L3.50378 15.5763L3.47705 15.6397H3.50378H6.72769H6.76805L6.79096 15.5763L7.17041 14.6283H7.99214L8.37141 15.6397H12.0374V15.5763V14.8811L12.3537 15.6396H14.1867L14.5026 14.8811V15.5763V15.6397H15.9565H23.2261H23.2893V13.996H23.416C23.5423 13.996 23.5423 13.996 23.5423 14.1858V15.5764H28.0937V15.1971C28.473 15.387 29.0415 15.5764 29.8001 15.5764H31.6968L32.076 14.5652H32.9608L33.34 15.5764H37.0062V14.9444V14.6284L37.5754 15.5764H37.7015H37.765H40.5463V9.38159H37.7017H37.7015ZM16.2728 14.6917H15.6405H15.2613V14.3127V11.2149L15.1981 11.3599V11.3581L13.7275 14.6917H13.681H13.3429H12.7959L11.2789 11.2149V14.6917H9.12978L8.68732 13.7435H6.53787L6.09532 14.6917H4.98414L6.85414 10.2667H8.43432L10.2042 14.5019V10.2667H10.5834H11.879L11.9088 10.33H11.911L12.7085 12.0659L13.2812 13.3664L13.3015 13.3009L14.5657 10.2668H16.2727V14.6917H16.2728ZM20.6346 11.2149H18.1692V12.0366H20.5713V12.9215H18.1692V13.8068H20.6346V14.7547H17.0947V10.2668H20.6346V11.2149ZM25.1432 12.8449C25.1449 12.8463 25.147 12.8473 25.149 12.8487C25.1729 12.874 25.1933 12.8993 25.2108 12.9236C25.3319 13.0823 25.4298 13.3184 25.4347 13.6646C25.4351 13.6706 25.4353 13.6765 25.4357 13.6825C25.4357 13.686 25.4363 13.689 25.4363 13.6925C25.4363 13.6945 25.4361 13.696 25.4361 13.698C25.4376 13.7328 25.4385 13.7683 25.4385 13.8068V14.6918H24.4905V14.1859C24.4905 13.933 24.4905 13.5537 24.3006 13.3009C24.2409 13.2411 24.1804 13.2018 24.1146 13.1738C24.0199 13.1124 23.8403 13.1114 23.5423 13.1114H22.4041V14.6918H21.3298V10.2668H23.7321C24.3006 10.2668 24.6801 10.2668 24.9962 10.4564C25.306 10.6424 25.4931 10.9509 25.5001 11.4393C25.4855 12.112 25.0537 12.4811 24.7432 12.6056C24.7432 12.6056 24.9541 12.648 25.1432 12.8449ZM27.2719 14.6917H26.1971V10.2667H27.2719V14.6917ZM39.5984 14.6917H38.2075L36.1848 11.3412V14.1226L36.1781 14.116V14.6944H35.1102V14.6918H34.0355L33.6562 13.7436H31.4436L31.0643 14.7548H29.8633C29.358 14.7548 28.7254 14.6285 28.3463 14.2492C27.9671 13.87 27.7776 13.3642 27.7776 12.5426C27.7776 11.9105 27.9039 11.278 28.3463 10.7724C28.6621 10.3929 29.2313 10.2668 29.9265 10.2668H30.9381V11.2149H29.9265C29.5472 11.2149 29.358 11.2779 29.1046 11.4679C28.9153 11.6574 28.7888 12.0366 28.7888 12.479C28.7888 12.9849 28.8521 13.3009 29.1046 13.5537C29.2947 13.7436 29.5473 13.8069 29.8633 13.8069H30.3058L31.7595 10.3302H32.392H33.34L35.1101 14.5654V14.3494V12.9217V12.7954V10.3303H36.6903L38.5231 13.4276V10.3303H39.5982V14.6919H39.5984V14.6917Z" fill="white"/>
<path d="M24.2419 12.1097C24.2603 12.0899 24.2771 12.0676 24.2912 12.0419C24.3485 11.9513 24.4141 11.788 24.3788 11.5652C24.3773 11.5448 24.3736 11.5258 24.3692 11.5076C24.3681 11.5025 24.3682 11.498 24.3669 11.4929L24.3662 11.493C24.3348 11.3848 24.2545 11.3182 24.1744 11.2778C24.0477 11.2148 23.8581 11.2148 23.6685 11.2148H22.4041V12.2264H23.6685C23.8581 12.2264 24.0478 12.2264 24.1744 12.163C24.1934 12.1534 24.2103 12.1403 24.2266 12.1255L24.2268 12.1263C24.2268 12.1263 24.2333 12.1195 24.2419 12.1097Z" fill="white"/>
<path d="M43.3277 21.0131C43.3277 20.5706 43.2014 20.128 43.0119 19.812V16.9676H43.009V16.7776C43.009 16.7776 40.3594 16.7776 39.965 16.7776C39.5709 16.7776 39.0925 17.1568 39.0925 17.1568V16.7776H36.1849C35.7421 16.7776 35.1736 16.9042 34.9204 17.1568V16.7776H29.7371V16.9676V17.1567C29.3581 16.8409 28.6622 16.7776 28.3464 16.7776H24.9329V16.9675V17.1566C24.6169 16.8408 23.858 16.7775 23.4785 16.7775H19.6863L18.8011 17.7257L17.9793 16.7775H17.7147H17.284H12.2904V16.9674V17.4667V23.1623H17.8531L18.7671 22.248L19.5594 23.1623H19.6229H22.8281H22.9734H23.0367H23.0996V22.5302V21.7085H23.4159C23.858 21.7085 24.4271 21.7085 24.8696 21.5186V23.0987V23.2255H27.7142V23.0987V21.5818H27.8403C28.0302 21.5818 28.0302 21.5818 28.0302 21.7715V23.0987V23.2255H36.6269C37.1962 23.2255 37.7648 23.0987 38.0808 22.8459V23.0987V23.2255H40.7991C41.3677 23.2255 41.937 23.1623 42.3163 22.9093C42.8983 22.5601 43.2651 21.942 43.3197 21.2048C43.3222 21.183 43.3254 21.1612 43.3274 21.1393L43.3237 21.1357C43.326 21.0948 43.3277 21.0544 43.3277 21.0131ZM23.4159 20.6339H22.1514V20.8231V21.2026V21.5819V22.2773H20.0737L18.8644 20.8865L18.8602 20.8911L18.8011 20.8231L17.4105 22.2773H13.365V17.8525H17.4738L18.5963 19.082L18.8323 19.3395L18.8643 19.3063L20.192 17.8526H23.5421C24.1923 17.8526 24.9204 18.013 25.1963 18.6746C25.2295 18.8056 25.2488 18.9512 25.2488 19.1166C25.2488 20.3808 24.3638 20.6339 23.4159 20.6339ZM29.7371 20.5706C29.8634 20.7597 29.9267 21.013 29.9267 21.3925V22.2772H28.8522V21.7085C28.8522 21.4552 28.8522 21.013 28.6623 20.8231C28.5362 20.6339 28.283 20.6339 27.904 20.6339H26.7663V22.2773H25.6918V17.7892H28.0937C28.599 17.7892 29.0415 17.7892 29.3581 17.9786C29.674 18.1685 29.9267 18.4846 29.9267 18.9903C29.9267 19.6855 29.4844 20.0647 29.1682 20.1914C29.4844 20.3173 29.674 20.4441 29.7371 20.5706ZM34.0989 18.737H31.6333V19.5588H34.0355V20.444H31.6333V21.3291H34.0989V22.2772H30.559V17.7891H34.0989V18.737ZM36.7537 22.2773H34.7308V21.3292H36.7537C36.9429 21.3292 37.0697 21.3292 37.1964 21.2026C37.2597 21.1393 37.3225 21.0131 37.3225 20.8866C37.3225 20.7598 37.2597 20.634 37.1964 20.5706C37.133 20.5075 37.0063 20.4442 36.8168 20.4442C35.8053 20.3809 34.6043 20.4442 34.6043 19.0536C34.6043 18.4215 34.9836 17.726 36.1215 17.726H38.2074V18.8005H36.2479C36.0584 18.8005 35.9318 18.8005 35.8052 18.8637C35.6791 18.9271 35.6791 19.0536 35.6791 19.1799C35.6791 19.3696 35.8052 19.4329 35.9317 19.4956C36.0584 19.559 36.1847 19.559 36.3109 19.559H36.8799C37.4489 19.559 37.8281 19.6855 38.0809 19.9384C38.2707 20.1281 38.3971 20.4442 38.3971 20.8866C38.3971 21.8345 37.8282 22.2773 36.7537 22.2773ZM42.19 21.8345C41.9374 22.0876 41.4947 22.2773 40.8623 22.2773H38.84V21.3292H40.8622C41.052 21.3292 41.1787 21.3292 41.305 21.2026C41.368 21.1393 41.4314 21.0131 41.4314 20.8866C41.4314 20.7598 41.368 20.634 41.305 20.5706C41.2417 20.5075 41.1154 20.4442 40.9257 20.4442C39.9146 20.3809 38.7132 20.4442 38.7132 19.0537C38.7132 18.4529 39.0569 17.9102 39.9047 17.749C40.006 17.735 40.1131 17.726 40.2304 17.726H42.3166V18.8005H40.9257H40.4201H40.3569C40.1671 18.8005 40.0409 18.8005 39.9146 18.8637C39.851 18.9271 39.7877 19.0536 39.7877 19.1799C39.7877 19.3696 39.851 19.4329 40.0409 19.4956C40.1671 19.559 40.2936 19.559 40.4201 19.559H40.483H40.9889C41.2651 19.559 41.474 19.5931 41.6652 19.6603C41.8403 19.7236 42.42 19.9829 42.5496 20.6597C42.5609 20.7306 42.5691 20.8046 42.5691 20.8866C42.5691 21.2659 42.4427 21.5819 42.19 21.8345Z" fill="white"/>
</g>
<defs>
<clipPath id="clip0_420_577">
<rect width="46.5455" height="32" fill="white" transform="translate(0.136353)"/>
</clipPath>
</defs>
</svg>
