<svg width="560" height="602" viewBox="0 0 560 602" fill="none" xmlns="http://www.w3.org/2000/svg">
<g clip-path="url(#clip0_453_4489)">
<circle cx="385" cy="322" r="7" fill="#B9B9B9" fill-opacity="0.3"/>
<circle cx="406" cy="322" r="7" fill="#B9B9B9" fill-opacity="0.3"/>
<circle cx="364" cy="322" r="7" fill="#B9B9B9" fill-opacity="0.3"/>
<circle cx="322" cy="322" r="7" fill="#B9B9B9" fill-opacity="0.3"/>
<circle cx="469" cy="154" r="7" fill="#B9B9B9" fill-opacity="0.3"/>
<circle cx="385" cy="154" r="7" fill="#B9B9B9" fill-opacity="0.3"/>
<circle cx="406" cy="154" r="7" fill="#B9B9B9" fill-opacity="0.3"/>
<circle cx="217" cy="490" r="7" fill="#B9B9B9" fill-opacity="0.3"/>
<circle cx="91" cy="490" r="7" fill="#B9B9B9" fill-opacity="0.3"/>
<circle cx="70" cy="490" r="7" fill="#B9B9B9" fill-opacity="0.3"/>
<circle cx="238" cy="490" r="7" fill="#B9B9B9" fill-opacity="0.3"/>
<circle cx="112" cy="490" r="7" fill="#B9B9B9" fill-opacity="0.3"/>
<circle cx="469" cy="70" r="7" fill="#B9B9B9" fill-opacity="0.3"/>
<circle cx="511" cy="70" r="7" fill="#B9B9B9" fill-opacity="0.3"/>
<circle cx="427" cy="70" r="7" fill="#B9B9B9" fill-opacity="0.3"/>
<circle cx="490" cy="70" r="7" fill="#B9B9B9" fill-opacity="0.3"/>
<circle cx="532" cy="70" r="7" fill="#B9B9B9" fill-opacity="0.3"/>
<circle cx="448" cy="70" r="7" fill="#B9B9B9" fill-opacity="0.3"/>
<circle cx="301" cy="406" r="7" fill="#B9B9B9" fill-opacity="0.3"/>
<circle cx="385" cy="406" r="7" fill="#B9B9B9" fill-opacity="0.3"/>
<circle cx="343" cy="406" r="7" fill="#B9B9B9" fill-opacity="0.3"/>
<circle cx="259" cy="406" r="7" fill="#B9B9B9" fill-opacity="0.3"/>
<circle cx="322" cy="406" r="7" fill="#B9B9B9" fill-opacity="0.3"/>
<circle cx="364" cy="406" r="7" fill="#B9B9B9" fill-opacity="0.3"/>
<circle cx="280" cy="406" r="7" fill="#B9B9B9" fill-opacity="0.3"/>
<circle cx="385" cy="238" r="7" fill="#B9B9B9" fill-opacity="0.3"/>
<circle cx="427" cy="238" r="7" fill="#B9B9B9" fill-opacity="0.3"/>
<circle cx="406" cy="238" r="7" fill="#B9B9B9" fill-opacity="0.3"/>
<circle cx="49" cy="574" r="7" fill="#B9B9B9" fill-opacity="0.3"/>
<circle cx="91" cy="574" r="7" fill="#B9B9B9" fill-opacity="0.3"/>
<circle cx="70" cy="574" r="7" fill="#B9B9B9" fill-opacity="0.3"/>
<circle cx="469" cy="28" r="7" fill="#B9B9B9" fill-opacity="0.3"/>
<circle cx="427" cy="28" r="7" fill="#B9B9B9" fill-opacity="0.3"/>
<circle cx="448" cy="28" r="7" fill="#B9B9B9" fill-opacity="0.3"/>
<circle cx="385" cy="364" r="7" fill="#B9B9B9" fill-opacity="0.3"/>
<circle cx="343" cy="364" r="7" fill="#B9B9B9" fill-opacity="0.3"/>
<circle cx="259" cy="364" r="7" fill="#B9B9B9" fill-opacity="0.3"/>
<circle cx="322" cy="364" r="7" fill="#B9B9B9" fill-opacity="0.3"/>
<circle cx="406" cy="364" r="7" fill="#B9B9B9" fill-opacity="0.3"/>
<circle cx="364" cy="364" r="7" fill="#B9B9B9" fill-opacity="0.3"/>
<circle cx="280" cy="364" r="7" fill="#B9B9B9" fill-opacity="0.3"/>
<circle cx="385" cy="196" r="7" fill="#B9B9B9" fill-opacity="0.3"/>
<circle cx="406" cy="196" r="7" fill="#B9B9B9" fill-opacity="0.3"/>
<circle cx="133" cy="532" r="7" fill="#B9B9B9" fill-opacity="0.3"/>
<circle cx="49" cy="532" r="7" fill="#B9B9B9" fill-opacity="0.3"/>
<circle cx="7" cy="532" r="7" fill="#B9B9B9" fill-opacity="0.3"/>
<circle cx="91" cy="532" r="7" fill="#B9B9B9" fill-opacity="0.3"/>
<circle cx="70" cy="532" r="7" fill="#B9B9B9" fill-opacity="0.3"/>
<circle cx="28" cy="532" r="7" fill="#B9B9B9" fill-opacity="0.3"/>
<circle cx="469" cy="112" r="7" fill="#B9B9B9" fill-opacity="0.3"/>
<circle cx="385" cy="112" r="7" fill="#B9B9B9" fill-opacity="0.3"/>
<circle cx="511" cy="112" r="7" fill="#B9B9B9" fill-opacity="0.3"/>
<circle cx="427" cy="112" r="7" fill="#B9B9B9" fill-opacity="0.3"/>
<circle cx="490" cy="112" r="7" fill="#B9B9B9" fill-opacity="0.3"/>
<circle cx="406" cy="112" r="7" fill="#B9B9B9" fill-opacity="0.3"/>
<circle cx="532" cy="112" r="7" fill="#B9B9B9" fill-opacity="0.3"/>
<circle cx="448" cy="112" r="7" fill="#B9B9B9" fill-opacity="0.3"/>
<circle cx="301" cy="448" r="7" fill="#B9B9B9" fill-opacity="0.3"/>
<circle cx="133" cy="448" r="7" fill="#B9B9B9" fill-opacity="0.3"/>
<circle cx="385" cy="448" r="7" fill="#B9B9B9" fill-opacity="0.3"/>
<circle cx="217" cy="448" r="7" fill="#B9B9B9" fill-opacity="0.3"/>
<circle cx="343" cy="448" r="7" fill="#B9B9B9" fill-opacity="0.3"/>
<circle cx="175" cy="448" r="7" fill="#B9B9B9" fill-opacity="0.3"/>
<circle cx="259" cy="448" r="7" fill="#B9B9B9" fill-opacity="0.3"/>
<circle cx="322" cy="448" r="7" fill="#B9B9B9" fill-opacity="0.3"/>
<circle cx="154" cy="448" r="7" fill="#B9B9B9" fill-opacity="0.3"/>
<circle cx="238" cy="448" r="7" fill="#B9B9B9" fill-opacity="0.3"/>
<circle cx="364" cy="448" r="7" fill="#B9B9B9" fill-opacity="0.3"/>
<circle cx="196" cy="448" r="7" fill="#B9B9B9" fill-opacity="0.3"/>
<circle cx="280" cy="448" r="7" fill="#B9B9B9" fill-opacity="0.3"/>
<circle cx="385" cy="280" r="7" fill="#B9B9B9" fill-opacity="0.3"/>
<circle cx="427" cy="280" r="7" fill="#B9B9B9" fill-opacity="0.3"/>
<circle cx="406" cy="280" r="7" fill="#B9B9B9" fill-opacity="0.3"/>
<circle cx="427" cy="7" r="7" fill="#B9B9B9" fill-opacity="0.3"/>
<circle cx="448" cy="7" r="7" fill="#B9B9B9" fill-opacity="0.3"/>
<circle cx="385" cy="343" r="7" fill="#B9B9B9" fill-opacity="0.3"/>
<circle cx="343" cy="343" r="7" fill="#B9B9B9" fill-opacity="0.3"/>
<circle cx="406" cy="343" r="7" fill="#B9B9B9" fill-opacity="0.3"/>
<circle cx="364" cy="343" r="7" fill="#B9B9B9" fill-opacity="0.3"/>
<circle cx="385" cy="175" r="7" fill="#B9B9B9" fill-opacity="0.3"/>
<circle cx="406" cy="175" r="7" fill="#B9B9B9" fill-opacity="0.3"/>
<circle cx="133" cy="511" r="7" fill="#B9B9B9" fill-opacity="0.3"/>
<circle cx="49" cy="511" r="7" fill="#B9B9B9" fill-opacity="0.3"/>
<circle cx="217" cy="511" r="7" fill="#B9B9B9" fill-opacity="0.3"/>
<circle cx="175" cy="511" r="7" fill="#B9B9B9" fill-opacity="0.3"/>
<circle cx="91" cy="511" r="7" fill="#B9B9B9" fill-opacity="0.3"/>
<circle cx="154" cy="511" r="7" fill="#B9B9B9" fill-opacity="0.3"/>
<circle cx="70" cy="511" r="7" fill="#B9B9B9" fill-opacity="0.3"/>
<circle cx="238" cy="511" r="7" fill="#B9B9B9" fill-opacity="0.3"/>
<circle cx="469" cy="91" r="7" fill="#B9B9B9" fill-opacity="0.3"/>
<circle cx="385" cy="91" r="7" fill="#B9B9B9" fill-opacity="0.3"/>
<circle cx="511" cy="91" r="7" fill="#B9B9B9" fill-opacity="0.3"/>
<circle cx="427" cy="91" r="7" fill="#B9B9B9" fill-opacity="0.3"/>
<circle cx="490" cy="91" r="7" fill="#B9B9B9" fill-opacity="0.3"/>
<circle cx="532" cy="91" r="7" fill="#B9B9B9" fill-opacity="0.3"/>
<circle cx="448" cy="91" r="7" fill="#B9B9B9" fill-opacity="0.3"/>
<circle cx="301" cy="427" r="7" fill="#B9B9B9" fill-opacity="0.3"/>
<circle cx="385" cy="427" r="7" fill="#B9B9B9" fill-opacity="0.3"/>
<circle cx="217" cy="427" r="7" fill="#B9B9B9" fill-opacity="0.3"/>
<circle cx="343" cy="427" r="7" fill="#B9B9B9" fill-opacity="0.3"/>
<circle cx="259" cy="427" r="7" fill="#B9B9B9" fill-opacity="0.3"/>
<circle cx="322" cy="427" r="7" fill="#B9B9B9" fill-opacity="0.3"/>
<circle cx="238" cy="427" r="7" fill="#B9B9B9" fill-opacity="0.3"/>
<circle cx="364" cy="427" r="7" fill="#B9B9B9" fill-opacity="0.3"/>
<circle cx="196" cy="427" r="7" fill="#B9B9B9" fill-opacity="0.3"/>
<circle cx="280" cy="427" r="7" fill="#B9B9B9" fill-opacity="0.3"/>
<circle cx="385" cy="259" r="7" fill="#B9B9B9" fill-opacity="0.3"/>
<circle cx="427" cy="259" r="7" fill="#B9B9B9" fill-opacity="0.3"/>
<circle cx="406" cy="259" r="7" fill="#B9B9B9" fill-opacity="0.3"/>
<circle cx="49" cy="595" r="7" fill="#B9B9B9" fill-opacity="0.3"/>
<circle cx="70" cy="595" r="7" fill="#B9B9B9" fill-opacity="0.3"/>
<circle cx="469" cy="49" r="7" fill="#B9B9B9" fill-opacity="0.3"/>
<circle cx="427" cy="49" r="7" fill="#B9B9B9" fill-opacity="0.3"/>
<circle cx="490" cy="49" r="7" fill="#B9B9B9" fill-opacity="0.3"/>
<circle cx="553" cy="49" r="7" fill="#B9B9B9" fill-opacity="0.3"/>
<circle cx="448" cy="49" r="7" fill="#B9B9B9" fill-opacity="0.3"/>
<circle cx="301" cy="385" r="7" fill="#B9B9B9" fill-opacity="0.3"/>
<circle cx="385" cy="385" r="7" fill="#B9B9B9" fill-opacity="0.3"/>
<circle cx="343" cy="385" r="7" fill="#B9B9B9" fill-opacity="0.3"/>
<circle cx="259" cy="385" r="7" fill="#B9B9B9" fill-opacity="0.3"/>
<circle cx="322" cy="385" r="7" fill="#B9B9B9" fill-opacity="0.3"/>
<circle cx="364" cy="385" r="7" fill="#B9B9B9" fill-opacity="0.3"/>
<circle cx="280" cy="385" r="7" fill="#B9B9B9" fill-opacity="0.3"/>
<circle cx="385" cy="217" r="7" fill="#B9B9B9" fill-opacity="0.3"/>
<circle cx="427" cy="217" r="7" fill="#B9B9B9" fill-opacity="0.3"/>
<circle cx="406" cy="217" r="7" fill="#B9B9B9" fill-opacity="0.3"/>
<circle cx="49" cy="553" r="7" fill="#B9B9B9" fill-opacity="0.3"/>
<circle cx="91" cy="553" r="7" fill="#B9B9B9" fill-opacity="0.3"/>
<circle cx="70" cy="553" r="7" fill="#B9B9B9" fill-opacity="0.3"/>
<circle cx="469" cy="133" r="7" fill="#B9B9B9" fill-opacity="0.3"/>
<circle cx="385" cy="133" r="7" fill="#B9B9B9" fill-opacity="0.3"/>
<circle cx="490" cy="133" r="7" fill="#B9B9B9" fill-opacity="0.3"/>
<circle cx="406" cy="133" r="7" fill="#B9B9B9" fill-opacity="0.3"/>
<circle cx="427" cy="133" r="7" fill="#B9B9B9" fill-opacity="0.3"/>
<circle cx="364" cy="133" r="7" fill="#B9B9B9" fill-opacity="0.3"/>
<circle cx="448" cy="133" r="7" fill="#B9B9B9" fill-opacity="0.3"/>
<circle cx="301" cy="469" r="7" fill="#B9B9B9" fill-opacity="0.3"/>
<circle cx="133" cy="469" r="7" fill="#B9B9B9" fill-opacity="0.3"/>
<circle cx="217" cy="469" r="7" fill="#B9B9B9" fill-opacity="0.3"/>
<circle cx="175" cy="469" r="7" fill="#B9B9B9" fill-opacity="0.3"/>
<circle cx="91" cy="469" r="7" fill="#B9B9B9" fill-opacity="0.3"/>
<circle cx="259" cy="469" r="7" fill="#B9B9B9" fill-opacity="0.3"/>
<circle cx="154" cy="469" r="7" fill="#B9B9B9" fill-opacity="0.3"/>
<circle cx="238" cy="469" r="7" fill="#B9B9B9" fill-opacity="0.3"/>
<circle cx="112" cy="469" r="7" fill="#B9B9B9" fill-opacity="0.3"/>
<circle cx="280" cy="469" r="7" fill="#B9B9B9" fill-opacity="0.3"/>
<circle cx="385" cy="301" r="7" fill="#B9B9B9" fill-opacity="0.3"/>
<circle cx="427" cy="301" r="7" fill="#B9B9B9" fill-opacity="0.3"/>
<circle cx="406" cy="301" r="7" fill="#B9B9B9" fill-opacity="0.3"/>
<circle cx="364" cy="301" r="7" fill="#B9B9B9" fill-opacity="0.3"/>
</g>
<circle cx="343" cy="427" r="7" fill="#AB3C22"/>
<circle cx="343" cy="427" r="11" stroke="#AB3C22" stroke-opacity="0.25" stroke-width="8"/>
<defs>
<clipPath id="clip0_453_4489">
<rect width="560" height="602" fill="white"/>
</clipPath>
</defs>
</svg>
