<svg width="140" height="140" viewBox="0 0 140 140" fill="none" xmlns="http://www.w3.org/2000/svg">
<g clip-path="url(#clip0_352_24)">
<path d="M51.8679 114.263C52.7673 114.463 53.7 114.573 54.6813 114.573C55.6606 114.573 56.5952 114.463 57.4924 114.263C57.6962 114.219 57.8835 114.132 58.0826 114.078L57.7054 111.424C56.7658 111.682 55.7773 111.804 54.7326 111.804C50.4456 111.804 46.969 109.824 44.4133 104.331C44.1438 103.778 43.8861 103.176 43.6449 102.517C40.494 94.47 38.8729 82.3235 38.8144 64.7369H50.9001C51.0523 63.7671 51.3874 62.865 51.8745 62.0615H37.8887H36.2067H0.949951V63.0524C0.949951 95.4701 5.94678 111.904 16.6082 114.263C17.5077 114.462 18.4403 114.572 19.4216 114.572C20.4009 114.572 21.3356 114.462 22.2327 114.263C30.3992 112.455 35.2297 102.355 37.05 83.1737C38.8683 102.356 43.7014 112.455 51.8679 114.263ZM30.4652 102.496C30.2194 103.169 29.9545 103.785 29.6781 104.349C27.1224 109.831 23.7559 111.804 19.4735 111.804C15.1865 111.804 11.7099 109.824 9.15417 104.331C8.8847 103.778 8.62705 103.176 8.38583 102.517C5.23492 94.47 3.61379 82.3235 3.55529 64.7369H35.2842C35.2277 82.3094 33.6092 94.447 30.4652 102.496Z" fill="#AB3C22"/>
<path d="M54.7328 109.257C55.609 109.257 56.4782 109.1 57.331 108.77L53.8192 84.0219H42.4736C44.1533 103.759 49.5484 109.257 54.7328 109.257Z" fill="#AB3C22"/>
<path d="M44.9124 140H61.7632L61.1657 135.786H57.4949V116.559C56.5741 116.752 55.6372 116.848 54.6838 116.848C53.7304 116.848 52.7909 116.749 51.8727 116.559V135.786H44.9173C43.959 135.786 43.1814 136.376 43.1814 137.104V138.679C43.1765 139.409 43.9518 140 44.9124 140Z" fill="#AB3C22"/>
<path d="M19.4736 109.257C24.658 109.257 29.6782 104.349 31.7328 84.0219H7.21436C8.89399 103.759 14.2914 109.257 19.4736 109.257Z" fill="#AB3C22"/>
<path d="M19.4219 116.847C18.4663 116.847 17.529 116.749 16.6108 116.559V135.785H9.65307C8.6948 135.785 7.91724 136.376 7.91724 137.104V138.678C7.91724 139.407 8.69509 139.997 9.65307 139.997H28.7458C29.7041 139.997 30.4816 139.407 30.4816 138.678V137.104C30.4816 136.376 29.7038 135.785 28.7458 135.785H22.233V116.559C21.3125 116.749 20.3753 116.847 19.4219 116.847Z" fill="#AB3C22"/>
<path d="M124.898 57.3765C125.069 56.5309 125.167 55.6874 125.226 54.8487C125.238 54.6591 125.254 54.4668 125.259 54.2772C125.374 51.3747 124.835 48.561 123.748 46.0052C122.609 42.6973 121.173 39.7317 120.688 37.2624C119.69 32.1883 120.389 28.3601 120.389 28.3601L123.221 14.7447L108.361 11.4156L105.512 25.1015C105.512 25.1015 104.622 29.3792 100.811 32.9071C97.4186 36.0485 91.712 40.6026 89.5332 47.4174C89.2989 48.1227 89.0905 48.844 88.9334 49.5913L88.5305 51.524L100.513 54.7006L99.8949 57.3759H124.898V57.3765Z" fill="#AB3C22"/>
<path d="M111.001 100.681C111.332 100.915 111.664 101.144 112.002 101.365C112.351 101.592 112.705 101.815 113.063 102.025C117.113 104.417 121.719 105.776 126.793 105.776C128.339 105.776 129.93 105.65 131.563 105.387C131.736 105.359 131.905 105.348 132.067 105.348C132.315 105.348 132.549 105.378 132.777 105.427L137.572 74.1011C136.862 74.3002 136.129 74.4432 135.358 74.4432H123.746H122.551H121.354H83.7654H82.5682H81.3734H72.9141H70.309H57.9867C57.2864 74.4432 56.6163 74.3285 55.9673 74.1645L57.3659 84.0224L60.5402 106.393L61.0088 109.698L61.4163 112.568L62.9178 123.156H130.061L131.844 111.518C130.22 111.724 128.627 111.823 127.065 111.823C119.578 111.823 112.805 109.52 107.094 105.387C106.707 105.109 106.325 104.823 105.948 104.528C105.583 104.242 105.224 103.944 104.868 103.642C101.143 100.477 97.9314 96.4992 95.3638 91.8326C87.9072 91.4978 87.9985 79.4821 95.6684 79.4821C100.989 79.4821 102.666 85.266 100.71 88.9276C103.418 93.7206 106.89 97.7546 111.001 100.681Z" fill="#AB3C22"/>
<path d="M128.588 132.801L64.2886 132.799L64.7315 135.914L65.2538 139.59L65.2912 139.857H127.508L128.588 132.801Z" fill="#AB3C22"/>
<path d="M126.322 62.0618H125.127H123.93H86.3424H85.1452H83.948H73.1483H57.9889C56.349 62.0618 54.9714 63.1909 54.4936 64.7371C54.3789 65.1095 54.2991 65.4986 54.2991 65.9084C54.2991 67.1805 54.9011 68.3025 55.817 69.0031C56.4286 69.4694 57.1733 69.755 57.9886 69.755H70.468H73.0636H82.3477H83.5448H84.742H122.33H123.527H124.722H135.36C136.173 69.755 136.921 69.4691 137.532 69.0031C138.448 68.3027 139.05 67.1805 139.05 65.9084C139.05 63.7884 137.393 62.0594 135.36 62.0594H126.322V62.0618Z" fill="#AB3C22"/>
<path d="M112.194 0L111.043 8.06098L110.877 9.22301L110.828 9.56741L122.452 12.1702L122.59 11.7906L122.993 10.6802L125.697 3.22814L112.194 0Z" fill="#AB3C22"/>
</g>
<defs>
<clipPath id="clip0_352_24">
<rect width="140" height="140" fill="white"/>
</clipPath>
</defs>
</svg>
