<svg width="139" height="139" viewBox="0 0 139 139" fill="none" xmlns="http://www.w3.org/2000/svg">
<g clip-path="url(#clip0_439_3179)">
<path d="M130.972 38.7022L116.839 32.7203C115.493 33.9792 113.559 35.1281 110.801 35.5888C110.334 35.6665 109.756 35.7235 109.092 35.7669L124.761 42.399L112.293 47.6756C113.806 48.6747 115.045 49.456 115.876 49.9696C116.005 50.0476 116.115 50.1401 116.234 50.2256L126.926 45.7V64.7981L103.332 74.7844C103.238 75.1561 103.158 75.4612 103.112 75.6016C102.323 78.106 100.041 79.7878 97.4394 79.7878C96.205 79.7878 95.001 79.4105 93.9829 78.7413L70.4669 88.695V69.5969L81.7786 64.8095C80.9633 63.7154 80.2048 62.6442 79.4579 61.5751L68.5255 66.2011L59.095 62.2082C58.3403 63.274 57.563 64.3431 56.7401 65.4315L66.5841 69.5971V88.6953L44.1623 79.2058C43.3508 79.5756 42.4671 79.7878 41.5628 79.7878C39.0013 79.7878 36.764 78.1573 35.9376 75.7229L17.247 67.813V67.6878L12.0747 65.498V46.5229L22.1006 50.7662C22.4117 50.4798 22.7416 50.2069 23.1168 49.9756C23.805 49.5507 24.7777 48.9385 25.9418 48.1762L13.8608 43.0628L30.9738 35.8201C29.4798 35.7691 28.6874 35.6703 28.2039 35.5888C25.6934 35.1697 23.8791 34.1801 22.5518 33.0597L6.25 39.9592V69.3585L11.4223 71.5483V114.65L68.9561 139L127.578 114.189V71.042L132.75 68.8541V39.4548L130.972 38.7022ZM66.5841 131.67L17.2467 110.789V72.0296L66.5841 92.9122V131.67ZM121.754 110.329L70.4672 132.036V92.9125L121.754 71.2032V110.329Z" fill="#AB3C22"/>
<path d="M29.0303 30.6101C32.3522 31.1617 45.7339 30.4548 55.6366 29.8233C45.4703 41.6106 30.606 51.282 25.7749 54.2662C24.768 54.89 25.2534 55.749 25.8697 55.9442C26.4879 56.1375 36.6769 60.6197 36.6769 60.6197C37.2723 60.8776 37.7102 61.4027 37.8601 62.0341C37.8601 62.0341 40.4139 73.175 40.7003 74.0813C40.9865 74.9875 41.9953 74.83 42.437 74.375C58.6628 57.679 65.9112 41.4817 68.8614 32.9894C69.0737 33.0046 69.286 33.0217 69.5021 33.0217C69.7166 33.0217 69.927 33.0046 70.1393 32.9894C73.0892 41.4817 80.3395 57.679 96.5634 74.375C97.007 74.83 98.014 74.9875 98.3001 74.0813C98.5865 73.175 101.14 62.0341 101.14 62.0341C101.29 61.4027 101.728 60.8776 102.324 60.6197C102.324 60.6197 112.513 56.1375 113.131 55.9442C113.747 55.7487 114.232 54.89 113.225 54.2662C108.391 51.282 93.5016 41.5916 83.3372 29.7891C93.0694 30.4301 106.59 31.1732 109.97 30.6101C115.402 29.7039 115.704 24.5753 115.099 22.4634C114.665 20.9504 109.634 8.10485 104.842 2.54974C102.934 0.337143 99.108 -1.07159 96.3929 1.04056C91.0767 5.17581 82.778 11.954 78.3015 15.6244C77.164 12.8298 74.7334 10.7176 69.5021 10.7176C64.1745 10.7176 61.7458 12.9036 60.6327 15.7724C56.5963 12.3881 48.1873 5.38241 42.6075 1.04056C39.8927 -1.07159 36.0664 0.337143 34.1589 2.54974C29.3661 8.10485 24.3361 20.9501 23.9017 22.4631C23.2971 24.5753 23.5985 29.7039 29.0303 30.6101Z" fill="#AB3C22"/>
</g>
<defs>
<clipPath id="clip0_439_3179">
<rect width="139" height="139" fill="white"/>
</clipPath>
</defs>
</svg>
