<svg width="49" height="40" viewBox="0 0 49 40" fill="none" xmlns="http://www.w3.org/2000/svg">
<path d="M4.65955 31.0878H0V0C4.12818 0 4.65955 5.8814 4.65955 10.5048V31.0878Z" fill="white"/>
<path d="M48.0816 6.98839H43.5895V0.270658C45.6517 0.270658 46.8192 1.73925 47.4673 3.78921C47.7722 4.75546 47.9637 5.85542 48.0816 6.98839Z" fill="white"/>
<path d="M48.2474 10.7722V39.9989C46.1814 39.9989 45.0178 38.5298 44.3696 36.4804C43.8394 34.8066 43.655 32.742 43.6059 30.7836C43.5944 30.3451 43.5911 29.9137 43.5911 29.4936V9.03186H48.2201C48.224 9.07949 48.2272 9.12659 48.2272 9.17422C48.2398 9.7177 48.2474 10.2547 48.2474 10.7722Z" fill="white"/>
<path d="M43.6037 30.7836L43.589 30.8458V29.4925C43.5895 29.9137 43.5922 30.3451 43.6037 30.7836Z" fill="white"/>
<path d="M36.2371 1.17736C36.2371 1.17736 36.1024 1.30782 36.0571 1.356C35.1695 2.27353 31.2224 6.58186 29.7931 12.1975C28.3637 6.58294 24.4178 2.27353 23.5296 1.35654C23.4838 1.30836 23.3485 1.17736 23.3485 1.17736C22.7315 0.60465 21.9535 0.26741 20.9688 0.26741V40H25.6283V13.9844C25.8782 15.2727 26.0915 16.2963 26.2284 16.8106C26.8591 19.1523 29.7052 21.362 29.7876 21.4258V21.4318L29.7914 21.4285L29.7953 21.4318V21.4258C29.8776 21.362 32.7232 19.1523 33.3544 16.8106C33.4925 16.2963 33.7063 15.2727 33.9545 13.9844V39.9995H38.6141V0.26741C37.6321 0.26741 36.8541 0.60465 36.2371 1.17736Z" fill="white"/>
<path d="M11.3376 31.0878H15.9972V0C11.869 0 11.3376 5.8814 11.3376 10.5048V31.0878Z" fill="white"/>
<path d="M15.9972 33.1247V33.4609C15.9972 37.072 12.5771 39.9995 8.35948 39.9995C3.74357 39.9995 0.00163787 37.0764 0.00163787 33.1247H15.9972Z" fill="white"/>
</svg>
